<?xml version="1.0" standalone="no"?>
<!DOCTYPE svg PUBLIC "-//W3C//DTD SVG 1.1//EN" "http://www.w3.org/Graphics/SVG/1.1/DTD/svg11.dtd" >
<svg xmlns="http://www.w3.org/2000/svg">
<metadata>
Created by FontPrep 20130207 at Wed Feb 25 01:29:05 2015
 By Adam Fathony
Copyright (c) 2015 by Flavor Type. All rights reserved.
</metadata>
<defs>
<font id="d76a0a168b88ba7af2bdea7ed76d6adb" horiz-adv-x='1024' >
  <font-face 
    font-family="Heartwell"
    font-weight="400"
    font-stretch="normal"
    units-per-em="2048"
    panose-1="0 0 0 0 0 0 0 0 0 0"
    ascent="1638"
    descent="-410"
    x-height="703"
    cap-height="1563"
    bbox="-633 -894.244 1726 2011"
    underline-thickness="102"
    underline-position="-102"
    unicode-range="U+0020-2212"
  />
<missing-glyph horiz-adv-x="514" 
 />
    <glyph glyph-name=".notdef" horiz-adv-x="514" 
 />
    <glyph glyph-name=".null" horiz-adv-x="0" 
 />
    <glyph glyph-name="nonmarkingreturn" horiz-adv-x="681" 
 />
    <glyph glyph-name="space" unicode=" " horiz-adv-x="514" 
 />
    <glyph glyph-name="exclam" unicode="!" horiz-adv-x="487" 
d="M84 536q0 26 10 97q-12 74 -2 210t37 224q2 20 0 52t14 52q-6 6 -10 27q10 -2 12 4t5 6q0 47 28 171q29 124 33 147q-25 -6 -28 -42q-1 -11 -3 -16q-11 0 -7 12q5 12 5 15q12 98 43 166q61 -4 149 -77t111 -85q12 -84 -32 -88q-6 -27 -43 -137t-46 -146q20 -39 -48 -326
q-24 -102 -24 -110t11 -72q10 -64 -10 -106q4 -37 4 -69t8 -68q-2 -2 -11 -6q-9 -3 -7 -13t8 -6t12 2q-13 -22 -38 -22t-42 5t-39 14t-28 11q-2 4 -14 41q-11 37 -21 47t-27 5q-10 55 -10 81zM115 201q61 -17 93 -27t75 -36t67 -60q2 -45 -20 -54t-27 -38q-4 -29 -6 -76
t-21 -72q6 -16 4 -38t-1 -33q-13 19 -30 11q-17 -9 -22 -11q-31 39 -73 49q-72 137 -36 256q13 43 -3 129z" />
    <glyph glyph-name="quotedbl" unicode="&#x22;" horiz-adv-x="354" 
d="M283 1450q1 0 35 5t34 -11l-10 -19q0 -25 -39 -176q-18 -72 -41 -71q-18 -2 -43 26h-14q-4 8 -21 25q20 55 22 119q1 65 3 84q20 22 67 32q8 -4 6 -9t1 -5zM70 1143l-64 63q10 124 3 170t-1 70t39 18q6 -4 9 -13t5 -11q6 2 43 22t50 -11q4 -11 8 -13q-25 -17 -25 -92
q-5 -33 -10 -55q-6 -23 -9 -41q-14 -86 -48 -107z" />
    <glyph glyph-name="numbersign" unicode="#" horiz-adv-x="790" 
d="M311 741h125q6 66 13 123q-45 4 -136 8q0 -88 -2 -131zM594 745q46 0 70 3q57 -25 118 -82q-2 -12 -16 -11q10 -12 22 -22q-14 -41 -38 -53q-47 -2 -156 4q0 -45 2 -60q-27 -47 -86 -84q-8 2 -7 12t-5 9q-22 -11 -23 -12q-38 31 -49 53l-6 6q0 30 6 84q-35 4 -115 8
l2 -76q-27 -47 -86 -84q-8 2 -7 12t-5 9q-20 -10 -22 -12q-40 33 -50 53l-6 6q0 10 8 106q-61 8 -94 28t-6 63l-16 20q8 4 18 29q49 -8 107 -11q2 30 14 142h-6q-124 12 -146 37t-2 59l-16 18q5 2 18 29q68 -8 166 -10q12 117 36 143q24 27 69 -16l18 8q2 -4 29 -31
q-4 -14 -12 -106q49 2 143 2q12 117 36 143q24 27 68 -16l19 8q2 -4 28 -31q-8 -41 -10 -100l27 2q57 -25 119 -82q0 -8 -11 -8q-8 2 -6 -4l23 -23q-8 -27 -31 -45q0 -4 -8 -8q-23 0 -121 4q-4 -78 -4 -113z" />
    <glyph glyph-name="dollar" unicode="$" horiz-adv-x="720" 
d="M408 1303q2 -18 43 -19q-3 14 -17 20t-26 -1zM419 -41q-24 0 -36 -6q0 -11 -6 -27t-8 -23t10 -24q-8 6 -10 2q0 -4 -4 -4q11 -3 13 -17q1 -15 3 -22l-19 -4q6 -10 15 -14q14 -137 41 -199q-14 -10 -44 -12t-48 8q4 23 -25 33q0 6 -7 21t-8 21t7 17q-2 4 -8 6t-9 4
q-17 187 -22 248q-14 13 -51 25t-45 19t-5 8t9 1q-59 39 -103 101q-2 4 -10 5t-10 3q-53 141 12 301q-10 27 29 55q-4 -14 0 -16q16 31 74 35t104 -15q6 -14 -4 -23t-10 -17q-46 4 -58 -30t-2 -75t-2 -72q14 -8 24 -32t28 -42q16 -20 68 -39q140 -51 190 48q20 -6 26 -4
q31 43 27 126t-56 146q-55 0 -176 88q-16 12 -72 52t-81 61q-104 90 -111 194q0 2 5 29t-3 33q23 34 20 95q-3 60 -3 75q10 0 18 4q8 23 34 91t38 130q68 88 166 80q8 37 13 107q11 154 52 212q3 0 23 4q60 14 94 -14l8 -28q0 -9 11 -11t14 -4q11 -82 -49 -171t-64 -140
q6 -4 28 -23t48 -22q4 -7 17 -19t18 -20q121 -38 139 -162q4 -28 2 -52t0 -62t-31 -201q-4 -14 -16 -44t-15 -42q-28 -27 -80 -26t-87 32q10 49 25 159t23 134q9 24 10 36t-9 99q7 51 -9 65q-33 27 -71 14q-38 -14 -46 -30t-14 -39q-7 -30 -24 -43q-28 -23 -53 -164
q-5 -18 -5 -67t-4 -70q16 -39 15 -45q29 -29 91 -71t83 -58l4 -14q61 -57 94 -84q6 8 1 11q-26 16 -30 28q9 4 21 -10q12 -15 17 -21q4 -7 14 -19t12 -14q-6 0 -12 4t-9 -2l25 -24q4 2 0 6t-4 12q34 -27 60 -79t28 -103l-8 -45l10 -43q2 -10 -6 -47t-25 -59t-19 -37
q-8 -48 -78 -95q-69 -47 -137 -47z" />
    <glyph glyph-name="percent" unicode="%" horiz-adv-x="1101" 
d="M668 213q2 2 2 6q-2 8 -6 6q0 -4 4 -12zM812 188q5 0 5 -4q-6 -84 82 -182q37 -47 70 -8q70 135 75 227q5 30 5 54t2 50q8 110 -64 189q-31 31 -43 39q-20 4 -23 6t-17 -6t-19 -10q-6 -12 -36 -66t-30 -112q-4 -1 -5 -15t-7 -18q4 -12 0 -28t-4 -23l8 -33q0 -48 -2 -54
t3 -6zM930 580q27 0 39 -6t45 -38q33 -33 54 -79q22 -45 26 -91t-3 -114t-15 -100q-42 -156 -85 -199q-5 -4 -25 -17t-20 -30q-49 -6 -98 6q-86 70 -98 84q0 18 -19 33l-2 -4q-31 43 -30 49t-3 9t-6 5q-57 141 -37 322q10 76 39 116q-4 2 -3 8t1 9q12 12 29 47q16 35 35 47
l39 -4q28 -14 34 -19q18 4 40 -13t29 -19t34 -2zM10 1130q2 2 2 7q-2 8 -6 6q0 -5 4 -13zM155 1106q5 0 5 -4q-6 -84 82 -182q37 -47 69 -9q80 154 80 299q0 6 2 32q8 109 -63 190q-31 31 -43 38q-19 4 -23 6t-18 -6t-19 -10q-6 -12 -21 -40q-16 -28 -30 -57t-14 -81
q-4 -2 -5 -15t-7 -18q4 -12 0 -27t-5 -24l9 -33q0 -47 -2 -53t3 -6zM272 1497q26 0 46 -8q19 -8 52 -52q32 -44 47 -76t19 -78q4 -47 -3 -115t-15 -99t-33 -101t-40 -86t-35 -28t-21 -31q-49 -6 -99 6q-86 70 -98 84q0 18 -18 33l-2 -4q-31 43 -29 53q-10 10 -10 11
q-57 141 -37 321q10 76 39 117q-4 2 -3 8t1 8q12 12 28 47t35 47l39 -4q5 -2 17 -8t18 -10q20 5 41 -13q19 -18 27 -20t34 -2zM129 -188q-47 28 -61 20t-30 -5t-42 40q4 16 5 21q1 6 6 20t7 15t10 11t13 6q6 -4 18 -3q20 29 76 132q55 103 68 121q-4 46 362 780
q125 251 127 254t12 39q26 94 64 123q10 41 20 66t19 70q2 2 12 1t10 7q4 15 -6 10q-4 -2 -10 4q12 10 21 24t14 21q5 8 30 -20q0 -8 -3 -53q-3 -46 3 -52t21 -12q-13 -67 -37 -103q-24 -35 -37 -59q-20 -84 -214 -528t-245 -516q-4 -10 -16 -47t-31 -47q4 -10 0 -29
q-6 6 -11 2t-7 -4q-14 -43 -57 -101t-56 -83q21 0 29 12t16 28q9 -9 -8 -26q-43 -90 -92 -139z" />
    <glyph glyph-name="ampersand" unicode="&#x26;" horiz-adv-x="1202" 
d="M221 -55q2 6 -7 17t-19 13q3 -20 26 -30zM31 379q-2 10 7 35t-3 28q2 -10 -5 -34t1 -29zM930 1205q0 -26 18 -52q-4 -12 -16 -12h-19l-34 4q-10 10 -23 46q-12 36 -29 48q4 29 -2 59q37 41 8 95q-30 53 -85 82q-61 1 -88 -13t-40 -20q-12 -6 -32 -24t-26 -23
q-6 -6 -27 -30q-20 -24 -23 -26q-53 -272 53 -407q186 -39 277 -86q-4 -12 -60 -101q-20 2 -71 -5t-84 20q-143 0 -180 -32q-10 -10 -35 -18q-68 -20 -130 -115t-52 -158q3 -19 3 -25q-4 -84 25 -174t109 -218q18 -32 69 -82t66 -79q8 -6 49 -40t82 -38q80 -10 207 49
q104 47 149 197q15 61 17 125t-29 131q-31 68 -92 110q-98 -78 -125 -131q-37 -84 -2 -137q-64 -10 -143 52q-36 28 -58 38q-6 6 -2 13t4 12q-5 5 -33 16q43 133 209 246q66 22 84 26t53 16q36 12 48 17q51 16 86 34l38 19q87 42 145 114q24 30 42 42q12 24 25 97
q13 72 -8 131q-20 59 -52 96q-33 37 -98 32q10 10 -7 30t-1 25q2 1 6 -2t64 -9q58 -6 89 -21q97 -47 151 -156t36 -207q-6 -24 -28 -60t-36 -64q-13 -28 -28 -43t-63 -43t-60 -52q-67 -37 -147 -63t-107 -37q43 -37 69 -63q26 -25 52 -73q24 -48 16 -93q14 -59 14 -84
t-12 -74t-14 -74q-20 -14 -42 -54t-36 -54q-104 -96 -248 -115q-33 -29 -108 -36t-147 39q-28 17 -40 24q-315 166 -387 339q-4 6 -5 19t-15 39l-19 38q-36 76 -20 132q-3 6 -9 1t-8 3q-12 41 4 63q-2 6 -7 2t-5 3q53 194 115 291q61 96 134 144t173 72q-19 19 -31 37
t-26 36q-53 71 -70 163v178q6 41 33 89t57 54q29 57 130 84t194 -20q27 2 59 -13t49 -18q8 -12 30 -27t30 -24q23 29 79 119q57 90 86 127q12 8 26 2t40 -16q25 -10 35 -9q-17 -33 -59 -90t-55 -79t-87 -197q2 -20 -5 -49t-7 -55z" />
    <glyph glyph-name="quotesingle" unicode="'" horiz-adv-x="169" 
d="M10 1423q0 13 2 22q5 25 39 19q5 -4 9 -13t6 -11q6 2 42 22t50 -11q4 -11 8 -13q-29 -19 -29 -92q-3 -18 -11 -48t-15 -67q-15 -70 -48 -88l-61 63q14 120 11 162t-3 55z" />
    <glyph glyph-name="parenleft" unicode="(" horiz-adv-x="540" 
d="M514 1536q-23 -20 -76 -66t-82 -72q-30 -26 -60 -74t-40 -101q-51 -66 -101 -271q-9 -37 -20 -55q9 -66 21 -206t16 -171q18 -35 15 -73t12 -78q72 -184 252 -375q0 -47 -2 -55h-62q-33 12 -60 36q-28 23 -38 29q-86 88 -152 254q-37 90 -50 143t-31 153t-17 296
q-25 80 -9 158t60 194q45 115 54 129t22 25q3 47 41 89q37 41 53 65q65 98 105 118q0 2 3 5t3 7q69 -18 143 -104z" />
    <glyph glyph-name="parenright" unicode=")" horiz-adv-x="530" 
d="M137 1640l6 -12q47 -23 115 -133q6 -8 43 -51t41 -88q28 -21 42 -66q15 -45 50 -142t41 -128q18 -90 -6 -170q0 -267 -48 -449q-13 -53 -50 -143q-66 -166 -152 -254q-10 -6 -40 -31t-58 -34h-62q-2 8 -2 55q180 190 252 375q13 39 11 79t16 72q4 31 15 171t22 206
q-10 18 -20 55q-9 37 -13 49q-4 13 -17 55q-40 130 -71 167q-10 53 -41 101t-59 75q-29 27 -82 72t-76 65q74 86 143 104z" />
    <glyph glyph-name="asterisk" unicode="*" horiz-adv-x="593" 
d="M451 1370q82 0 112 -8q-29 -26 -90 -24q-61 1 -68 1t-39 -5t-49 -3q49 -74 119 -84q-29 -14 -44 -10t-44 17t-45 16q-2 -10 -6 -49q-9 -88 -41 -101q-18 20 -18 109q-25 -6 -48 -31t-45 -31q33 74 70 88q-4 10 -12 11q23 27 30 55q-29 2 -75 -9t-78 -7q-2 12 -22 22
t-23 21q12 -4 9 9q-1 5 1 9q16 0 71 -8t91 12q-70 90 -80 107q48 3 76 -27q28 -31 35 -35q8 15 10 65t12 66q19 0 35 -8t22 -10v-82q26 39 52 65q10 0 20 -7t17 -7q-4 -31 -34 -70t-34 -49q31 -8 113 -8z" />
    <glyph glyph-name="plus" unicode="+" horiz-adv-x="763" 
d="M479 807q0 42 -9 48q-9 5 -15 7q14 -59 18 -123q109 4 152 19q4 36 45 30q14 -2 43 -8q32 -55 12 -65q-8 -3 -15 -23t-3 -55q-59 -21 -113 -23t-60 -4q-20 -8 -20 6q42 0 47 10q6 10 8 15q-63 -16 -104 -18q-16 -102 -12 -170q-18 0 -21 -2q-16 -15 -30 -53t-17 -42
q-19 -8 -27 -8t-9 6t-3 22t-10 30q4 2 12 -4t8 10q2 8 -7 11t-9 5l22 139l-6 58q-150 20 -196 18q0 16 -2 21q-16 16 -54 30t-41 17q-8 20 -8 27t6 8q5 2 21 4t31 10q2 -4 -2 -11t6 -9t13 6q3 9 5 10l139 -23q29 4 82 4q-4 129 -18 181q-37 4 -31 45q2 14 8 43q54 31 66 12
q3 -8 23 -16t55 -3q20 -59 22 -113t4 -60q7 -20 -6 -19z" />
    <glyph glyph-name="comma" unicode="," horiz-adv-x="368" 
d="M90 139q26 2 54 7t49 8t61 -35q31 -45 33 -65q3 -20 -11 -94q-14 -73 -47 -118q-8 -8 -23 -20q-14 -12 -20 -18q-33 -33 -80 -33q-6 10 -9 22q-3 13 -6 17t-11 2q41 12 75 50t40 66t-5 37q-76 -2 -96 2q-20 3 -17 23t14 55t-1 94z" />
    <glyph glyph-name="hyphen" unicode="-" horiz-adv-x="763" 
d="M514 616q42 0 47 10q6 10 8 15q-115 -23 -159 -19t-116 14q-73 11 -134 7q0 16 -2 21q-16 16 -54 30t-41 17q-8 20 -8 27t6 8q5 2 21 4t31 10q2 -4 -2 -11t6 -9t13 6q3 9 5 10l139 -23q14 2 156 5t195 20q4 36 45 30q14 -2 43 -8q32 -55 12 -65q-8 -3 -15 -23t-3 -55
q-59 -21 -113 -23t-60 -4q-20 -8 -20 6z" />
    <glyph glyph-name="period" unicode="." horiz-adv-x="403" 
d="M115 201q61 -17 93 -27t75 -36t67 -60q2 -45 -20 -54t-27 -38q-4 -29 -6 -76t-21 -72q6 -16 4 -38t-1 -33q-13 19 -30 11q-17 -9 -22 -11q-31 39 -73 49q-72 137 -36 256q13 43 -3 129z" />
    <glyph glyph-name="slash" unicode="/" horiz-adv-x="890" 
d="M129 -188q-47 28 -61 20t-30 -5t-42 40q4 16 5 21q1 6 6 20t7 15t10 11t13 6q6 -4 18 -3q20 29 76 132q55 103 68 121q-4 46 362 780q125 251 127 254t12 39q26 94 64 123q10 41 20 66t19 70q2 2 12 1t10 7q4 15 -6 10q-4 -2 -10 4q12 10 21 24t14 21q5 8 30 -20
q0 -8 -3 -53q-3 -46 3 -52t21 -12q-13 -67 -37 -103q-24 -35 -37 -59q-20 -84 -214 -528t-245 -516q-4 -10 -16 -47t-31 -47q4 -10 0 -29q-6 6 -11 2t-7 -4q-14 -43 -57 -101t-56 -83q21 0 29 12t16 28q9 -9 -8 -26q-43 -90 -92 -139z" />
    <glyph glyph-name="zero" unicode="0" horiz-adv-x="1046" 
d="M45 592q6 -2 6 4q4 18 -4 24t-10 3q4 -21 8 -31zM371 537q14 0 14 -11q-6 -94 52 -208q59 -114 123 -192q64 -76 98 -76t71 46q49 96 75 148t58 162q33 109 37 170t6 115q3 91 8 147t2 98q-27 205 -140 333t-176 102q-11 -5 -31 -16t-31 -16q-13 -25 -49 -89t-51 -98
q-44 -99 -46 -216q-12 -4 -12 -35t-14 -37q7 -28 -3 -64t-10 -52t8 -40t11 -36q4 -94 -9 -131q2 -4 9 -4zM638 1423q62 0 90 -12t76 -56t104 -131t73 -147q16 -61 25 -124q8 -61 11 -89t-15 -196t-42 -260q-26 -92 -46 -144t-28 -72q-7 -20 -9 -26q-1 -6 -9 -22t-11 -23
q-3 -6 -17 -38t-62 -79q-12 -10 -40 -28q-59 -39 -62 -78q-98 -16 -219 14q-172 127 -226 188q0 45 -38 74q-9 6 -9 1t2 -9q-18 27 -30 43q-41 54 -35 80q-2 4 -10 10t-13 12q-133 324 -84 729q23 172 90 265q-8 6 -6 16t0 18q27 27 65 107t81 108q10 0 44 -9t42 1
q12 -8 39 -21t39 -22q22 -2 30 1t37 -15q31 -19 82 -62q19 -4 81 -4z" />
    <glyph glyph-name="one" unicode="1" horiz-adv-x="595" 
d="M467 790q0 -72 -8 -114q8 -61 11 -178t21 -250t78 -228q-16 0 -7 -12q3 -4 -1 -8q-20 4 -47 -18t-47 -23q-68 -10 -201 30t-141 77q4 4 12 4q7 0 17 -1t18 1q-8 4 -24 17t-25 17q-14 135 -31 246q-4 8 3 10t5 9q0 8 -7 8t-5 8q23 27 6 41q14 -2 19 8q1 6 -11 4t-14 4
l25 45q-4 11 -11 15q-8 4 -10 6q16 20 4 100t13 94q-1 6 -11 10t-10 13l10 74q0 10 -6 34q-6 25 -7 33t11 21q-2 6 -13 7t-13 5q-20 55 10 64q-29 29 2 65q-18 31 -3 83t-7 63q0 4 8 5t8 3q-12 20 -12 36t6 35q6 18 6 33q-23 -4 -39 -32t-26 -33q-53 -156 -144 -252
q-25 -27 -59 -35t-70 41q86 72 148 175q61 102 121 242t104 212q0 10 -6 22q2 2 16 19t33 20q-2 4 0 7t2 5q61 5 120 -28t128 -62t72 -51q2 -16 14 -12q2 -8 -10 -17q43 -135 -9 -278l11 -21q-39 -158 -9 -317q-18 -29 -18 -101z" />
    <glyph glyph-name="two" unicode="2" horiz-adv-x="1173" 
d="M510 383q-18 5 -10 -16q18 -5 10 16zM1008 1325l-13 -7q0 -3 11 -9l-9 -25q0 -8 9 -16q-27 -92 -99 -158q-2 -12 4 -27q-23 6 -10 -24q-35 -33 -77 -135t-83 -136q0 -31 -21 -50t-26 -27q12 -74 -51 -129q8 -47 -37 -80q4 -6 1 -16t3 -13q-24 -18 -68 -77t-81 -77
q8 -20 6 -27q-2 -8 -15 -22t-16 -20q43 12 180 18t181 23q16 -2 134 5t161 -13q25 -27 94 -47q-6 -6 -23 -2q-16 4 -18 -3q8 -10 27 -14t28 -16q8 -15 5 -17t-9 0q4 -6 14 -11t15 -9q-4 2 -22 -3t-21 8q-44 4 -193 33t-178 -1q-14 -14 -38 -11q-25 2 -39 -1t-66 -25
q-51 -22 -78 -25q-10 -6 -19 -24q-57 -15 -133 -77t-119 -79q-35 8 -38 0q-14 12 -61 29t-76 42q-30 25 -58 53q-41 42 -63 53q-23 11 -23 44q37 20 68 60t53 86q22 47 65 159q129 203 168 306q16 8 25 8q12 76 73 169q60 93 70 115v22q0 12 4 14q4 3 11 1l-9 19
q18 20 32 85q13 65 32 85q0 49 35 131t32 139q-57 44 -135 19q-37 -11 -49 -11t-12 -9t-2 -11q-131 -63 -178 -201q-35 -39 -60 -153t-43 -150q-10 4 -34 24t-44 25q-2 16 6 34t7 51q0 32 2 44q41 174 176 293q14 66 123 108q61 35 148 29t179 -76q5 -4 9 -15t8 -13
q53 -21 102 -65t74 -77t72 -100zM1188 168h4h-4z" />
    <glyph glyph-name="three" unicode="3" horiz-adv-x="1116" 
d="M221 -12q-2 10 -18 15t-19 7q4 -14 37 -22zM336 -104q10 0 10 8q-45 14 -49 0q-4 0 -9 11t-18 7q-3 12 17 12q-37 12 -92 46t-78 43q-4 -1 0 -9t-2 -10q-49 37 -77 113t-22 139q49 -10 58 -10q24 -23 62 -69t64 -74t72 -48t121 -13q76 7 157 68q28 22 71 62q4 37 26 43
q0 21 27 75t14 93q4 29 3 32t-9 25t-14 52q-18 96 -136 141t-231 -15q-10 4 -61 5q-27 25 -56 79t-39 70q-24 -7 -38 17q-15 24 -21 28q152 53 229 96q265 144 365 357q109 206 7 251q-54 24 -122 -5q-20 -6 -74 -40t-78 -41q-45 -12 -48 -46q-95 -65 -202 -202
q-54 -69 -81 -97q-4 -2 -20 1t-27 -1q-31 35 -35 47q66 90 215 252q39 18 109 72t140 88t154 32q164 -4 209 -104q17 -19 71 -67t68 -76t22 -73q7 -46 18 -63q4 -67 -32 -119q-10 -17 -28 -39t-34 -47t-46 -30q-2 -10 8 -11q-33 -41 -163 -153q205 -61 262 -207q1 -6 15 -18
t5 -21q1 -4 11 -12t16 -34t41 -111q21 -58 -4 -128q-4 -64 -28 -100q-23 -36 -53 -70q-30 -33 -36 -41q-70 -31 -127 -100q-14 -2 -35 -14q-27 -27 -62 -40q-36 -13 -51 -19t-51 -13q-36 -6 -46 -8q-11 -2 -54 -9t-49 -8q0 6 10 9t10 10q-59 2 -84 -4q0 6 6 11q5 5 -4 9
q0 -4 -44 -2t-48 2q-2 11 6 13q9 2 19 2z" />
    <glyph glyph-name="four" unicode="4" horiz-adv-x="1118" 
d="M307 1186q0 -44 2 -66t-6 -36t-8 -19l10 -23q0 -20 -14 -73q-31 -150 -101 -283q109 41 146 76q15 7 46 17q31 9 41 14q9 6 20 12q29 16 46 41q25 -2 33 1t25 30q31 -4 47 4q23 45 32 159t27 156q-6 119 29 180q-10 111 4 156q28 0 48 -14q22 -14 26 -18q4 -3 16 -14
t29 -18q17 -6 31 -13t61 -43t59 -56t15 -88q3 -69 -10 -181t-15 -149q-6 -4 -12 -16t-14 -15q35 -82 -11 -184q25 -61 -2 -98q0 -63 4 -149t2 -175l6 -133q-1 -31 -10 -55q6 -33 1 -90t14 -99q-6 -2 -17 -22q-21 0 -81 -8q-133 -18 -187 24q-43 -12 -88 19q-23 41 -22 104
t-5 98q16 23 12 95t9 98q0 2 -13 41q23 37 11 86t1 84t14 45t-7 33q17 31 31 103t18 87q-74 -13 -211 -111t-246 -110q-55 -4 -112 26q-2 6 -31 46q18 55 18 61q41 47 72 173t45 161q-7 17 -14 3q2 22 12 74t14 88t-10 86t-51 91q-2 3 -37 29t-39 51q27 10 68 0q6 10 -25 41
q-8 8 0 16q2 6 19 -5t34 -5q2 0 26 -28t48 -23q-14 -10 23 -25q14 -6 18 -12q8 -27 39 -59t41 -54q-6 -14 -6 -20l10 -48q2 -27 2 -71zM121 1060v-3v3z" />
    <glyph glyph-name="five" unicode="5" horiz-adv-x="1208" 
d="M995 776h11q12 -2 12 2t-2 6h-23q0 -2 2 -6v-2zM265 1567h46q96 -8 353 -66q29 -6 93 -7t95 -7q4 -3 11 -17t20 -14q-6 -10 -33 -20t-35 -19q-59 0 -199 24q-140 23 -223 15q-84 -8 -162 4q-10 -6 -2 -58q9 -52 9 -77t-14 -99t-17 -106q-2 -33 6 -122t0 -130
q39 10 109 47q156 83 290 66q207 -25 325 -110t169 -281q31 -119 -2 -293q-23 -158 -82 -241q-16 -24 -26 -32t-46 -40q-96 -84 -196 -109q-27 -6 -87 -16t-94 -21q3 -6 23 -4t27 0q5 -4 -3 -4q-23 0 -37 -1t-19 6t-9 7q-393 59 -492 314q-8 20 -10 56t-7 49t-21 29
q-15 16 -21 30t-3 58t8 55t15 17q19 13 29 60q10 46 53 79q42 34 82 41t90 -23q50 -31 68 -38q-49 -31 -55 -131t38 -206t117 -146q55 -20 80 -16t72 24q139 176 174 303q0 25 5 82t8 103q19 288 -156 344q-96 0 -142 -19q-170 -68 -278 -149q-4 -4 -19 -22t-45 -17
q-12 1 -27 25t-34 22q-6 10 -1 16t2 14t-9 7q-6 0 -10 -3q-12 -9 -9 49t21 128q0 6 -8 8t-7 10q13 95 31 285t31 279q0 2 -5 9t-7 10t6 19q14 4 48 -10t47 -17t51 -3z" />
    <glyph glyph-name="six" unicode="6" horiz-adv-x="894" 
d="M659 270l-14 88q-2 14 -6 54q-11 113 -33 162q-22 48 -47 82t-82 71t-78 18q-49 -43 -41 -227q4 -199 16 -260t60 -168q8 -6 35 -34q27 -27 57 -27q10 14 40 48q30 33 47 55q46 58 46 138zM14 891q4 0 10 -3t11 -1q4 33 27 91q24 58 28 97q-4 6 -4 3q0 -11 -12 -7
q6 9 6 31t18 26q0 8 -4 9l-6 -2q-2 2 -2 6q35 75 125 201t123 196q45 53 125 -6q9 -33 31 -52q22 -20 59 -36t51 -25q8 -29 29 -45q20 -16 46 -34t27 -19q-168 -180 -296 -522q4 -4 19 -2t19 6q18 -11 52 -19q156 -35 254 -226q84 -163 59 -296q19 -57 12 -106
q-8 -50 -8 -66q-16 -29 -63 -74t-64 -71q-45 -33 -129 -54t-150 14q-17 9 -28 9q-31 29 -109 78t-114 90q-63 70 -113 246l2 2q2 -2 2 -6q14 0 2 20t-14 25l10 12q0 21 -14 49q-6 25 -8 82q-3 58 -15 114t-6 138q12 98 12 127z" />
    <glyph glyph-name="seven" unicode="7" horiz-adv-x="1302" 
d="M1214 872q-33 19 -76 19h-53q-75 4 -103 -10q-28 -13 -54 -63t-57 -126q-30 -76 -46 -110q-54 -116 -59 -216q-5 -99 -10 -159q-4 -59 0 -117q11 -161 -23 -225q-217 14 -258 12q-16 12 -63 37t-66 47q43 297 79 465t105 360q-238 -86 -278 -109t-73 -51q-35 -28 -65 -38
t-73 0q-8 8 -21 25q-12 17 -20 28q24 10 90 44t105 48q6 -1 2 9t0 12q184 94 271 114q86 20 106 28t26 18q6 9 13 41t72 127q65 96 75 113t13 33t9 24t26 18t30 22q8 12 4 56q39 31 57 110q-133 -14 -180 -61q-6 -2 -10 5t-25 -5q-21 -13 -118 -33t-134 -43q-16 0 -120 -5
t-169 8q-66 13 -90 58q8 10 73 1t93 -5q-4 14 -21 26t-20 23q10 9 42 7t38 -25q183 1 274 21q90 20 119 26t87 26t76 25q18 6 84 29q65 23 77 27q29 -12 47 -13q18 -14 26 -42t16 -40q7 -12 98 -78t95 -130q-20 -20 -18 -52q-62 -51 -97 -94q-93 -118 -120 -166q23 -6 76 -8
t92 -12t59 -41q-41 0 -37 -39q-14 2 -51 24l40 -14q9 0 13 14z" />
    <glyph glyph-name="eight" unicode="8" horiz-adv-x="1099" 
d="M492 481l-5 19q-14 18 -79 73q-12 -9 -56 -31t-56 -32t-28 -28t-38 -34q-22 -17 -31 -40q-11 -23 -21 -49t-16 -40q-47 -109 6 -243q37 -86 75 -115t140 -49q10 -2 51 -13t54 -13t55 1q-10 17 7 27t50 6q98 125 43 350q-10 16 -45 57t-45 64t-12 36t-6 19q-5 6 -21 18
t-22 17zM629 1538q1 14 -33 23q-34 10 -43 14q8 -5 29 -21q22 -16 47 -16zM623 1458q-6 4 -61 41t-105 51q-50 13 -87 13t-63 14q8 20 36 15t42 6q14 10 21 12q96 34 232 -12t183 -113q4 -4 5 -17t17 -34q15 -22 21 -45t6 -91q-8 -16 -12 -20l8 -25q-2 -35 -19 -103t-21 -91
q-4 -24 -19 -51q-16 -27 -19 -39q-16 -91 -22 -103t-22 -31t-21 -28q-39 -59 -86 -92q23 -37 114 -121t112 -124t44 -77t51 -81t35 -78q8 -34 6 -70q-2 -35 9 -43q0 -8 -6 -30t2 -34q-53 -121 -91 -159q-76 -80 -215 -74q-10 0 -12 3t1 6t-1 5q-220 -26 -455 43
q-15 5 -39 23t-32 22q-84 106 -108 240q-38 211 298 467q-10 25 -50 61t-46 41q-4 6 -13 26t-43 54q-33 33 -54 76t-42 73q-20 30 -26 41t-12 41t-20 56q-43 76 -17 90q0 4 -7 18q-6 14 -7 20t7 11q-2 6 -6 3t-6 1q-29 145 43 213q13 -2 63 -6t74 -12q32 -20 90 -72t93 -76
q1 -16 -15 -52t-13 -91t19 -95t58 -97q43 -58 53 -76q32 -57 68 -74q47 49 72 80q26 31 53 84q28 53 32 87t9 156l12 31q2 92 -96 213z" />
    <glyph glyph-name="nine" unicode="9" horiz-adv-x="1134" 
d="M434 -150q-86 16 -106 13q73 -44 106 -13zM571 -80q31 -2 54 21t41 24q-10 18 -29 17q6 -16 -4 -24q-11 -8 -25 -10q-42 -3 -37 -28zM672 -27q18 0 24 17q6 8 -8 14q4 -10 -7 -16t-9 -15zM709 0q20 2 24 31q-23 -4 -31 4q-2 -7 2 -17t5 -18zM836 12q2 -20 -28 -46
t-22 -46q53 41 91 137q-18 2 -23 -21q-4 -24 -18 -24zM29 373q27 0 45 -8q16 -167 81 -267t199 -94q28 0 44 18t28 25t50 17t60 27t17 54q4 3 13 9t18 8q4 35 24 77t25 56l-10 20q29 41 18 80q14 18 29 101q0 75 20 92q-12 43 4 133q-12 172 -20 257q-25 262 -96 495
q-23 -15 -32 -50q-10 -35 -20 -57t-52 -92q-42 -69 -73 -139t-44 -94q-13 -23 -45 -55t-62 -40t-107 12q-6 8 -30 32q-25 24 -35 42q-70 197 -2 371q43 111 125 174q43 33 113 35t143 -39q0 -11 5 -31t-5 -26q-76 22 -153 -4t-103 -74q-2 -6 -5 -24q-5 -28 -26 -34
q-2 -14 6 -26q-63 -102 2 -303l-26 -31q6 -18 17 -24t13 -7q89 25 137 92t79 132q32 65 45 89t47 108q34 83 55 120q-8 31 -2 35q238 29 372 -199q74 -121 99 -242q90 -406 51 -694q-2 -12 -12 -34q-9 -22 -15 -42t-20 -93t-25 -107q-59 -199 -98 -244t-158 -113
q-8 -5 -37 -27q-73 -56 -159 -20q-29 12 -47 18t-66 7q-48 2 -66 8t-60 30t-73 15q-10 20 -44 38t-39 22q-5 6 -15 20t-22 30q-53 68 -78 171q-5 4 -9 -2t-4 -33q-35 152 -6 299h17z" />
    <glyph glyph-name="colon" unicode=":" horiz-adv-x="391" 
d="M115 1141q61 -17 93 -27t75 -36t67 -60q2 -45 -20 -54t-27 -38q-4 -29 -6 -76t-21 -72q6 -16 4 -38t-1 -33q-13 19 -30 11q-17 -9 -22 -11q-31 39 -73 49q-72 137 -36 256q13 43 -3 129zM115 201q61 -17 93 -27t75 -36t67 -60q2 -45 -20 -54t-27 -38q-4 -29 -6 -76
t-21 -72q6 -16 4 -38t-1 -33q-13 19 -30 11q-17 -9 -22 -11q-31 39 -73 49q-72 137 -36 256q13 43 -3 129z" />
    <glyph glyph-name="semicolon" unicode=";" horiz-adv-x="423" 
d="M90 139q26 2 54 7t49 8t61 -35q31 -45 33 -65q3 -20 -11 -94q-14 -73 -47 -118q-8 -8 -23 -20q-14 -12 -20 -18q-33 -33 -80 -33q-6 10 -9 22q-3 13 -6 17t-11 2q41 12 75 50t40 66t-5 37q-76 -2 -96 2q-20 3 -17 23t14 55t-1 94zM109 1141q61 -17 93 -27t74 -36t68 -60
q2 -45 -20 -54t-27 -38q-4 -29 -6 -76t-21 -72q6 -16 3 -38t-1 -33q-12 19 -29 10q-17 -8 -22 -10q-31 39 -74 49q-73 139 -35 256q13 43 -3 129z" />
    <glyph glyph-name="less" unicode="&#x3c;" horiz-adv-x="854" 
d="M221 803q0 -41 98 -116q99 -75 247 -176t220 -171q8 -8 25 -33q35 -74 4 -131q-18 18 -44 3t-34 -15q-147 78 -404 251q-140 95 -242 198q-101 103 -101 173q0 43 64 127t222 202t369 210q8 8 94 51q8 0 34 -15t44 3q43 -76 -29 -166q-84 -82 -230 -167t-242 -140
t-95 -88z" />
    <glyph glyph-name="equal" unicode="=" horiz-adv-x="735" 
d="M6 785q0 7 6 9t22 3q16 2 29 10q2 -4 -2 -11q-3 -8 7 -10t13 8t5 9l139 -23q14 2 167 5t208 20q3 34 45 31q14 -2 43 -9q32 -56 12 -65q-8 -4 -15 -24t-3 -54q-60 -20 -114 -22t-59 -5q-18 -7 -20 7q41 0 47 9q7 9 9 15q-51 -20 -151 -24t-105 24l-115 -8q-25 0 -63 10
q0 18 -2 21q-15 16 -53 30t-42 17q-8 20 -8 27zM6 404q0 6 6 8t22 4t29 10q2 -4 -2 -11q-3 -7 7 -9t13 7t5 9l139 -23q14 2 167 5t208 20q4 37 45 31q14 -2 43 -9q32 -56 12 -65q-8 -3 -15 -23t-3 -55q-60 -20 -114 -22q-54 -3 -59 -5q-18 -9 -20 7q41 0 47 9q7 9 9 15
q-51 -20 -151 -24t-105 24l-115 -8q-25 0 -63 10q0 18 -2 21q-15 16 -53 30t-42 17q-8 20 -8 27z" />
    <glyph glyph-name="greater" unicode="&#x3e;" horiz-adv-x="847" 
d="M842 786q0 -70 -102 -173q-150 -153 -488 -358q-106 -65 -158 -91q-8 0 -34 15t-44 -3q-31 57 4 131q16 25 25 33q72 70 220 171t247 176q98 75 98 116q0 33 -95 88t-241 140t-231 167q-72 90 -29 166q18 -18 44 -3t34 15q86 -43 94 -51q211 -92 369 -210
q159 -118 223 -202t64 -127z" />
    <glyph glyph-name="question" unicode="?" horiz-adv-x="921" 
d="M342 41q12 -2 10 8q0 14 -8 19l-4 -15q-6 -12 2 -12zM334 14q0 10 -10 13q0 -2 -4 -5t-1 -8h15zM279 -141l-5 -23q8 0 9 -2q-2 -4 2 -4q7 2 31 -3t30 -1q-4 2 -9 6t-9 6q0 -8 -2 -8q0 6 -16 8t-15 6q4 0 3 5t1 8q-8 4 -20 2zM289 -170l-6 -6q6 -10 18 -7t0 9q0 -6 -4 0
t-8 4zM257 -72h-7q8 6 16 -2q-6 23 22 55t27 52q3 0 7 -2t6 -2q-6 12 -3 17t10 14t9 14q12 -4 15 -29t12 -33q104 -8 129 -43h-17q8 -8 14 -9q7 -1 13 -4t2 -9q49 6 51 6q0 -2 9 -16t17 -33t-5 -37q10 -21 8 -25t3 -16q15 -35 18 -52t-19 -30q-31 -6 -115 -6q-6 -2 -12 -19
q-88 -16 -98 52q-2 0 -2 -3q0 -2 1 -6t-1 -10q-5 10 -23 6t-31 0q6 8 21 0q-2 6 3 14t5 11q-8 0 -12 -6t-15 -4q-3 8 7 11t10 7q-4 6 -20 5t-19 7v-14q-8 -8 -13 5t5 16q-8 0 -9 -7q-18 31 -17 51t-9 54l16 2q-4 18 -9 18zM358 -399q4 0 10 3t11 1q-2 -1 0 -15t-2 -16h-19
v27zM776 804v-13q-66 -76 -84 -162q-32 -23 -60 -89t-48 -87q-6 -59 -24 -121t-19 -85q-2 -24 7 -76t6 -53t-9 1t-11 1q-6 -1 -4 -11q2 -9 10 -5t7 -6q-37 2 -90 26t-70 28q-8 8 -8 20q-6 -8 -23 -4q-86 125 -65 221q-16 74 -12 91t19 52t19 78q31 45 115 234q16 33 66 108
t61 152q0 8 20 79q19 71 10 111t-59 60q-63 6 -118 -35t-70 -45q-6 -14 -43 -84t-48 -104t-13 -104t26 -142q-10 2 -14 -6t-10 -8t-81 26q-75 25 -110 39q-23 88 9 214t32 152q32 66 111 135q79 70 98 89q10 0 61 6q224 26 292 -29q24 -20 42 -43q20 2 58 -17t49 -36
q86 -132 69 -141l-4 -4q0 -8 8 -30t10 -37t-6 -55q-7 -40 -4 -59q-8 -34 -38 -98t-37 -102q-9 0 -13 -8t-12 -7q2 -8 2 -17zM266 -74l6 -12q2 4 -6 12z" />
    <glyph glyph-name="at" unicode="@" horiz-adv-x="1468" 
d="M68 569v11q4 23 -11 24q1 -4 1 -20t10 -15zM852 612h16q-4 16 -16 19v-19zM774 582q-8 0 -8 4q8 24 7 32t-11 17q-13 -25 -17 -127q20 4 24 34q3 30 15 36q-2 4 -10 4zM782 692q0 4 11 4q-10 17 5 37q3 4 -10 10q-26 -43 -6 -51zM803 934q-105 8 -165 -44
q-24 -22 -51 -42q-26 -20 -34 -29q-32 -49 -37 -103q-6 -53 -7 -103t-3 -66q30 12 58 35t40 40t35 53t31 48q6 0 12 -3t8 3q-6 6 -6 20q35 27 53 60t27 48q8 15 20 43t19 40zM225 858q-12 -35 -10 -39q12 1 15 17t-5 22zM755 414q5 0 11 -3t6 4t-18 25q-10 0 -5 -9t1 -11
q-11 30 -11 149q-14 -45 -73 -75q-58 -30 -136 -23q-78 6 -129 57q-8 39 -5 107t-1 100q-2 4 -6 2t-4 -6q4 95 75 189t181 106q41 4 115 -25t90 -32q18 4 25 4t27 -6t28 -6q-4 -5 -24 -15t-17 -22q31 -31 107 -70t102 -61q6 -13 -1 -21t-6 -14q4 -8 26 -24t26 -25
q4 -10 -23 -70q-78 -172 -31 -352q88 58 136 148t65 177q18 87 35 172q-12 43 -11 156t-32 160q-10 18 -52 74t-63 71q-131 119 -319 137q-35 -16 -105 -25t-89 -15q-20 -6 -36 -21q-16 -17 -27 -25t-45 -19t-42 -16t-14 -17t-15 -20q-10 -9 -54 -36q-43 -27 -51 -39
q-8 -11 -32 -71t-55 -79q-10 -49 -33 -88q4 -10 8 -30q-10 -11 -20 -55t-31 -56q12 -24 12 -68t1 -55q1 -10 -1 -10q-8 2 -12 2q3 -12 14 -18q12 -7 14 -9q7 -24 7 -62t2 -61q23 -158 155 -344q3 -4 13 -6t12 -6q63 -92 184 -141q31 10 35 10q6 -4 14 -16t11 -15
q83 -21 143 -6q61 15 105 35t49 23q14 -10 14 -31q0 -20 2 -27q-19 -30 -52 -42q-34 -13 -69 -24t-47 -16q-6 10 -38 7q-196 -18 -405 156q-36 30 -98 83q-6 39 -57 74l10 22q-41 47 -86 156t-57 131q-10 -6 -7 -16t8 -26t1 -19q-47 73 -38 191q3 40 -1 77q12 4 20 -6
t11 -13q16 0 8 23q-6 4 -20 2t-19 6q4 16 4 54q0 88 37 114q2 8 -7 11t-9 10q57 94 67 153q25 11 44 61t30 64q92 113 297 205q118 57 198 58t224 -36q40 -20 160 -67t171 -90q11 -10 23 -30t18 -28q4 -4 22 -19q88 -75 107 -360l-12 -16q0 -9 8 -27q38 -87 -49 -283
q-33 -75 -41 -99v-39q-16 -17 -52 -59q-73 -87 -144 -113q-12 -2 -9 -23q-45 0 -47 -20q-61 -8 -133 12q0 25 -22 42q-23 16 -60 34t-53 30q-2 23 -29 68q-26 44 -30 60t1 16z" />
    <glyph glyph-name="A" unicode="A" 
d="M345 1042q-5 0 -9 2q0 -6 5 -12t3 -14q-12 -8 -13 -45t-22 -47q8 -6 8 -19q-20 -16 -23 -61t-11 -58q35 -14 117 -16t88 -3q8 -1 9 7t5 8q-2 52 -16 226t-10 263q3 89 -5 113q-32 -81 -117 -288h-4q6 -4 2 -16t4 -15h-18q12 -25 7 -25zM610 1440q2 12 -13 17t-22 -5
q21 -12 35 -12zM453 1532q67 0 183 -20t150 -46q80 -80 119 -92q16 -6 6 -112t-7 -142t7 -108q7 -127 35 -193q-8 -55 6 -127t21 -90q8 -18 12 -34t50 -353q46 -336 69 -389q-8 0 -20 -5t-23 -3q-2 -9 3 -22t3 -13q-20 2 -134 4q-252 4 -296 57q0 72 -54 419t-59 394
q-43 7 -137 13t-123 10q-28 -72 -100 -442t-88 -424q-45 0 -76 8q27 90 94 433q68 343 86 464q-8 8 -35 18t-32 25q12 0 8 10t-4 12l73 -4q10 2 18 18t10 23q3 5 0 17t1 12q2 8 14 39t13 53q2 2 8 12t14 11q31 184 142 452q6 14 24 48t19 67z" />
    <glyph glyph-name="B" unicode="B" horiz-adv-x="956" 
d="M543 -150q31 2 63 58t44 122q11 64 -16 219q-28 155 -69 187q-18 16 -55 28t-55 25q-6 -119 -19 -604q16 -3 52 -21t55 -14zM723 1171q-9 213 -45 244h-8q-119 -172 -203 -868q16 0 23 -2q13 -4 41 13l20 12q14 9 18 12q129 76 144 266q10 133 10 323zM475 1155
q22 5 29 32q8 27 13 40t21 59l25 77q25 75 76 122h80q10 -5 27 -21t28 -22q54 -100 60 -148t10 -128t-11 -256t-47 -255q-35 -70 -131 -153q3 -18 22 -28t25 -15q45 -49 74 -243t3 -270q-5 -15 -7 -31t-8 -52q-45 -63 -135 -77t-174 38q-5 2 -9 -1t-3 -8t0 -9t-7 -1
q-33 25 -178 39t-174 27q-39 79 -57 274q-19 194 -21 232q-2 39 -5 87t-1 493t2 511q6 6 37 0q-16 25 -8 39q342 -59 370 -69q31 -47 54 -58q38 -59 20 -225z" />
    <glyph glyph-name="C" unicode="C" horiz-adv-x="956" 
d="M551 1440q2 0 63 18q10 -4 33 -17t51 -14q10 -8 24 -27t21 -26q37 -145 18 -338q-5 -49 -5 -57q-12 2 -16 -11t-5 -16q-47 18 -62 68t-16 128q0 79 -4 107q-66 -49 -80 -180q-2 -2 -6 -10t-12 -6q-2 -41 -49 -315t-47 -343l14 -145q5 -117 25 -197t73 -145q43 12 67 48
t40 87t33 76q2 41 21 132t16 155q14 -4 29 8t38 4q2 -16 10 -50q9 -34 9 -46t-9 -41q12 -240 -59 -324q-4 -6 -4 -7l6 -15q-8 -10 -26 -37t-32 -42q-38 -44 -104 -48q-2 0 -3 -10t-15 -7q-14 2 -126 1q-110 -1 -130 1q-115 14 -199 179q-84 164 -114 352t-15 321
q6 68 30 190t28 147q4 26 1 62q-11 97 58 250q31 74 88 175q6 6 22 6q4 2 -1 9t1 11q39 27 153 13t157 -39q10 -17 10 -35z" />
    <glyph glyph-name="D" unicode="D" horiz-adv-x="1009" 
d="M193 -143q-6 10 -50 20q2 -14 20 -21t30 1zM522 1157l-14 -39q0 -14 6 -35q-20 -88 -22 -149q-23 -829 -19 -981q59 33 137 119q66 129 143 399t83 424q-72 119 -146 194t-174 91q6 -16 6 -23zM803 160q-4 0 -6 4l-4 -2l6 -6q-117 -137 -142 -176q-31 -24 -53 -45
t-46 -44t-48 -61q-16 -2 -81 -17t-122 -25t-90 -7q-33 4 -91 31t-71 49q-4 4 -10 24t-8 23q-35 134 -15 669q7 210 5 261q2 2 4 9t14 3q-20 12 0 31q2 8 -3 9t-11 1t-6 4q0 39 16 105t18 106q-16 14 -15 49t19 43q-14 18 -8 50t6 38q-10 6 -56 24t-66 38t-21 57q16 2 36 -10
t34 -13l8 31l65 -22q10 18 12 65q1 47 3 53q111 -5 245 -35t177 -79q6 2 13 -1t13 -3l10 -51q-1 -7 -14 -3q16 -18 21 -39q9 -6 77 -44q189 -106 245 -182q27 -38 49 -92t14 -196q-23 -45 -61 -313t-58 -307q0 -4 -4 -4z" />
    <glyph glyph-name="E" unicode="E" horiz-adv-x="894" 
d="M543 375q0 -14 10 -38t10 -32q-11 26 -17 17t-9 -21q0 -6 8 -2t14 2q10 -33 -18 -49q4 -10 12 -8v8q12 -16 13 -41t9 -37q-20 -16 -22 -18q0 -6 5 -2t8 -6t-1 -16t-18 -3q20 -23 19 -93t22 -93q45 -2 122 0t119 0q18 -16 27 -47q-6 0 -9 -6t-7 -9q-129 10 -414 -32
t-391 -29q-31 49 -35 76q10 4 43 5t43 7q-2 12 -17 134t-17 168t5 116q8 70 9 102l16 336q-2 104 37 368t39 267q-22 10 -52 18t-40 13q-12 43 -31 79l10 2q8 4 4 15q7 0 21 -10t30 -7q6 6 -2 15t-8 16q2 2 12 4t13 8q6 -2 14 -13t16 -13q75 -10 395 -4t373 -23
q21 -21 33 -39q-6 -16 -16 -30q-45 -2 -132 5t-139 3q-27 -55 -16 -166q-2 -4 -12 0q8 -106 -30 -275q-38 -168 -32 -196l156 16q3 -4 23 -19t24 -28q-12 -20 -16 -31q-60 5 -106 -9t-93 -32q6 -30 2 -146t4 -151q0 -6 -7 -3t-13 3q18 -35 18 -39q-6 -2 -11 6t-7 7z" />
    <glyph glyph-name="F" unicode="F" horiz-adv-x="1093" 
d="M201 1530l90 -19q16 12 6 41q71 4 189 -16t159 -45q23 2 135 -1t135 5q8 0 30 9t37 6t23 -29q7 -27 11 -35q-51 -27 -182 -34t-172 -19q-27 -342 -19 -588q31 -14 61 -7q86 20 105 -20q-2 -6 -7 -20t-7 -23q-29 -4 -80 -14t-78 -12q-14 -21 -11 -60t3 -47l-8 -343
q0 -135 21 -258q21 -122 24 -157q-2 -10 -18 -28t-13 -33q-14 0 -38 11t-40 11l-25 43q-14 -14 -18 -49q-20 7 -166 15t-168 43q6 518 6 540l11 244q-1 70 -7 87q-6 18 -18 30t-10 16t2 12q-2 8 3 12t14 4q9 1 12 3q1 45 -5 283t0 280q-16 10 -60 15t-60 16q-2 10 -22 51
q-19 41 -13 57q55 -27 143 -12q0 18 25 35z" />
    <glyph glyph-name="G" unicode="G" horiz-adv-x="1091" 
d="M774 1248q0 11 -6 18q-29 -6 -49 -47t-53 -50q-8 -45 -33 -57q0 -10 4 -27q-55 -113 -100 -309t-53 -426q-8 -229 77 -377q41 -74 68 -96q2 -4 -1 -10t1 -12q65 -26 90 31q10 24 17 44l12 30t9 26q5 18 9 28l10 9q18 59 38 159t-9 193q-11 2 -73 2t-87 6q-10 57 14 127
q55 -35 167 -33t175 -6q2 -35 -43 -55t-49 -25q13 -90 9 -130t-22 -116t-24 -130q-6 -55 -34 -121t-80 -103q-51 -37 -144 -6q-27 -14 -259 49t-257 105q-14 29 -26 87t-40 172t-31 166t7 122t20 271q9 199 16 233t30 96t26 92q16 16 31 26l2 58q16 28 48 98q74 160 132 201
q10 14 43 -13t39 -37q23 -16 173 -55t175 -67h27q64 -45 78 -141t-10 -163q-18 10 -22 -11t-11 -23q-31 14 -25 82t-10 98q4 6 4 17z" />
    <glyph glyph-name="H" unicode="H" horiz-adv-x="1337" 
d="M57 360q8 -4 9 7q-2 16 -13 14q4 -13 4 -21zM51 580q11 4 13 30t-13 31q-6 -18 0 -61zM1210 852q8 -2 12 3q3 5 -1 15q-13 0 -11 -18zM14 913q0 79 -7 175t-6 116q1 22 9 139t8 156t-8 45t-8 12q28 -14 188 -21t187 -44h2l4 -2l-4 10q25 -4 61 -24q16 -51 33 -58
q14 -94 8 -102q8 -4 7 -28t8 -38q-33 -84 -13 -424q19 -22 128 5q110 26 147 30q16 124 13 240t-1 118t6 3q4 0 6 2q-8 47 5 136t4 150q14 -10 65 -5q50 5 64 2t119 -16t112 -18q8 -4 12 -11q6 -10 43 -22t37 -43l-14 -40q-2 -12 2 -37t4 -35l-12 -61v-45q0 -26 -13 -33
q27 -70 15 -248q-2 -18 1 -96t-5 -90q21 -158 39 -439t18 -430q-23 2 -43 -14q0 -8 8 -20t4 -19l-78 35q-10 -3 -6 -15q4 -11 4 -20q-39 -14 -175 -10t-169 33q-31 166 -50 464t-11 465q-16 10 -104 3t-103 -7q2 -4 14 -4q-10 -2 -39 -5t-53 -21q-1 -177 17 -294
q18 -118 33 -289t3 -224q-2 -10 4 -16t7 -11q-49 -47 -225 -67t-255 28q2 18 -5 68t3 63q-26 103 -32 238q-15 342 -15 487q-48 12 -96 12q-20 24 -29 53q-8 29 -12 40l45 -4q2 -5 -1 -11t-1 -12q20 -2 46 4t32 6q18 56 18 135z" />
    <glyph glyph-name="I" unicode="I" horiz-adv-x="876" 
d="M362 883q10 23 11 26q-7 2 -11 -5t-3 -14t3 -7zM211 1313q14 0 14 6t-4 10q-8 2 -9 -2t-1 -14zM231 -205q-33 0 -63 12q10 13 32 7q23 -6 33 -7q-7 28 -41 18q-35 -9 -40 -9q-78 53 -97 106q51 -6 189 4q0 6 -8 23t-1 26q7 10 7 13q-17 189 -17 536v375q0 43 -15 207
t-12 202t14 82t9 68q-25 12 -93 9t-108 8q-2 8 -8 23q-19 49 -10 65q52 -31 207 -31q10 -2 12 6t4 8q3 -6 231 -1t236 5q121 0 158 -26q10 -10 18 -23q-16 -6 -24 -6l-56 10q-8 -6 -6 -7q18 -9 15 -23q-35 10 -95 9t-108 1q-2 -15 30 -33t31 -43q10 -8 35 -18t33 -17
q6 -38 -5 -106t-10 -81t-5 -16q-7 -2 -9 -4q8 -49 -7 -291t-11 -290q-6 2 -7 -3t-3 -5q6 -82 12 -275t33 -369q16 6 60 8t60 11q13 -5 19 -25t10 -24q-23 -10 -22 -19q0 -4 6 -12q-52 -12 -282 -34t-279 -40q16 17 18 17q-6 6 -17 4t-14 6q-6 -6 2 -11t7 -16q-33 6 -37 8
q8 -12 -11 -12z" />
    <glyph glyph-name="J" unicode="J" horiz-adv-x="968" 
d="M-47 -96q-2 -10 12 -13q12 0 15 9q-15 10 -27 4zM-111 -4l-26 27q-16 -9 0 -23t26 -4zM119 14q0 16 -21 13q0 -10 8 -15q9 -4 13 2zM186 1050q0 6 -7 28t3 22l8 -2q-18 55 -8 176t-4 184q-43 16 -126 16t-95 -1q-3 6 -17 22t-14 29q39 0 130 -1q90 -1 130 1t178 -2
t168 -2q117 12 144 9t83 -2q122 2 150 -34q2 -6 -5 -11t-7 -14q-43 -6 -127 0t-115 -6l11 -34q0 -10 -11 -13l-2 -287l-12 -84q0 -94 14 -389q4 -51 -14 -158t-18 -183t-21 -124q14 -42 -2 -42q-6 1 -8 -3q2 -6 4 -6l10 2q-8 -69 -17 -109t-35 -86t-67 -69q-20 -43 -119 -60
q-98 -17 -204 -13t-176 22q2 10 -7 17t-12 14q-43 -1 -76 29t-41 35t-10 -2q-4 -7 -10 -5q-58 79 -79 197q-5 33 -17 118l37 15q20 -24 49 -92t65 -89q143 2 181 101l20 4q63 129 70 272l4 -4h4q-10 10 -10 16t8 24q8 20 8 36t-6 53t-2 51q37 180 18 213q5 10 10 8
q11 -3 11 11q-4 12 -8 6t-11 -6q-8 47 9 84q6 -4 0 -22t0 -31q6 4 8 18t16 16q-16 23 -2 39q-2 -2 -10 1t-10 1t2 -18q-18 4 -12 15q5 11 5 24q-14 29 -15 35t5 20t6 20z" />
    <glyph glyph-name="K" unicode="K" 
d="M123 178q4 -6 13 -3t7 13q-20 0 -20 -10zM815 1130l8 -4l4 9q4 -4 11 -5q-5 17 -25 9q2 -2 2 -9zM416 1391q2 0 3 8t5 8q0 -12 6 0l2 10q-14 -6 -28 2t-25 2q10 -4 12 0q2 -4 6 -17q5 -13 19 -13zM1028 1434q0 -12 14 -17q-2 -10 -20 -10q-2 -8 8 -9t6 -12q-14 6 -20 2
t-18 -16q-12 -14 -19 -16q0 -10 7 -18t7 -13q-16 -2 -25 -26t-22 -27q-2 6 3 9t5 6t-7 5t-7 6q0 -23 8 -45q-8 -6 -82 -104q-6 0 -9 7t-9 5q-6 -4 1 -11t5 -11q-90 -125 -123 -158q4 -3 6 -21t13 -18q0 -52 15 -360t52 -461q-4 -86 28 -210q31 -124 38 -159q-14 6 -29 -12
q-51 39 -35 78q-2 6 -9 10t-9 8l10 27q0 4 -9 4t-9 8q-4 10 3 15t7 8q-7 0 -9 9t-10 3q-6 16 -7 38t-5 42q-2 0 -2 -4l-2 -4q-39 197 -119 854q-74 -90 -151 -215q-2 -5 -8 -3l-9 3q0 -12 -4 -46t12 -59q4 -76 -6 -312t-6 -302q2 -8 17 -23q-2 -15 -39 -29t-27 -40
q-45 -27 -191 -20t-178 46q10 12 17 47q6 35 10 45q0 2 -16 23q12 8 1 75t-11 80t12 15q-20 8 12 39q12 12 22 14q-12 16 -13 49t-11 51q16 27 21 177t14 170q-5 6 -15 8t-12 -8q-10 2 -3 12t5 14q4 0 8 -5t11 -3q6 5 5 25t13 22l-27 35q-16 -4 -10 -25q-8 11 -2 39t4 39
q-12 0 -12 -8q-4 14 18 26t25 27q-8 10 -15 -1q-8 -11 -12 -6t0 12t21 3q-4 18 -24 20q-9 1 -13 3q0 7 11 8q11 2 13 4q-2 2 -13 9t-15 14q0 2 10 14t8 25q-12 0 -12 6v33q4 -4 10 -1t12 1q-18 25 -22 94q10 2 10 -15q10 2 5 14t1 17q-8 0 -8 -4q-10 8 -3 140t7 151
q-16 6 -22 31t-10 59t-13 49q16 -6 27 1q10 7 6 18q20 4 115 0q4 0 4 12q4 0 53 2q123 5 123 -19q-10 6 -49 13q25 -25 45 -21q19 4 31 4t5 -7t-8 -11q5 -6 51 -31t50 -61q12 -3 28 -21t29 -22q-10 0 -12 -3t0 -13t2 -15q12 0 9 10q-2 10 9 11q10 -10 2 -36t-22 -26
q-2 -8 18 -8q-35 -95 -53 -275t-29 -239q35 35 80 123q45 87 69 115t52 68q26 40 58 78q32 40 44 59t138 190q2 16 11 31t9 26q10 -2 39 0t41 -4q2 -2 2 -14z" />
    <glyph glyph-name="L" unicode="L" horiz-adv-x="1134" 
d="M446 63q20 0 11 27q-31 -4 -11 -27zM455 125q-8 20 -4 27h-19q4 -4 7 -16q4 -11 16 -11zM430 221q-10 1 -6 -21t2 -28q20 -4 27 -12q-4 10 -6 58q-1 48 -19 69q10 2 8 97t-14 99q-2 -2 2 -10t-1 -8h-9q2 -6 6 -92t4 -90q-4 8 -9 2t-7 -6q2 -12 14 -31q-20 2 -12 -19
q20 0 20 -8zM434 523l-6 57h-12q3 -19 -17 -23q18 -25 13 -57q22 0 22 23zM412 637q0 -29 4 -39q25 0 14 39h-18zM197 805v-8q0 -7 2 -15q10 0 12 12t-8 23q0 -10 -7 -3t-12 3q13 -10 13 -12zM395 690l29 -4q-2 14 0 92t-14 88q-8 -72 4 -164q-10 2 -16 -1t-3 -11zM143 -130
q0 5 -5 22q-5 18 -8 30t-5 53t-12 62q6 29 -1 95t-3 97q-14 47 -9 197q6 150 -4 178q2 0 23 17q-4 8 -25 4q8 35 4 131t11 110l-3 8h-2q-4 0 -6 3q10 20 7 56t12 56q-6 8 -9 1t-14 -3q14 130 11 309t-3 215q-2 9 -12 15t-12 12q43 -9 92 -27q8 -1 13 7t10 8q104 6 241 -58
q16 -8 65 -26t70 -45q22 -36 11 -86q-10 -50 -11 -68q3 -2 9 -3q6 -2 15 -20t10 -60t-3 -91t-2 -80q-23 -41 -32 -149t-29 -150l10 -22q-12 -96 4 -386t8 -378q27 -6 69 5t68 9q0 -12 9 -14q12 0 3 -9t-6 -12q23 2 124 9t153 18q15 0 31 -8t24 -11q0 -6 -9 -14t-3 -20
q-27 6 -34 6l-62 -10q-68 -9 -222 -27t-226 -30t-222 -22q-150 -9 -225 -5q-20 33 -39 38q-4 13 6 25t4 29q33 -6 69 -5t66 -3q6 12 6 17z" />
    <glyph glyph-name="M" unicode="M" horiz-adv-x="1705" 
d="M1020 881q0 4 5 17t-9 17q2 -6 -1 -19t5 -15zM8 986q0 18 7 74t3 102t2 125q14 184 -18 257q43 14 109 -41q12 -2 110 -4t120 -11q21 -10 33 -22t19 -14l36 -12q30 -10 38 -20t17 -39q9 -28 21 -44q13 -16 17 -24t5 -34q1 -34 22 -57t47 -117q36 -125 71 -196
q35 -72 56 -139q20 10 30 36q9 25 15 47t10 31t15 50t36 65q-5 15 7 29t10 27q8 4 16 16t15 14q-2 9 7 25t24 59t44 66q5 44 32 106t34 80q10 -2 39 9q6 10 11 42t13 41q25 -4 90 17l-12 -35q10 -12 76 -27q18 -18 18 -30q19 -6 79 -24t102 -30q42 -14 78 -43q38 -29 40 -57
t-16 -66t-18 -65q-16 -17 -28 -67t-30 -66q0 -8 10 -8q-20 -37 -46 -124t-44 -126q12 -12 3 -36t3 -26q4 -8 -4 -10t-6 -8q-20 -379 4 -592q0 -25 6 -52q6 -26 6 -84q-1 -58 9 -67q-36 -40 -139 -39t-199 13t-115 14q-4 25 -28 39q20 127 25 480t22 472q4 2 8 10t10 9
q-12 29 -6 35q2 0 6 -15q12 27 4 37q10 14 21 62q-2 4 -4 2q0 37 34 71q-2 4 -18 4q10 31 17 101t10 84q-27 -3 -30 -33q-3 -29 -8 -39t-29 -55t-32 -74q-51 -180 -96 -242q0 -59 -30 -122q-30 -64 -40 -89q-26 2 -58 24t-38 23q-4 25 -6 35q-31 44 -69 146t-62 141
q4 33 -31 80q-33 -105 -42 -287q-17 -343 34 -680q4 -8 -6 -9t-10 -3q2 -2 11 -5t11 -26t-18 -79t-6 -109q-57 -14 -66 -23q-29 -57 -159 -80t-199 27q-4 23 -12 4t-13 -26q0 37 -16 363t-11 423q11 9 12 39t-12 131q-14 100 -14 102q-8 8 -2 76q6 69 6 87zM1006 999
q-2 4 0 7v-7zM45 -238h-2q1 1 2 3v-3zM43 -238q-8 -8 -16 0h16z" />
    <glyph glyph-name="N" unicode="N" horiz-adv-x="1462" 
d="M621 668q-2 12 -11 10q-8 0 -13 16t-30 88t-49 142t-72 147q-20 -25 -18 -65t8 -145q7 -121 -3 -269t-7 -262q31 -354 -12 -469q-16 -4 -32 9t-24 13q-4 -10 7 -18t3 -20q-10 -11 -18 -16t-12 -11q-16 2 -148 6t-176 24q-27 49 -8 150q2 12 4 108t0 121q-10 260 15 445
q-12 88 4 264t0 264q0 29 11 82t13 81t-16 75q29 -4 183 -18t214 -40q12 -20 19 -49q4 -6 17 -16t19 -19q166 -532 375 -901q10 49 12 229t31 250q10 109 40 335t38 352q250 -60 367 -111q0 -24 17 -32t22 -11q6 -18 4 -50t10 -38q-16 -25 -21 -66q-9 -67 -31 -160
q-21 -93 -14 -165q-37 -90 -32 -303q-7 -3 -15 -13t-18 -10q20 -31 -6 -35q16 -74 23 -119q7 -46 9 -250t17 -261q2 -10 17 -39t14 -37q-4 -49 -163 -61t-222 12q-26 26 -43 26q2 22 -23 52t-29 40q16 88 -92 435q-12 9 -30 35t-37 30q-14 74 -72 188q-15 15 -23 37
q-1 9 7 13z" />
    <glyph glyph-name="O" unicode="O" horiz-adv-x="1097" 
d="M92 90q6 0 13 -3t10 3q-16 37 -35 43q-4 -7 7 -19t5 -24zM47 209l2 -19q4 0 8 4t9 1q0 14 -19 14zM479 1116q22 -4 17 14q-10 0 -14 -3t-3 -11zM590 1423q12 1 46 7t58 4q-16 24 -58 18t-46 -29zM386 1456q-83 0 -85 4q10 8 24 35q13 27 25 35q248 -10 281 -35
q79 2 147 -40t86 -83q-18 -28 -64 -62t-59 -48q-29 -10 -53 -32t-32 -38q-9 -16 -26 -53t-24 -49q-18 -10 -28 -9q0 -8 7 -10t9 -4q-4 -10 -17 -45t-27 -68t-22 -69q-8 -35 -18 -77t-10 -60t-5 -62t3 -65q-32 -146 6 -377q10 -72 24 -104t31 -82q17 -52 29 -74t48 -50
q36 -27 46 -43q133 96 205 463q12 60 20 196t4 182t-7 165q-3 120 -32 211q0 2 -5 10t-7 15t1 34t0 36t-19 29t-19 38q25 10 44 5t33 -6t24 -17q12 -16 18 -26q6 -9 12 -32t10 -37t7 -40q6 -38 22 -91t14 -105q-1 -51 5 -111t6 -67l-21 -41q9 -33 1 -53q-14 -38 -8 -141
q6 -102 -19 -111q23 -51 -4 -100q-18 -233 -156 -414q4 -49 -28 -75t-83 -25l-10 -19q-20 2 -158 6t-190 16q-52 11 -119 79q-67 69 -86 84q0 2 -2 12t4 10q-2 4 -18 4q-12 16 -19 45q-6 29 -9 37t-25 37t-19 59q4 30 -20 56q-4 16 -3 64t-14 63q2 2 6 14t11 17l-19 8
q4 14 4 17l-14 40q8 18 10 106t-8 107q14 2 16 -12l15 8q-1 6 -11 5t-12 -1q6 31 -8 49q-2 8 12 8q-6 6 1 29t-7 33q8 -2 11 4t6 6q-2 4 -23 8q6 35 31 92t27 76t-2 21q-5 2 -5 4q20 111 113 268l-19 10q14 14 33 13q-2 10 -12 14q119 166 121 170l180 -4q0 10 -83 10z" />
    <glyph glyph-name="P" unicode="P" horiz-adv-x="1040" 
d="M248 649q39 -6 133 23q29 8 22 12q-3 -6 -77 -20t-78 -15zM141 786q23 -16 29 13q-6 2 -10 18q-18 -4 -19 -6q10 -1 4 -11t-4 -14zM145 838q2 -16 25 -13q2 12 -8 17q-11 4 -17 -4zM487 1179v-104q1 -10 5 -34t2 -35l-11 -62q1 -39 13 -119t10 -123q30 3 66 28
q36 24 58 34t52 34t43 36q12 12 47 52t39 45t37 44t43 57q16 39 4 85q-13 47 -35 71t-82 46q-84 30 -97 43q-13 12 -48 23q-34 11 -74 35q-41 23 -51 13q-21 -82 -21 -169zM45 838h-8q8 39 -1 124t5 113q0 9 -9 15t-9 12q4 100 -9 295q39 61 -57 149q20 21 20 62
q11 -2 25 -12t18 -11q59 15 167 -11t152 -42t80 -19t181 -49q144 -47 171 -65q27 -17 73 -67t82 -62q10 -18 34 -78t46 -94q-10 -8 2 -58q0 -10 -16 -30t-9 -35q-15 -16 -69 -88t-97 -96q0 -4 2 -15q-18 4 -21 -10t-9 -19t-53 -22t-100 -55q-52 -37 -106 -64
q-20 -12 -41 -71q17 -95 25 -349t29 -348q-55 -32 -247 -30t-243 47q0 307 -4 407l-8 23q0 12 6 40t5 39t-9 39q0 6 7 3t11 -3q3 14 -20 25q-4 2 6 10q-27 12 -63 8q-6 16 -33 30t-33 20q60 0 97 29q9 7 15 11t14 11q9 8 13 10q6 49 -5 135t1 119q-4 27 -8 27z" />
    <glyph glyph-name="Q" unicode="Q" horiz-adv-x="1134" 
d="M92 782q0 6 5 12t3 11h-16v-8q0 -15 8 -15zM104 858q10 -2 14 9q3 11 -9 14q-1 -1 -5 -9t0 -14zM135 930h-12q0 -2 -3 -18t-3 -23q18 4 18 41zM897 768q0 8 -2 12q43 98 38 236t-50 284q-31 -8 -67 -49t-68 -49q-16 -39 -84 -102q-8 -57 -31 -64q2 -43 -29 -61
q-4 -39 -33 -106t-32 -107q-7 0 -11 -2t-8 -2q16 -57 -14 -84q10 -25 4 -106t-12 -99q2 -29 2 -53t-13 -76q-14 -276 107 -408q2 -12 10 -23t10 -15q35 18 82 86t45 99q-2 30 -38 71q-44 50 -39 58q4 9 -19 21t-55 78q0 2 6 7q6 4 5 10t-10 8t-3 10q60 4 116 -37t89 -96
q14 2 18 16t-4 29q10 16 18 59t30 84t11 78q10 23 20 143t13 138q-2 4 -2 12zM133 968q0 4 -12 15q0 4 5 2t7 2q-2 12 -24 12q2 9 17 9t19 6q2 8 -5 8q-11 0 -11 8q4 4 23 0l-25 19q2 2 13 2t20 2q-2 10 -16 13t-13 5q0 19 34 39t30 49q-7 6 -17 -1t-18 -7q8 25 26 27
q-14 24 -8 34t36 77t69 83q-7 24 53 84q59 59 74 78q14 -8 78 -20q173 -34 178 -62q125 43 256 -80q0 -4 -6 -5t-5 -7q21 -26 43 -81q23 -55 30 -95t11 -63q4 -21 7 -69q2 -48 6 -86t4 -108q-10 -6 -11 -16l9 -45q0 -14 -12 -38t-17 -46q-4 -22 -4 -215q-10 -143 -62 -211
q0 -10 5 -27q-16 -8 -20 -48t-19 -50q-12 -73 34 -147q15 -27 49 -73t44 -61q-14 0 -13 -4q82 -70 127 -174q-29 -14 -92 6q-8 32 -36 49q-9 6 -28 16t-26 13q-29 84 -117 188q-117 -184 -270 -184q-305 0 -350 53q-33 37 -78 111t-53 117l10 22q0 26 -22 94t-19 103
q14 10 8 50q-5 40 23 44q2 -6 -6 -8t-9 -6q4 -4 33 -9q0 12 4 48t0 45q-31 0 -18 -39l-29 4q2 25 12 166t15 180q13 156 49 189q10 9 10 13z" />
    <glyph glyph-name="R" unicode="R" horiz-adv-x="1122" 
d="M508 1061q42 6 120 40q78 35 157 57t126 61q41 41 31 81t-51 68q-68 45 -197 78t-194 10q16 -66 8 -203t0 -192zM963 -219l-106 -4q-82 0 -98 12q-15 13 -27 23t-11 25q2 15 6 36q-10 88 -17 325q-8 237 -18 322q-10 86 -8 172t-15 175t-47 95t-74 -14t-59 -20
q-12 -66 -8 -140t3 -148q-1 -75 1 -116l10 -62q-1 -13 -12 -22q17 -53 15 -231t3 -212t-2 -36t-7 -6q12 -18 24 -82q14 -18 64 -35q-2 -6 -12 -13t-7 -18l-442 -38q-4 18 -37 27t-39 22q1 15 19 17q18 1 24 3q-20 30 -12 76q8 47 8 61l-8 45l10 132l-18 411q0 221 -4 300
t4 269q6 190 4 302q-6 4 -28 1t-34 -1q-2 10 -3 36t-5 48q33 0 284 7q250 7 406 -7t242 -66q49 -32 93 -104q74 -123 -29 -208q-40 -34 -123 -73t-97 -47q121 -72 158 -109q0 -23 -4 -37q8 -12 39 -8q0 -3 -11 -16q22 -56 15 -158q-8 -103 -6 -147l-9 -101q0 -6 4 -28
t-12 -29q0 -4 8 -8t7 -14q0 -426 18 -562q-14 -6 -20 -22z" />
    <glyph glyph-name="S" unicode="S" horiz-adv-x="1024" 
d="M770 201q-31 47 -68 71q9 -15 35 -40q27 -25 33 -31zM393 745l-2 19q-6 2 -10 -1t-8 -3q2 -10 20 -15zM109 80q10 0 26 -6t31 -2l10 -20t11 -21q3 -3 11 -17t19 -29q13 -15 19 -18q6 -4 17 -12t37 -9t117 50t133 86t64 84q-43 47 -203 191q-159 145 -193 167t-74 72
t-66 68q0 4 2 9t0 11q-45 39 -70 47q68 303 231 555q12 63 82 154q25 33 86 82t86 86h23q31 -33 116 -100t119 -115q59 102 45 190q49 -8 79 -51t28 -102q2 -2 19 -12t22 -21q-6 -78 -38 -198t-38 -167q-6 -2 -13 -9t-16 -9q0 -4 17 -25q-27 -24 -18 -130q3 -36 -15 -55
t-65 -1q-64 81 -69 192q-4 111 24 240q-97 -87 -208 -293q-56 -104 -81 -143q-4 -25 1 -54t-16 -47l13 -6q4 -12 -15 -8q31 -33 101 -63q197 -82 397 -474q2 -12 4 -41q2 -30 3 -40q7 -74 -15 -125q-23 0 -31 -19q2 -14 -9 -30t-7 -31q-170 -188 -475 -174q-111 45 -136 49
q-2 6 -10 16t-12 17q-57 11 -85 81t-28 164q8 2 14 -9t15 -7q6 14 -5 41t-11 41z" />
    <glyph glyph-name="T" unicode="T" horiz-adv-x="1363" 
d="M545 -160l8 -26q25 -4 31 -4q-23 31 -39 30zM508 197q-12 0 -16 -4q2 -14 16 -15v19zM451 213h-15q8 -19 10 -35q11 0 8 16t-3 19zM825 213q-4 0 -7 8t-9 6q0 -4 -4 -8t0 -10h10q10 2 10 4zM793 289q0 2 3 15t-1 20h-13q9 -33 11 -35zM487 297q10 2 11 16q0 14 -11 19
q-2 -2 1 -18t-1 -17zM530 594q12 -12 22 7t-13 24q3 -9 -5 -15t-4 -16zM889 1188q0 -6 6 -8t6 -6q-16 -10 -10 -44t-10 -34q25 -39 2 -76v-770l-13 -19q10 -35 0 -131q14 -59 20 -170t15 -155q-95 -31 -275 -5q-78 12 -134 49q-57 38 -30 101q9 21 3 51q-2 4 -10 6t-10 5
q6 16 -3 62q-8 46 5 56q4 -8 3 -18t3 -19q10 59 -13 64q0 4 9 16t-4 31q-2 0 -3 -12q-33 78 -4 162q-2 2 -8 3t-8 8t1 9t7 0t6 -2q2 12 1 128t5 124q0 8 -10 11t-12 7q0 8 5 32t-7 38q21 21 -2 102q4 0 12 3t10 -3q2 4 2 20t5 23q-9 2 -13 -4t-12 -4q-4 11 3 19t7 12
q-23 51 -16 265q6 214 2 265q-31 20 -170 6t-199 -10q-17 23 -30 52q-13 28 -21 40q6 10 33 9l-19 30q2 11 20 11t25 8q10 0 21 -15q49 -4 322 2t309 -14l90 2q56 0 84 -14q141 12 173 7q46 -7 95 -13t80 -31q31 -24 31 -47l-15 -10q14 -10 15 -21q-334 35 -574 27
q4 -39 58 -31q4 -23 21 -37t50 -27t43 -20q-2 -27 47 -76q0 -20 -20 -20z" />
    <glyph glyph-name="U" unicode="U" horiz-adv-x="999" 
d="M426 120q0 10 -2 19q-12 4 -17 4q-12 0 -8 -12q13 0 19 -14t12 -17q-4 10 -4 20zM154 135q0 23 -23 19q7 -29 23 -19zM391 586h19q-2 16 -14 14t-5 -14zM844 1079q2 0 15 6t22 2q4 -25 -31 -12q-6 -8 -3 -24t15 -21q4 2 -4 6t-6 13q12 10 27 4q-13 -23 -11 -61
q2 -39 0 -62q8 6 12 0t5 -26q2 -20 10 -32q0 -6 -8 -3t-15 3q0 -8 10 -12t9 -10q-16 -90 2 -188l-16 8l6 -27q0 -6 -9 -8q2 -10 6 -7t9 -1q-9 -39 -27 -279t-51 -313l10 -23q-47 -98 -85 -144q-71 -85 -179 -84t-377 60q-2 2 -15 27t-18 30q-4 5 -26 35t-62 41
q-55 250 -53 414q10 231 -1 277t-1 134q10 87 10 109l-12 93q-4 35 5 90t9 73q-22 25 -11 51t11 132t31 151l-10 27q37 22 151 -16t151 -59q38 -21 46 -21t17 -6t37 -33t42 -33q2 -23 19 -31q14 -76 -19 -92q0 -10 12 -10q5 0 7 -2q-20 -61 -33 -164q-8 2 -12 -1t-9 -3
q10 -10 0 -40t-10 -36l2 -35q0 -4 2 -16t-1 -18t-13 -1q16 -27 7 -73t-3 -68q-6 -6 -16 0q4 -3 14 -35q-14 0 -18 2t-9 -2q0 -16 17 -12l4 -27q-8 -6 -13 -1t-10 1q3 -12 12 -8t11 4q3 -12 -4 -12q-6 2 -8 -2q11 -8 13 -24q1 -15 3 -23q-4 0 -8 4t-6 4q14 -31 12 -142
q-2 -112 -2 -120q-4 -4 -12 -4t-11 -8q2 -4 19 -5q2 -12 2 -67q-6 -6 -12 4t-11 10q-4 -4 2 -13t7 -13q4 -6 8 0t10 0q2 -10 -4 -35t8 -31q-14 0 -20 -14l-5 -8q18 -14 21 -23q4 2 2 11t0 12q6 -1 10 -17t0 -18q-16 16 -22 16q-6 -2 -11 -12q1 -6 15 -8t16 -4q8 -61 8 -89
q23 -12 55 -57t56 -57q20 8 37 0q86 63 119 215q59 221 59 579t-68 672h23q4 0 19 -6q14 -6 24 -8t11 8t9 10q10 -6 22 -19t23 -16q-24 -3 5 -26q-8 -2 -18 3t-17 5q6 -16 21 -22t14 4v6q10 -2 10 -17q0 -10 -8 -2q20 -35 20 -57q-4 2 -10 18q-2 -10 -15 -11t-16 -3
q0 -10 6 -6t13 2q4 -8 -7 -10q-8 0 -6 -5t19 -6q6 0 2 25q10 -4 13 -19t7 -24q-12 -8 -28 8q10 -27 26 -16q2 -9 -2 -21t6 -24q-6 -6 -20 -4q2 -6 1 -14t5 -9q4 -8 7 0t9 4q2 -11 -2 -25q-5 -14 8 -14q4 -6 2 -12t2 -13q-2 3 -10 1t-16 -2q-2 12 -18 129q-6 -19 2 -75t8 -71
zM879 1096h-1h1z" />
    <glyph glyph-name="V" unicode="V" horiz-adv-x="1048" 
d="M209 397q-2 14 -21 19q0 -20 8 -22t13 3zM760 655l-17 -6q1 -58 7 -114t10 -58q-6 14 -7 90t7 88zM115 664q10 -2 10 8q-2 10 -10 14q-4 -12 0 -22zM760 676q18 18 -4 31q2 -5 -3 -17t7 -14zM164 812q0 7 2 9q-2 0 -5 3t-8 0t-1 -19q12 0 12 7zM160 862q6 6 3 14t-11 7
q0 -17 8 -21zM846 1477h-21q-2 -14 13 -15q14 1 8 15zM100 449h2l11 -3q-18 51 -23 212q-4 161 -20 216q0 6 6 12t8 11q-6 12 -10 53t-8 51q-10 -3 -9 -13q2 -9 0 -17q-12 23 -18 -17q-8 20 8 60t18 76t-20 176t-45 184q0 6 20 3t23 -3q-2 8 0 26t-8 27q35 10 143 -1
t123 -29q5 -3 19 -5t28 -6t38 -10t34 -25q2 -2 -3 -6t-5 -6q20 -33 16 -47t4 -17t10 -5q16 -52 20 -156t6 -138q3 -34 22 -140q18 -106 18 -134t16 -181t11 -191q10 -6 12 -16t6 -11q-2 -4 -2 -6q-4 2 -6 2q-2 -9 5 -15t7 -12q-6 0 -10 -8t-8 -8q2 -6 11 -6t11 -4
q6 -18 0 -36t4 -38q-2 0 -6 8q14 -89 107 -338q23 16 18 92q41 162 39 344q10 39 14 209t13 211q4 -8 4 -28t6 -33q14 12 16 62t15 69q0 76 21 209q22 133 22 209q-5 5 -1 22q5 16 5 34t-13 28q-1 8 7 6t14 2q-2 25 6 84q-33 27 -35 35q2 2 9 14t22 12q-12 16 1 40t3 38
q24 16 60 10t53 -31q-37 -270 -76 -387q10 -92 -15 -118q-2 -55 -15 -155t-13 -153q-6 2 -7 -4t-5 -6q16 -70 -3 -293q7 -10 11 -28t8 -27q-6 2 -13 -2t-12 -4q10 -10 4 -33t15 -29q-2 -10 -8 -5t-10 4q-3 -1 1 -29q1 2 5 11t4 -11q6 4 6 18q8 0 8 -14t2 -17q-12 2 -23 -4
q16 -16 13 -45q-17 7 -17 19t-2 16q-6 -12 -6 -17t25 -38q-4 -4 -4 -12v-15q0 -14 -17 -14q10 -15 5 -27t-15 -12q8 -43 -5 -101t-13 -79q-32 -13 -51 -103q-3 -18 -3 -24q-6 0 -18 -10t-25 -5q-12 -39 -78 -34q-29 16 -174 22t-168 12q-37 61 -45 119q-4 6 -16 13t-14 10
q-76 201 -101 465q16 16 19 26q-2 8 -10 3t-9 1v9z" />
    <glyph glyph-name="W" unicode="W" horiz-adv-x="1560" 
d="M559 -203q6 2 12 3t7 14q-23 5 -19 -17zM1339 118q0 8 -2 9q-2 -3 -8 -11t-8 -12h22q-4 6 -4 14zM1346 258l-5 -24q1 -5 5 -7q-2 9 9 15t7 16h-16zM479 258q10 -2 13 8q-2 12 -11 15q-4 -9 -2 -23zM76 860q0 -49 2 -53q8 0 11 12q3 13 -1 27t-12 14zM61 1026q12 -2 13 8
q0 12 -11 15q0 -1 -4 -9t2 -14zM846 1294q18 -18 18 -87q0 -9 9 -11t10 -6q19 -295 59 -583q39 -288 51 -349q26 -4 15 31q23 37 26 133q10 10 18 144q7 134 21 145q-4 31 11 84t18 73q2 0 6 -4t8 -4q-8 39 19 133t30 125q16 162 4 256q12 25 8 105q-5 80 9 110
q84 -8 104 -35q29 2 64 -13t43 -17l8 12q10 12 25 4q2 -4 -4 -7t-5 -5q2 -2 35 -19q27 -70 23 -139q-3 -68 -9 -129t-7 -85t0 -93q1 -70 -3 -90q-2 -2 -22 -17q0 -10 10 -14q-2 -2 -12 -5t-13 -7q-8 -68 -21 -362t-34 -388l-6 13q-6 10 -14 8q-2 -14 -19 -21q5 -6 19 -7
t17 -5t-3 -29q-6 5 -6 15t-8 16q-23 -12 -29 -39q2 -8 10 0t19 4q10 -10 5 -26q-5 -17 -4 -19t-15 2t-19 0q-8 -71 -97 -61q-89 11 -155 39q-6 0 -8 -10t-13 -9q-25 29 -55 23q-12 33 -49 39q-45 131 -81 473t-52 424q-10 -4 -14 -22t-7 -23q-8 6 -3 26t1 31
q-25 -23 -26 -74q-14 0 -21 -10q-4 -12 7 -15t14 3q4 -4 -1 -18t-14 -13q-4 8 1 11t6 5q-18 4 -16 -16q1 -8 9 -6q2 2 2 -8q-8 2 -10 0q-2 -3 1 -9t2 -12t-17 -32q-17 -26 -29 -62t-50 -258q-38 -223 -46 -254q4 -70 -27 -149q-31 -78 -35 -89q14 -55 17 -122q31 -31 37 -97
q-36 -7 -220 -41q-146 -23 -210 15q0 6 11 5t13 3q-2 6 -12 11t-12 7q-57 297 -56 449q-8 39 -18 211t-19 227q27 8 33 16q-4 37 -6 54q-18 -6 -7 -22t5 -25q-4 0 -7 9t-9 7l-23 268q6 2 8 -5t6 -7q6 8 4 11q-3 3 -11 9q-7 6 -9 11q-2 35 -11 200t-36 252q84 25 262 -6
t236 -86q-25 -270 -9 -498q-16 -23 -18 -26q4 -8 14 -8q-8 -51 -6 -84q-8 8 -12 -1t-12 -8q0 -14 5 -43t1 -49q2 0 8 -3t9 -2t1 9q6 -11 5 -123t-13 -118q-2 8 1 14t1 12q-14 -33 -12 -51q4 -8 13 -5t9 9q8 -18 4 -42q-3 -24 3 -36t-1 -12q-14 0 -14 -4v-8q-4 -10 10 -10
q6 2 9 6q14 -13 4 -61t-11 -62q11 0 17 15t18 16q0 27 10 26l-4 27q6 2 13 11q6 9 8 11q49 297 127 588q4 0 9 8t11 9q-16 16 12 44t5 31q-8 0 -5 -8q-8 23 35 35q-4 20 2 25q-8 8 -14 2t-8 -2q-2 18 25 6q8 6 1 18t-18 8q4 6 9 18t10 17q8 -12 18 -10q2 -8 -8 -8
q4 -10 37 -4q-12 8 -10 24q3 16 -3 33q-10 -4 -7 -14t0 -20t-15 -5q8 0 7 9t-7 -1q0 2 6 26t-6 36q25 22 31 82q6 59 10 75h43zM709 942l-1 1z" />
    <glyph glyph-name="X" unicode="X" horiz-adv-x="1234" 
d="M1001 1348l-12 -23q16 0 18 9q1 9 -6 14zM1010 1364h10q10 0 14 14q17 -6 -22 -35q0 -14 -10 -32t-5 -33q-27 -48 -117 -190t-94 -144q47 -198 64 -224q16 -26 12 -29t-4 -7q27 -59 109 -312t137 -349q10 -18 46 -69t50 -108l-51 -4q-8 -2 -4 -13t2 -13q-21 0 -115 -20
t-125 -15q-10 -33 -55 -30t-76 26q-4 8 -15 28q-38 69 -24 95q-27 47 -69 225q-44 177 -58 209t-47 86t-41 91q-8 38 -13 49t-24 43q-18 32 -22 54q-25 -3 -39 -37t-31 -42q0 -20 -20 -40t-21 -42q-69 -80 -143 -409q-22 -97 -27 -118q-20 -17 -38 -79t-56 -74q-7 5 -20 30
q-16 2 -36 20t-32 23q4 27 25 27q65 100 191 408t208 417q-15 47 -49 115q8 0 13 -16t15 -15q2 27 -17 61t-21 44q-8 2 -9 -5q0 -7 -8 -3q-4 6 -1 15t3 11q-18 6 -35 47q-16 41 -32 49q-98 242 -125 299q-4 5 -10 3t-13 -3q-2 7 -1 13t-1 14q-14 12 -30 55q-15 43 -42 54
q20 -2 128 1q255 7 292 -48q44 10 89 -17q45 -26 59 -33q34 -79 133 -376q41 45 107 147q67 102 89 156q12 3 24 25q16 30 28 30zM352 908q0 7 -2 10q8 2 12 -13l3 -10q-6 -2 -10 2q-3 4 -3 11zM1032 1382q-2 8 -4 12t12 14q14 9 23 9q-13 -29 -31 -35z" />
    <glyph glyph-name="Y" unicode="Y" horiz-adv-x="1236" 
d="M561 164q-20 35 29 354q0 8 -2 30t7 39t11 25q0 8 -3 28t15 161q18 142 19 217q-8 47 -6 146t-6 145q-62 -151 -103 -216q-42 -65 -64 -107t-50 -172t-35 -148q-6 -18 -39 -102q-33 -82 -44 -114t-29 -66q-26 -48 -68 -69q-25 -2 -76 27q-6 18 -27 79t-26 97t-2 88
q3 51 -1 76t-6 79t-13 80q-10 25 -2 176q7 150 7 191q-2 182 51 330q4 -2 18 -5q59 -13 70 -42q4 -33 -12 -111q-37 -257 -43 -286q10 -90 13 -342t46 -318q59 78 125 264t80 217q10 75 56 158t91 197q46 114 79 168q-8 18 -5 32q4 14 -4 29q12 2 109 -8q2 -10 20 -45
q18 -12 129 -45t131 -51q7 -29 45 -66t48 -63q14 -13 12 -97t-2 -88q23 -254 -27 -340q6 -66 -13 -248t-13 -239q-1 -4 -9 -30t-18 -34q4 -49 0 -67t-22 -58t-24 -56q-5 -15 -13 -64q-9 -50 -17 -64t-32 -37t-22 -41q1 -18 -1 -24t-53 -105q-90 -164 -287 -180
q-84 -9 -236 13t-215 57h-30q-8 14 -38 32t-38 33q0 -2 -4 -6q-18 -6 -23 6q2 2 4 5t11 -5q0 6 -54 111q-4 8 5 11t10 7q-31 45 -35 58q54 7 114 -30q17 -11 51 -39t44 -34q100 -31 154 -2q35 18 53 28t48 50q30 41 52 81t44 75q21 34 52 138q31 103 39 126z" />
    <glyph glyph-name="Z" unicode="Z" horiz-adv-x="1495" 
d="M1479 43q0 -6 2 -10q4 2 11 1t11 0t2 9h-26zM535 1325q45 2 73 31q-4 -2 -31 -9t-42 -22zM604 1485h-20q-2 -14 11 -14q13 2 9 14zM733 1532q6 0 33 10t33 -10q14 -4 15 6t3 12q37 10 136 24t147 30q14 0 14 -11q8 13 56 23t51 26q6 0 53 -26q-17 -24 60 -167
q30 -55 34 -73t1 -41t3 -32q-43 -37 -277 -213t-339 -289q291 -35 420 -31q-31 16 -60 8q29 33 115 -30q47 -33 57 -74q-2 4 -33 4h-34q9 10 -9 13t-72 4t-66 3t-14 10q-1 8 -3 9q-43 -6 -158 2t-141 -10q-8 0 -16 8t-13 10q-27 2 -59 -10q-54 -59 -104 -103t-150 -226
q-100 -181 -162 -226q-8 -25 -20 -35q-11 -10 -23 -19t-19 -15t-40 -23q375 27 700 34q10 -2 12 -14q80 8 279 -9t284 -18q4 -4 9 -24q18 -2 38 10t27 14q27 -27 62 -20q29 -21 75 -127t58 -162q4 -6 15 -10t15 -8q-16 -10 -22 -46t-8 -40q-78 -4 -274 22t-287 21
q-4 13 5 14q9 2 14 3t13 1h13q-16 17 -87 13t-79 12q-25 -10 -39 -8q-2 6 1 7t11 1q-8 10 -41 6q-16 -2 -6 -10q-41 14 -139 -8t-139 -9q-53 -47 -173 -22q-8 -2 -6 -10t-4 -13q-41 6 -119 -18t-106 -25q-53 33 -49 58q-76 57 -157 213t-7 202q-8 31 7 59q16 28 32 40t49 32
q47 51 157 235t171 239q-23 14 -104 10t-120 2q-57 53 -55 98q23 -14 86 -18q4 4 -2 13t2 13q37 -16 129 -11t134 1q41 -4 55 10t84 81t92 95q12 0 24 9q42 42 136 114t135 115h17q3 0 10 7t10 9q-97 -7 -212 -50q-114 -42 -137 -50q-67 -8 -183 -48t-150 -44t-40 -12
q-5 -8 -12 -11q-2 6 -17 29t-17 41q-20 4 -69 84q-48 80 -69 76q-4 18 -34 48q-31 30 -27 54q135 18 290 68q154 49 185 59q-4 -2 14 -4q8 23 123 23q8 2 3 7t-5 9z" />
    <glyph glyph-name="bracketleft" unicode="[" horiz-adv-x="444" 
d="M150 -6h-9q-104 -4 -110 -5t-11 7l-6 12l-10 10l10 19q-31 43 4 67q-4 246 -6 732t2 596q-4 6 -10 10l10 18q-33 46 1 66t100 24q67 4 111 10t60 5q16 0 89 -2q4 -4 10 -7q25 -25 37 -47l-21 -22q1 -6 11 -5t10 -7q-59 -59 -109 -78q-31 2 -53 11t-110 9q4 -760 32 -1288
q45 2 89 7t104 3q30 -24 47 -55q-14 -14 -21 -23q1 -4 11 -3t10 -9q-55 -55 -109 -78q-33 3 -55 13t-108 10z" />
    <glyph glyph-name="backslash" unicode="\" horiz-adv-x="897" 
d="M762 -188q-49 49 -92 139q-18 18 -8 26q18 -36 27 -38t18 -2q-11 27 -55 83t-58 101q-2 0 -7 4t-12 -2q-4 18 0 29q-19 11 -30 48q-12 36 -17 46q-51 72 -244 516q-194 444 -214 528q-12 25 -36 61t-38 101q16 6 21 12t2 52t-3 53q25 29 30 20q18 -30 36 -45
q-6 -6 -10 -4t-6 0t0 -10t11 -7t11 -1q8 -45 18 -70t21 -66q29 -26 41 -56q12 -31 22 -67t12 -39t128 -254q366 -734 362 -780q12 -18 68 -121t76 -132q18 5 31 -5t17 -22t11 -43q-27 -37 -42 -40t-29 5t-62 -20z" />
    <glyph glyph-name="bracketright" unicode="]" horiz-adv-x="456" 
d="M125 1565q16 0 61 -5q44 -6 110 -10t100 -24t1 -66l11 -18q-6 -4 -11 -10q4 -109 2 -595t-6 -733q35 -25 4 -67l11 -19l-11 -10l-6 -12q-2 0 -6 -8q-10 2 -115 6h-8q-88 0 -110 -10t-54 -13q-53 23 -108 78q4 12 20 12q-6 9 -20 23q17 31 47 55q59 2 68 1l45 -5
q35 -4 79 -6q29 528 33 1288q-88 0 -110 -9t-54 -11q-49 18 -108 78q0 8 10 7t10 5l-20 22q13 26 29 39t18 15q72 2 88 2z" />
    <glyph glyph-name="asciicircum" unicode="^" horiz-adv-x="466" 
d="M383 1139h-14q-6 0 -11 2q-22 27 -76 97t-85 105l-11 -44q-23 -103 -68 -128q-22 -12 -52 -14q-4 2 -6 11q-1 9 -5 14q38 24 55 101t23 95q27 84 70 90q5 0 27 -9t30 -15q10 -10 20 -47t11 -42q25 -62 119 -181q8 -12 6 -21l-10 -10q-12 -4 -23 -4z" />
    <glyph glyph-name="underscore" unicode="_" horiz-adv-x="1253" 
d="M404 -2q6 0 114 6t190 8q83 2 128 -12q24 4 140 10t150 13q4 36 45 30q14 -2 43 -8q32 -55 13 -65q-7 -4 -15 -24t-4 -54q-60 -20 -114 -22t-59 -5q-19 -8 -19 6q43 -1 48 9t7 16q-29 0 -99 -14t-116 -11q0 -2 -5 -4t-3 -10q-16 0 -27 12q-16 -13 -54 -9q-38 5 -50 5
q-143 -27 -428 31l-115 -8q-25 0 -63 10q0 18 -9 27q-8 9 -46 23t-42 17q-8 19 -8 27t6 9t22 3t29 11q2 -3 -2 -11q-3 -8 7 -10t13 7t5 9l139 -22q43 19 108 10q65 -10 71 -10z" />
    <glyph glyph-name="grave" unicode="`" horiz-adv-x="344" 
d="M37 1438l6 26q23 6 55 -8t39 -16q0 2 -1 12t3 12q34 6 49 -20q6 -10 8 -14t8 -18q5 -14 16 -48q11 -32 79 -158l-35 -63q-45 25 -112 131q-4 8 -25 38t-41 70q-21 40 -49 56z" />
    <glyph glyph-name="a" unicode="a" horiz-adv-x="905" 
d="M368 582q-9 0 -6 12q-80 -24 -140 -108t-44 -212h25q27 14 53 58t35 55l-2 2l4 4h2q6 12 42 75t44 112q-4 2 -13 2zM946 666q14 8 33 -29q2 -14 -69 -265t-88 -301t-30 -105t-30 -70q-41 -33 -123 -20t-137 50q-55 70 -73 152q-17 82 -13 200t2 150q-151 -292 -182 -301
q-82 -20 -156 42q-151 127 -61 338q48 110 119 160t151 25q84 -53 125 -59q16 45 78 49t126 -31q66 -35 89 -92q4 -8 3 -21q-1 -14 1 -22t9 -20t9 -41t-5 -172t9 -174q55 59 156 397q9 32 31 90t26 70z" />
    <glyph glyph-name="b" unicode="b" horiz-adv-x="819" 
d="M561 172q-4 0 -9 -3t-5 3q4 0 2 4q57 70 83 205q25 135 9 268q-2 29 -23 53q-36 18 -60 -9q-14 -14 -23 -28q-9 -13 -13 -17l-20 -20q-16 -14 -20 -24t-9 -40q-3 -30 -25 -77t-71 -192q2 -18 -5 -94t9 -99q12 -4 17 4t16 7q29 -17 42 -17t37 14t35 17q4 4 -2 14t-2 17
q8 4 22 1q14 -4 15 13zM0 600l12 84v2q16 27 19 145q4 117 9 162t43 227t51 215t21 64q15 61 37 61q12 0 81 -10q70 -9 109 -30q40 -21 84 -79t15 -79q17 -10 11 -42t-5 -42q-35 -96 -71 -280t-36 -231q-1 -46 4 -91t-9 -76q0 -10 6 -21t5 -17t-14 -33q-13 -28 -12 -48
q14 18 43 86t66 117q36 49 54 59q49 28 83 26q33 -3 64 -13q92 -78 75 -344q1 -12 3 -66t-5 -61q0 -6 -12 -20t-9 -34t3 -24q-18 -53 -51 -94q-92 -111 -185 -109q-10 0 -46 18t-47 14q-25 -7 -25 -51l4 -55q-299 -76 -346 168q-16 90 -23 379q4 0 3 11q-1 10 -2 50t-7 62z
" />
    <glyph glyph-name="c" unicode="c" horiz-adv-x="735" 
d="M756 666q4 -4 9 -5t25 -22t16 -45q-5 -24 -43 -123q-38 -100 -32 -133q-13 -26 -62 -141t-126 -210q-47 -57 -137 -98q-44 -18 -90 -14t-105 16q-104 47 -160 164q-55 117 -51 250q0 13 25 153t16 171q2 2 7 11t15 9q-8 7 -7 15t-3 18q44 102 81 146q36 45 73 67
q242 -8 352 -129q98 -244 4 -387q-24 -6 -42 10q-19 16 -25 19q4 162 -11 225q-41 -47 -75 -161t-28 -252q5 -138 69 -220q35 0 63 51q58 105 141 318q82 212 101 297z" />
    <glyph glyph-name="d" unicode="d" horiz-adv-x="802" 
d="M344 614q0 27 2 41q-109 -20 -158 -118t15 -211q2 8 12 1t14 -5q74 82 115 225q0 10 -10 17t-10 18q8 0 6 14t6 14q6 -10 1 -22t-5 -17q12 16 12 43zM365 196q0 31 -13 42q-2 8 6 16t4 18q-6 10 -9 22t-7 17q-20 -49 -88 -59t-138 20t-100 90v3q-8 25 -20 34
q7 179 23 214t34 65q31 51 119 70q8 4 8 10t6 10q6 2 8 0t0 -8q-3 -6 7 -6q18 -4 8 6q-2 6 -4 8q51 -8 156 -59q4 14 8 70t20 77l-12 45q43 299 123 428q42 0 66 -6t54 -13q30 -8 41 -16t36 -25t38 -69q6 -51 2 -79t-17 -83t-31 -232q-19 -177 -17 -201t0 -33t-11 -48
t-10 -65l-2 -149q0 -75 21 -142q147 147 184 498q29 4 62 -25q10 0 -12 -128t-64 -279t-86 -199q-4 -18 0 -33q-96 -76 -183 -80q-12 6 -57 26t-65 38q-88 145 -88 210z" />
    <glyph glyph-name="e" unicode="e" horiz-adv-x="702" 
d="M451 555q-51 -31 -71 -91t-34 -159q121 33 105 250zM858 674q18 -22 12 -48t-50 -124t-42 -131q-8 -13 -50 -107t-81 -135q-66 -104 -117 -145t-114 -52q-109 -24 -194 10t-129 104t-70 159q-40 134 -7 356q8 35 32 92t42 84q45 59 131 46t173 -61t130 -97
q70 -176 8 -275q-4 -6 -21 -15t-29 -37q-13 -28 -22 -35q-8 -7 -26 -13t-50 -11t-36 -8q-4 -154 72 -206h6q3 -3 21 -10t39 1t26 28q0 -1 -2 -1q4 4 8 12q10 2 42 41t42 60q135 233 225 542q5 -4 9 -5t22 -19z" />
    <glyph glyph-name="f" unicode="f" horiz-adv-x="849" 
d="M401 295q2 4 23 28q20 24 27 41q6 17 2 44q31 37 22 259q-8 222 -29 289q-27 -165 -45 -661zM444 -369q-9 9 -10 11q37 94 32 265t-67 279q-20 -24 -26 -98t-19 -98q0 -111 -32 -303l12 -25q-19 -34 -14 -74q4 -40 12 -86t10 -57q13 -3 15 -22q3 -19 12 -23
q12 -27 24 -18q-12 8 -16 14h10q6 0 10 6q2 -2 6 -2q-3 8 -1 12t4 19q2 14 17 72t15 122zM934 672q45 0 35 -86q-4 -35 -2 -41l-9 14q-12 -101 -54 -188t-87 -141t-121 -87t-168 -20q80 -387 39 -594q-4 -27 -15 -112t-35 -137q-23 -52 -75 -81q-13 -6 -44 -26
q-63 -39 -114 -44q-51 -6 -80 5q-30 10 -57 26q-105 135 -127 308q-22 174 -16 300t2 218q8 20 -1 72t-1 157q10 14 21 16q-2 84 24 322q27 238 39 296t24 162t42 158q-8 15 -6 33t-5 31q98 12 267 -84q82 -88 116 -296t6 -394q-27 -186 -100 -223q16 0 53 -24t58 -26
q96 -8 169 47t103 123q31 68 55 138q25 70 33 77q0 99 31 101z" />
    <glyph glyph-name="g" unicode="g" horiz-adv-x="808" 
d="M104 -474q66 62 111 145t51 89q84 254 99 437q4 94 4 153t-11 228q-18 -23 -51 -94q-33 -70 -76 -104t-125 -32q-82 29 -100 137q-25 131 51 235t211 85q12 -1 58 -21t77 -10q-4 10 9 10q2 -4 -4 -4q4 -8 7 -6t11 9t14 8q78 0 146 -35t88 -94q10 -24 24 -116t12 -178
t-2 -156q-3 -238 -32 -284q14 -102 -76 -309q-6 -12 -13 -47q-14 -72 -61 -86q-4 -33 -48 -89q-44 -57 -206 -107t-288 -42t-197 60q-6 4 -17 19q-10 15 -18 21t-23 9q-15 4 -20 8q-12 12 -41 55t-33 60q-14 45 19 92l24 -12q16 -8 25 -13q6 -33 52 -81t93 -21q32 18 111 18
q79 1 145 63zM315 662q0 13 9 11t18 3q-4 12 3 25t5 24q-142 16 -204 -69t-17 -240q6 0 11 -8t14 -7q42 18 90 105t64 138q0 -2 2 -6t10 10t4 14h-9zM308 644q0 1 1 3q0 -1 -1 -3z" />
    <glyph glyph-name="h" unicode="h" horiz-adv-x="858" 
d="M635 340q0 -16 -4 -49t-3 -47q3 -47 48 -72q45 20 84 109q76 160 149 378q4 6 13 7h4q8 0 8 -9l-16 -59l-138 -430q-51 -60 -142 -32t-122 110q-26 98 -18 162t25 147q17 84 16 123q-20 2 -49 -31t-55 -86q-27 -53 -38 -69q5 -40 -27 -102t-38 -96t-6 -185l4 -70
q0 -32 -25 -44q-25 -11 -103 -14t-116 9q-18 8 -42 30t-38 25q-12 94 3 267t9 249q14 106 46 420t77 532q-6 31 -6 35q121 14 195 -14q4 -31 41 -80q2 -23 -6 -76t10 -75q-19 -49 -19 -179t-18 -180q10 -45 8 -70q-2 -24 -8 -66t-4 -138t-8 -140q27 16 60 83q34 67 82 101
t130 9q55 -55 52 -113q-1 -20 -12 -75t-7 -117t4 -78z" />
    <glyph glyph-name="i" unicode="i" horiz-adv-x="638" 
d="M742 666h20q8 -44 8 -58t-8 -49t-10 -45q-8 -63 -163 -358t-198 -340q-240 -29 -293 112q-4 14 -21 47t-21 45t-9 59q-6 48 -22 71q8 47 -8 93q-15 45 -11 77t2 32q-6 -2 -8 2q14 72 14 123q10 12 6 33q31 154 41 178q150 -2 299 -137q20 -57 9 -148q-14 -59 -4 -182
t43 -194q53 51 98 132t100 211t68 154q-10 6 -8 16q2 9 -2 17q4 0 10 -2t10 -2q-13 34 -5 48q7 13 21 11q-14 14 -13 20t9 21q8 14 9 23q31 -10 37 -10zM91 964l26 171q12 0 29 19t24 24q47 -6 176 -43q4 -5 8 -13t8 -14t5 -23q66 -41 88 -73q-6 -16 -36 -79t-29 -96
q1 -32 3 -71q-25 6 -87 17t-95 19q-92 21 -143 81q2 8 16 0t25 -4q-18 59 -18 85z" />
    <glyph glyph-name="j" unicode="j" horiz-adv-x="477" 
d="M-633 -500l64 4q127 -94 197 -103t161 71q41 35 79 88t93 221q4 14 10 52t19 68q14 30 16 46q27 219 12 360q-6 70 -2 121q11 143 -20 242q10 -4 33 -1t32 -3q5 16 19 19t42 -1t40 -4q10 -16 46 -32t42 -23q6 -6 14 -26t41 -50t44 -78q11 -49 18 -184l16 -119
q4 -201 -27 -306t-39 -194q-37 -43 -77 -148t-68 -143q-16 -2 -40 -20t-44 -14q-6 -5 -15 -17t-14 -18q-213 -70 -337 -63t-221 73t-134 182zM253 1208q5 0 52 -20q10 -104 -6 -303q-268 -39 -356 53q-2 90 22 172q23 82 41 97t51 15t69 -1q36 -2 70 2t46 0v-2q6 -13 11 -13
z" />
    <glyph glyph-name="k" unicode="k" horiz-adv-x="954" 
d="M404 948q-6 -68 -5 -102q0 -34 6 -119q6 -86 -20 -137q10 -27 1 -77t-7 -71q8 10 76 119t123 148q68 1 83 -7t32 -27t28 -26q39 -139 3 -229t-136 -129q4 -15 13 -111t32 -151t76 -82q90 20 167 170q76 149 110 299t26 205q-2 6 -2 14v8q0 15 37 21q4 2 10 2t10 -4
q0 -153 -80 -405q-39 -126 -107 -227q-68 -100 -149 -118t-147 48t-95 160q-29 95 -20 179q0 10 -9 15t-9 16q59 2 91 21t52 71q47 115 33 227q-59 -17 -95 -77t-64 -134q-30 -74 -67 -108q-33 -117 -49 -389q-26 1 -62 -13t-54 -16t-58 14l-67 -4q-2 2 -41 25q-2 6 0 7
t12 1q-64 47 -74 117q-10 69 -6 129q4 61 4 78q6 6 4 43q-2 36 1 64t1 38q2 0 2 -2q10 62 14 246t31 266q-12 53 12 148q23 94 25 114t1 62t3 58t15 50q10 33 13 49t-1 55q37 -4 97 -24t98 -25q28 -21 34 -46t10 -53q5 -42 23 -129t19 -132q2 -45 -4 -113z" />
    <glyph glyph-name="l" unicode="l" horiz-adv-x="671" 
d="M750 666q6 0 10 -4q6 -86 -30 -282t-99 -325q-8 -24 -8 -41q-17 -25 -53 -86t-60 -94q-24 -34 -78 -64q-53 -30 -125 -30q-8 10 6 10h35q-14 10 -34 8t-27 -14q-8 2 -11 4q-2 2 -1 7t-1 9q-129 6 -187 144q-30 72 -52 164q8 8 0 23q-7 15 -15 59t-20 67q6 -2 16 -20
q12 270 21 420q8 149 34 377t64 388q12 51 43 84q334 -72 338 -311q-57 -113 -85 -284t-48 -433q-13 -52 -21 -162t-18 -153q2 -4 14 -60q28 -130 64 -151q4 0 8 -4q2 2 7 2t7 2q74 27 138 161q63 134 100 297t23 261v8q-2 14 34 21q5 2 11 2z" />
    <glyph glyph-name="m" unicode="m" horiz-adv-x="1394" 
d="M1446 688q0 17 51 23l4 -4q2 -99 -60 -321t-151 -347q-2 -2 -7 -8t-7 -8q-6 -70 -35 -97q-10 -8 -19 -24t-47 -40t-51 -36q-111 -6 -251 62q-50 24 -52 26q-32 178 21 440q18 89 21 113q3 23 13 79t9 70v74q-2 8 -9 3q-6 -5 -8 2t0 10q2 -1 8 -3q12 -5 3 13
q-25 -4 -49 -51t-37 -58q-19 -57 -67 -173t-71 -179q-3 -10 7 -16t9 -12q-8 -42 -20 -50q-23 -4 -45 9t-31 16q-37 63 -52 127t-25 153q-10 90 -19 133q-122 -223 -141 -364q-19 -140 18 -301q-176 -35 -303 10q-45 57 -52 141t4 143t18 70q0 8 -3 28t13 28q-24 17 -14 72
t10 69q16 66 -6 117q14 203 22 260q33 -23 138 -51t143 -72q6 -88 5 -121t-11 -103t-13 -102q27 33 70 148t86 157q70 0 98 -18q35 -94 40 -149q15 -161 20 -193q21 14 27 51q7 38 15 59t48 78q35 145 129 197q30 -12 102 -26t107 -37q12 -8 63 -99q57 -113 53 -164
q-25 -84 -29 -258t-10 -221v-4q23 -6 29 16l209 404q11 40 29 85q18 46 23 61t14 39q8 24 9 31t6 27t3 22t-2 16v28z" />
    <glyph glyph-name="n" unicode="n" horiz-adv-x="827" 
d="M383 487q0 -23 -8 -69q8 14 55 76t81 110q34 49 71 61q37 11 81 -12t60 -59q12 -45 7 -73t-20 -93t-8 -85q7 -21 5 -30l-5 -190q25 -16 37 -8t15 18q2 10 5 32q3 21 19 47t71 228q56 202 66 226q43 -41 19 -121q-66 -118 -99 -350q-11 -70 -59 -117t-137 -35
q-54 7 -56 39q-1 12 -2 42t-6 52q-14 78 13 223t24 185q-25 -4 -37 -19q-12 -14 -16 -18t-14 -23l-10 -18q-100 -166 -154 -316q-25 -166 -29 -327q6 -9 10 -17t13 -14q-140 -46 -254 -1q-63 26 -92 85q-19 37 -25 100q-6 62 -4 70t6 9t9 3t5 35q12 53 -12 135q2 18 14 50
q11 32 16 54t9 122q6 6 6 11t-4 17v4q2 4 2 10t-8 13l31 102l-6 46q0 11 10 18q12 2 38 -9q26 -12 39 -16t19 10l2 2l2 -2q10 -4 4 -10q57 -37 185 -84q-6 -20 -3 -32t25 -21q-6 -43 -6 -66z" />
    <glyph glyph-name="o" unicode="o" horiz-adv-x="653" 
d="M311 135q25 -45 76 -6q110 81 92 320q-53 11 -99 50q-46 38 -56 44q-64 -104 -57 -255q5 -83 44 -153zM449 532q-19 53 -47 77t-52 -13q54 -46 99 -64zM573 430q-4 -27 -27 -111t-21 -103q1 -19 0 -21q-1 -3 -12 -13t-18 -36t-38 -69q-31 -42 -73 -59q-43 -16 -67 -16
l-53 10q21 0 -34 10q-56 10 -92 34q-64 43 -84 111q-21 68 -34 165t-20 143v8q36 181 157 220q76 24 175 -4q20 -5 66 -20t57 -17q57 -59 102 -179q68 0 158 133q33 49 43 56q2 -2 16 -6q-4 0 6 -17t6 -24q-31 -79 -86 -137t-127 -58z" />
    <glyph glyph-name="p" unicode="p" horiz-adv-x="872" 
d="M607 217q30 81 36 151t-14 189q-7 -2 -15 5t-18 3l-24 -36t-27 -39q-5 -10 -23 -36t-25 -40t-21 -40t-18 -45q-5 -19 -15 -49t-15 -102q12 -2 45 -30t69 -20t65 89zM465 140q0 14 -23 14q-4 -12 11 -17q12 -2 12 3zM340 -776q10 -12 10 -40t-24 -63q-44 -25 -148 -9
t-137 63q-8 9 -14 33t-21 36q2 10 -1 64t7 53q-25 156 0 305q4 25 18 115t15 220q0 131 10 155t13 32q2 27 1 105t5 104q8 18 2 45l-2 2q0 50 16 134t19 127q102 20 247 -66q31 -53 34 -143t7 -111q16 20 52 98q35 78 76 117q42 39 118 34t127 -48q47 -80 54 -177t-40 -143
q-4 -135 -118 -250q-139 -14 -246 78q-16 -22 -24 -88t-21 -88q-2 4 1 10t-1 15q-10 -35 8 -133q-20 -29 -2 -113q-13 -57 -21 -197t-14 -178q6 -14 4 -38t3 -39t1 -18t-14 -3z" />
    <glyph glyph-name="q" unicode="q" horiz-adv-x="1153" 
d="M8 368q0 -4 2 -6q2 2 0 11q-4 0 -6 2q4 -3 4 -7zM1083 444q0 2 -1 2t2 4t-1 7q0 -2 -2 -4q-4 0 -4 -2q2 0 2 -5l2 -2h2zM289 528l8 -14l-80 -6q-8 -4 -22 -22t-27 -21q2 -9 -9 -21t-7 -24q-6 -2 -8 -16t-9 -17q2 -13 -2 -33t6 -28q0 -80 29 -111q37 37 66 94q28 56 34 66
q8 0 8 2l-2 10q17 4 22 28q5 23 9 29q2 0 6 -2q2 16 30 41t34 37q-23 8 -86 8zM1055 395h6q-2 11 7 25t3 26q10 10 14 37q6 0 10 7q5 7 11 10l-4 -8q25 14 39 45q10 0 16 4q-6 2 -2 20h31q16 0 16 12q49 -10 55 -14q-10 -35 -57 -98q-8 -45 -46 -114t-46 -111
q-12 -6 -10 -21q-4 -8 -22 -36t-21 -37q-4 -9 -7 -23t-12 -19q0 -10 -9 -27t-5 -32l-102 -231q8 -33 -15 -56q2 -4 5 -4t5 -2q-12 -2 -20 -24q-18 -68 -31 -89q-4 -84 -24 -120q2 -23 -12 -57q-13 -34 -18 -49q-1 -3 -3 -1q2 -12 6 -33q2 6 4 0q2 -12 4 -12q-8 -8 -12 -35
t-14 -33q6 -20 -11 -32q0 -14 4 -17q-4 -6 -22 -11t-28 -11t-5 -21q-2 -2 -10 2q-57 -37 -98 -45q-2 -2 -9 -16q-35 8 -49 -6q0 -18 -2 -21q-6 0 -10 13q-14 2 -41 -3t-41 -3t-43 18q-29 14 -43 16q-2 6 -1 9t1 6h-6q-2 0 0 -2t-2 -5q-10 10 -10 11q4 23 -2 39q10 26 -3 94
t-12 92l10 104q10 106 5 154q8 12 4 39q6 9 1 25t5 20l-6 12l8 17q-2 8 -4 11t4 3l4 92q0 92 8 123l-6 10q6 4 7 16t-5 13q8 67 14 154q6 -10 11 0q-5 5 -9 2v43q1 0 3 3t6 1l-9 4q0 8 11 24q-2 4 -4 2t-2 0q-2 14 4 21q-2 12 5 47t-3 41l-37 -37q0 -2 2 -4t-3 -7t-5 -21
t-6 -23q-3 0 -4 2q3 -23 -23 -29l6 -10q-6 -6 -18 -26t-23 -25q-2 -3 -2 -11t-10 -8q0 -8 -2 -8l-4 4q-3 -10 -11 -19t-19 -21t-32 -21q-113 25 -145 45l-8 16q-14 12 -27 43q-12 31 -25 43q0 8 2 8q-2 4 -6 5q-2 -2 -4 4q8 2 4 14t2 16q-18 23 -4 41q0 2 -4 2t-4 4
q-10 53 8 82v-2q0 -2 2 -4q4 0 6 4l-10 11q2 0 2 3t4 1q0 18 9 20q12 59 51 107h6l16 16h11q0 2 4 10q98 31 137 -10q6 4 23 -3t26 -1q4 -4 49 -10t43 -11h17q11 5 4 19q4 2 17 16t36 13l6 8q41 -8 61 -15l5 -10q12 -14 56 -28t56 -31q25 -12 99 -82v-21q2 -2 5 -13t9 -15
q2 -8 1 -28t3 -26q-4 2 -4 0l-2 -4q4 -16 -2 -22q39 -39 20 -74q0 -2 8 -2q-2 -10 -3 -43t-11 -49q2 -4 4 -2t4 0q-4 -25 1 -74q5 -50 5 -62t-7 -52t1 -169q20 35 17 52q4 6 9 9t3 8t-2 7q10 1 10 11v12h2l4 -2q6 10 15 30q8 20 14 33h-2q0 31 12 39q-4 28 28 57q-3 -2 -3 5
q0 14 10 6q-10 19 10 24l-2 15q7 7 19 31t22 30v4q0 8 4 6l6 25q20 25 49 79q28 54 37 70v17q13 6 13 20z" />
    <glyph glyph-name="r" unicode="r" horiz-adv-x="780" 
d="M973 223l-12 -63q-1 -42 -145 -232t-173 -256q-16 -37 -86 -38q-69 -1 -147 25t-143 69t-71 74t3 110q8 162 75 393q6 20 23 70t12 57q-16 29 -111 44t-116 46q-68 109 -80 246t39 186q21 -8 71 -20q103 -24 140 -74q16 -45 5 -132t17 -142q44 -44 134 -54t158 -24
t87 -72q4 -23 3 -36q-2 -13 -30 -115q-142 -507 -71 -549q23 39 109 137t149 219t96 299q-12 25 -12 48l6 87q23 0 37 -14h2q6 -8 14 -25q27 -41 29 -59h2q-20 -53 -14 -205z" />
    <glyph glyph-name="s" unicode="s" horiz-adv-x="663" 
d="M98 -252q88 133 43 442q-2 0 -6 4t-8 3q-88 -75 -142 -196t9 -294q6 -6 19 -2t20 3t20 8q15 10 27 19t18 13zM399 281q72 -111 85 -267q12 -156 -24 -276t-103 -160q-67 -39 -170 -37t-183 43q-14 8 -46 33t-52 29l-2 37q-25 18 -44 103q-20 84 -18 106t10 53t4 38
q7 -5 9 3t-4 16q20 24 68 94q47 70 93 114t103 62q-12 31 -43 99t-39 129t-18 71q-35 121 26 240q4 35 25 46t35 20q59 31 130 11t103 -71q56 -94 -16 -172q-18 -45 -56 -86q15 -69 52 -126q37 -56 43 -85q111 33 233 117t164 147q8 -6 8 -24q4 -16 -43 -68t-139 -120
q-92 -70 -191 -119zM-144 -17q-1 2 -3 3q1 -2 3 -3z" />
    <glyph glyph-name="t" unicode="t" horiz-adv-x="692" 
d="M26 530q-9 0 -10 7q6 20 2 43q-12 67 13 79q-12 43 -11 71q2 28 10 76q7 48 7 75q-59 2 -181 -4t-196 -3q-8 8 -33 30t-37 36h130q51 0 139 2t182 27q2 78 26 253t20 219q-4 43 15 68q266 -37 297 -172q10 -43 -9 -161t1 -179q53 -8 103 -2q132 16 186 -30q12 -4 30 2
t25 -2q-20 -35 -85 -44q-64 -9 -130 -3t-127 -3q-12 -235 27 -483q10 -54 7 -104l-9 -150t-4 -213q41 32 88 164q46 133 68 169t58 112t77 162t47 100q18 0 30 -29q59 25 64 25q-14 -78 -112 -308t-107 -256q-59 -162 -183 -329q-91 -138 -301 -51q-71 30 -99 70t-36 137
t-12 114q20 -20 23 -64t10 -55q4 29 0 87t-4 81q-7 4 -11 -3t-6 -20t-4 -16q-14 205 33 334h-2q10 31 -6 86q0 2 2 2q-4 11 4 21t4 24q2 6 -1 7t-12 1z" />
    <glyph glyph-name="u" unicode="u" horiz-adv-x="800" 
d="M541 604l4 -69q-4 -39 -1 -73t-5 -113t-5 -113t15 -82t14 -72q29 -2 46 22t28 27q16 49 90 227q73 178 87 216t30 94q10 -17 27 -15q16 2 21 -5t3 -23q-16 -147 -164 -445q-10 -18 -34 -62t-58 -110q-37 -16 -51 -63q-39 -25 -114 -24t-114 34q2 14 -17 38
q-45 57 -57 156q-11 99 3 150q-14 18 -17 49q-12 -62 -101 -76t-140 56q-35 52 -41 118t4 110t35 112t28 84q61 -23 95 -50q-6 -30 -22 -82t-26 -86q-23 -92 13 -186q2 0 18 -6t31 6l4 43q28 17 56 69t48 70q2 23 21 64q18 41 16 74q8 6 58 77q53 -2 110 -21t72 -52
q4 -12 -3 -35t-7 -33z" />
    <glyph glyph-name="v" unicode="v" horiz-adv-x="606" 
d="M317 637q47 -43 99 -64q-23 53 -47 76q-25 23 -52 -12zM287 -61v-7h2q23 -6 28 17l80 254q13 26 13 39q39 125 53 241q-67 15 -117 55q-49 40 -57 46l-6 -13q-26 100 22 124q14 7 37 13t31 9q8 -4 24 -9t25 -8q57 -57 96 -161q2 -1 2 -7t2 -8q71 0 137 101q25 37 37 43
q8 -4 15 -4v-9q14 -29 12 -34q-27 -74 -69 -113t-115 -39q0 -2 -25 2q-29 -408 -201 -653q-2 -4 -9 -9t-9 -8q-45 10 -115 33q-12 12 -34 46t-62 48q-4 6 3 10t1 13q-6 8 -6 2q-2 -8 -10 0q2 55 -28 185t-28 198h-2q-2 -2 -4 -2l-10 69q0 21 12 67t45 206q43 -6 64 -31
q27 10 57 -3t45 -40q-53 -227 60 -614q4 -4 6 -4q-2 -14 -2 -45z" />
    <glyph glyph-name="w" unicode="w" horiz-adv-x="993" 
d="M51 55q-2 3 -3 15t-4 19t-11 5q4 -35 18 -39zM27 483q-14 -14 -18 -60q-5 -46 -7 -58q-6 45 7 129t14 122q-6 6 -6 2q1 -4 -2 -10t-11 -2q2 8 11 32t8 42q20 -2 45 11t43 14q33 -10 92 -40t92 -40q2 -45 -15 -122q-16 -77 -14 -107t-1 -34t-11 -2q0 -8 9 -14t7 -16
q-16 -106 4 -285q53 49 129 329q41 146 72 218q-2 12 8 49q41 -6 62 14q6 -6 20 -11t19 -9q2 -16 6 -128q4 -113 22 -181t66 -109q-12 0 -12 -4q18 -2 29 11t21 39q9 26 15 34q-16 29 4 88q-4 31 -11 109t-16 116q-8 39 -18 49t-10 25q16 8 44 5q29 -3 34 5q18 -6 51 -9
t53 -19q27 -29 42 -139t65 -128q94 66 123 265q45 4 63 4q-8 -86 -36 -178t-72 -130q-15 -14 -47 -22t-54 2q-2 -4 -4 -9t-24 5q-6 -55 -80 -172q-2 -2 -10 -16q-12 -19 -22 -28q-10 -10 -38 -16q-129 -16 -242 177q0 10 2 20t-6 25q-20 -14 -34 -62t-27 -65
q-2 -61 -26 -109q-23 -48 -67 -102q-44 -55 -59 -80q-87 -41 -155 -7t-111 119q2 18 -14 56t-19 49q16 -10 19 -10q-25 233 -2 368z" />
    <glyph glyph-name="x" unicode="x" horiz-adv-x="684" 
d="M422 417q0 -5 -4 -11t0 -15q12 25 0 43q12 -4 16 -4l-6 25h14q20 63 75 183q54 120 75 189q4 3 19 13t26 12q2 -37 2 -47t-12 -49q-11 -39 -17 -60q-6 -20 -32 -66t-36 -64q-8 -18 -20 -82t-19 -82t-27 -45q-20 -28 -23 -50q27 -43 121 -199t165 -239q47 6 90 -53
q-9 -6 -19 2q-11 8 -17 8q3 -6 27 -33t24 -57q-25 -6 -63 -32q-37 -26 -63 -33t-97 1q-135 166 -275 443q-28 -21 -68 -107t-72 -105q-59 -35 -129 -24q-26 4 -77 15q16 35 117 34q6 9 25 17t14 22q22 -11 25 20q1 11 4 18t12 1q0 10 -13 10q22 8 53 62q31 53 42 67
q-5 8 -11 0t-8 0q-6 9 2 11t6 8q4 0 8 -14q8 -2 12 6t9 8q-25 57 -94 189q-70 132 -101 204q-8 8 -28 25q-8 53 -49 69q-2 12 -9 25q157 0 220 -10q18 -27 72 -96t83 -146q19 -19 21 0q10 -2 10 -7z" />
    <glyph glyph-name="y" unicode="y" horiz-adv-x="761" 
d="M-103 -517h-2h2zM643 -155q0 -23 -4 -33q-78 -242 -152 -314q-51 -51 -161 -100q-110 -50 -199 -62q-88 -12 -185 4t-159 44q-4 2 -7 9t-5 8t-11 -7q0 4 -22 31q-8 0 -22 6t-29 2q10 27 -2 53t-11 37q41 25 124 -19t132 -26q-7 7 -33 5q149 11 191 34q10 0 6 24
q94 68 153 185q58 117 62 254q9 6 13 34t12 33q-4 51 6 159t0 167q-12 -6 -42 -52t-60 -57q-92 -10 -149 25q-56 35 -73 89q-41 138 37 367q35 14 90 -4q9 -27 9 -37t-10 -32q-10 -23 -13 -35q-41 -236 57 -324q31 10 21 54q12 3 12 -15q23 14 10 35q8 -6 23 4q2 4 42 74
t50 115q-6 28 -7 76t9 65q52 39 146 8t118 -91t36 -166q13 -106 5 -148q3 -48 19 -152t13 -146t-21 -100t-19 -81z" />
    <glyph glyph-name="z" unicode="z" horiz-adv-x="997" 
d="M274 -420q33 14 57 47t28 50q5 17 27 85t-7 152q-4 6 -12 4q-139 -111 -185 -215q-51 -135 8 -186q28 -6 56 17t28 46zM944 609q-12 -29 -40 -105t-43 -100t-40 -46q-25 -20 -34 -32t-37 -50t-52 -70q-25 -33 -77 -67q6 -10 25 -39q91 -139 98 -228q2 -40 12 -89t11 -83
t-15 -106t-19 -88q-8 -8 -38 -53t-47 -59t-42 -40t-41 -39q-46 -37 -121 -26q-10 3 -34 15t-33 16q-216 77 -253 118q-25 25 -48 30q-32 82 -8 154q2 9 18 49t16 42q68 180 248 295q-43 93 -171 172q-26 16 -77 43t-71 39l6 23q0 4 -6 12q25 8 30 35q53 4 93 39
q72 70 139 291q27 86 -2 147q-82 -9 -122 -63t-69 -148q-2 -2 -16 -5t-10 -20q-14 1 -36 19t-38 20q0 14 15 34t3 44q10 -2 16 4t6 7q1 1 -6 5t-5 15q29 2 44 22t9 45q8 4 75 42t124 42t128 -15t125 -72t56 -167t-33 -184q-6 -4 -29 -4q-8 -2 -2 -12t6 -17
q-57 -45 -112 -133q20 -16 67 -41t66 -39q57 58 193 230t151 219q12 2 41 19t63 6l6 -27q1 -8 0 -10t-5 0t-7 5q-9 7 -24 7t-27 -28z" />
    <glyph glyph-name="braceleft" unicode="{" horiz-adv-x="673" 
d="M510 1205q0 -69 -18 -115q20 -39 2 -101q14 -106 -27 -175t-143 -66q6 -10 25 -16t26 -11q103 -103 110 -174q5 -29 7 -85t8 -93q-16 -63 -22 -141t33 -176q38 -97 112 -163q12 -2 19 3t11 6q8 -12 9 -22l-9 -30q-68 -4 -117 27q-18 12 -52 34t-50 32q-8 12 -34 48
t-54 80t-41 76q-12 31 -23 87t8 156q19 101 -9 189q-37 51 -135 99t-109 55q-2 8 1 9t9 -1t9 -2t7 2q-4 13 -21 17t-22 14q12 12 52 14t60 7q38 10 71 87q14 36 22 48q-4 61 19 127l-11 22q12 18 7 88q-6 70 18 78q-23 47 -2 116q20 69 16 95q23 6 32 43t36 41q-2 8 -12 11
t-11 11q18 6 43 24t39 24q0 6 -8 8t-8 10q20 -6 41 3q20 10 16 20q6 6 12 1q6 -4 18 -14q11 -10 17 -10q20 16 91 -24q20 -11 28 -15q0 -25 25 -53l-45 4q-58 -20 -76 -76t-9 -120t9 -133z" />
    <glyph glyph-name="bar" unicode="|" horiz-adv-x="292" 
d="M184 1669q0 -26 15 -51q-5 -2 -13 2t-8 -8q-2 -8 7 -11t10 -6l-21 -139q21 -50 6 -147q-4 -25 -4 -31t20 -527t3 -618q2 -18 10 -137t16 -154q51 -3 25 -88q-54 -31 -66 -12q-12 24 -78 16q-27 74 -26 166q0 2 -5 14t7 13q0 -39 9 -46t15 -9q0 30 -15 100t-11 115
q-2 0 -4 6t-13 2q4 18 13 26q-13 16 -9 56q5 39 5 51q-18 100 -13 576q6 476 23 565l-10 112q0 25 10 64q16 0 20 2q16 16 30 53q13 37 18 43q34 19 34 2z" />
    <glyph glyph-name="braceright" unicode="}" horiz-adv-x="614" 
d="M293 1604l82 -48q-3 -8 -13 -11t-10 -11q27 -4 36 -41t32 -43q-4 -28 16 -96t-2 -115q25 -15 20 -77t5 -89l-10 -22q23 -66 18 -127q8 -12 22 -48q15 -36 33 -59t38 -28t60 -7t52 -14q-4 -10 -22 -14t-21 -17q2 -2 22 0q6 2 4 -8q-10 -8 -108 -55t-135 -99
q-29 -88 -10 -189q34 -179 -42 -295q-35 -58 -64 -99q-30 -41 -38 -53q-16 -10 -49 -32t-66 -43t-104 -18l-8 30q0 9 8 22q4 0 11 -6t20 -3q74 66 111 163q38 97 33 175t-21 142q6 37 8 93t6 85q10 72 110 174q5 4 25 10t27 17q-102 -2 -144 66q-41 69 -26 175q-18 61 2 101
q-33 86 -10 247q9 63 -9 119t-76 78q-8 0 -22 -3t-23 -1q25 29 25 53q37 18 51 27q48 28 68 12q7 0 24 14t23 9q-4 -9 16 -19t41 -4q0 -6 -8 -8t-8 -10z" />
    <glyph glyph-name="asciitilde" unicode="~" horiz-adv-x="571" 
d="M-2 1010v24q47 62 120 76t132 -45q100 -51 180 -41q0 32 54 49q26 8 34 12q18 -29 18 -44t-12 -46q-10 -31 -8 -51q-78 -80 -166 -41q-2 1 -14 3t-12 14q47 -27 57 0q-53 14 -113 57q0 -2 -5 0t-5 -2v-8q-18 14 -27 28q-18 1 -51 11t-47 12q-61 6 -108 -31l-19 -18
q-6 4 -14 0q0 35 3 35t3 6z" />
    <glyph glyph-name="exclamdown" unicode="&#xa1;" horiz-adv-x="487" 
d="M420 890q0 -26 -10 -97q12 -74 2 -210t-37 -225q-2 -20 0 -52t-15 -52q6 -6 11 -27q-11 2 -13 -4t-4 -6q0 -47 -28 -171t-33 -146q22 5 25 29q4 24 6 28q10 0 6 -12t-4 -15q-12 -98 -43 -166q-61 4 -149 77t-111 85q-12 84 32 88q6 27 43 137t45 146q-18 35 27 232
q45 196 45 204t-10 72t10 106q-4 37 -4 69t-8 69q2 2 11 6t7 13t-8 5t-12 -2q14 23 45 23t58 -13t44 -18q2 -4 13 -41t21 -46t28 -5q10 -55 10 -81zM389 1225q-61 16 -93 26t-75 36t-67 61q-2 45 20 54q23 10 27 38t6 75t20 72q-6 16 -3 38t1 34q13 -19 30 -11l21 11
q31 -39 74 -49q72 -138 36 -256q-13 -43 3 -129z" />
    <glyph glyph-name="cent" unicode="&#xa2;" horiz-adv-x="817" 
d="M215 215q-12 47 -35 90q-16 -31 35 -90zM170 403q0 25 -14 25q2 -4 4 -19t10 -18v12zM731 906q0 -50 -14 -95t-12 -63q2 -17 1 -21q-2 -4 -12 -9t-12 -9q-2 -5 3 -15t5 -12q-14 -27 -43 -40t-63 -1q39 94 16 303q-57 -12 -93 -48t-69 -94t-53 -83q-29 -92 -42 -159
q-13 -68 -8 -176t44 -206q8 -6 28 -29t46 -26l8 4q-3 8 -11 4t-12 2q2 6 12 5t15 -5q104 74 125 154q45 23 61 108q41 6 47 4q2 -20 17 -26q-37 -213 -264 -336q2 -9 12 -19t12 -22q-29 -58 -44 -204t-38 -208q-8 -2 -16 2t-17 2q-47 60 -30 184q6 42 -11 97l5 10t10 8
q-16 23 -8 66t2 65q-12 8 -60 28t-69 42q-100 88 -125 244t-4 309q45 268 182 422q38 14 94 95q16 24 54 40t87 0q55 147 37 436q109 8 172 -41q-2 -20 -5 -108t-32 -127q4 -61 0 -85t-19 -70t-19 -68q-5 -7 -13 -7t-12 -2q57 -30 96 -100t39 -120z" />
    <glyph glyph-name="sterling" unicode="&#xa3;" horiz-adv-x="1038" 
d="M825 1442q-18 16 -22 -2q2 0 9 1t13 1zM14 635l-37 8l-8 27q6 0 6 6h-4q-10 -8 -10 4q0 4 -12 8q-55 18 -55 64q-4 12 -9 20q63 21 162 21h47q58 4 78 6t23 14q12 57 18 77t12 42q5 23 9 30t13 34t29 65q20 39 33 68q11 28 17 37t38 65t49 71t26 22t15 16t28 23
q23 14 24 25q2 11 15 20q13 8 49 34q80 56 108 57q20 7 24 17t11 10q14 -6 20 -11t33 -10q63 -4 96 -24q63 -43 72 -47q15 -17 31 -17l20 -20q31 -39 27 -53t0 -27v-8q-4 -25 -2 -55t-3 -42t3 -16t-8 -26t-20 -32q-3 -11 -18 -33t-30 -28l-14 -14q-15 -15 -76 2q-6 4 -10 14
l-3 2q9 9 19 21t23 24t15 18t15 33q14 28 13 41t5 48t-14 86q-9 20 -32 20h-27q-12 2 -49 -12q-77 -43 -135 -109q-25 -25 -29 -45q-6 -10 -17 -21q-10 -11 -14 -25t-10 -24t-11 -20t-9 -15t-20 -40q-14 -35 -19 -53t-20 -65q-15 -46 -15 -52q0 -5 -10 -33t-11 -41h15
q49 6 90 -2q39 0 43 2h24l4 8q17 -10 38 -3t31 9t28 -12q16 -14 22 -22h2q-2 -3 2 -15t0 -18t-5 -20t-14 -27t-21 -23t-36 -10l-24 -2q0 2 -11 0t-15 -2t-15 4t-25 1t-26 -1h-35q-45 -4 -66 -4q0 6 -9 6t-13 -10q-18 -68 -14 -111l-3 -43q0 -20 -6 -31t6 -36q-2 -6 5 -27
q4 -31 -15 -43q-2 -2 0 -6l-6 -45l-12 -10q12 -16 4 -24t-12 -15q0 -43 -6 -51t-22 -40q-14 -32 -24 -48q-33 -57 -18 -58q25 -10 55 -18q29 -8 48 -15t65 -16q47 -10 78 -13t35 2t25 4t50 22q35 29 53 35q17 6 17 17v5q20 17 28 41t3 75q0 78 -49 115q6 6 6 10l2 2l55 6
l31 2l67 -12q47 -10 84 -57q56 -59 66 -150q6 -37 -23 -75q-14 -23 -47 -64q-14 -25 -30 -41t-19 -27q-4 -11 -22 -22l-25 -18q-25 -16 -43 -30t-62 -30q-45 -14 -51 -14h-2q-12 -6 -37 -9t-36 -10h-27q-25 -4 -42 -2t-63 2q-69 10 -112 31q-42 14 -65 27t-35 18
q-12 6 -29 19q-39 20 -39 22q0 3 -29 25h-2q-15 -6 -35 2t-32 12v2q-12 4 -26 4t-25 9t-31 14q-28 13 -57 17q-29 3 -43 6t-46 -1q-31 -4 -39 13q-12 16 -18 22q-4 11 3 21t13 26l-2 2q10 8 35 20t36 28t29 39t33 57t17 37t2 6q14 14 20 31t21 42q14 26 16 40t18 46t17 54
l12 49q10 25 9 31q0 6 2 28q2 23 4 30t-6 11t-11 0q-4 -4 -8 2q-10 6 -35 0t-35 -2q-25 -8 -43 -8z" />
    <glyph glyph-name="currency" unicode="&#xa4;" horiz-adv-x="868" 
d="M289 527q0 -22 -13 -21q4 -10 15 -65t43 -81q0 -4 -5 -2t-7 2q28 -32 58 -32t46 11t62 47t86 118q73 150 23 273q-26 60 -69 95q-138 4 -187 -100q-40 -86 -44 -221q-8 -2 -8 -24zM-63 1196l28 10q-2 12 -16 26t-12 21q67 5 115 -37t94 -108t85 -92q31 14 53 8t64 -26
t64 -21q8 4 -4 12q72 0 100 -47q16 0 49 -6t48 -7t36 9q0 8 -7 15t-5 16q47 23 109 101t120 99q-10 -69 -72 -163t-75 -125q61 -92 49 -181q-2 -4 -10 -15t-10 -31t-15 -81q-14 -60 -40 -129q-25 -69 -30 -84q80 -94 152 -249l-16 -23q-11 0 -27 12t-31 11q-20 37 -68 89
t-65 79q-28 -6 -56 -42t-57 -42q-8 -4 -13 4t-11 8q-67 -18 -143 -5t-127 50q-94 -121 -138 -158q-14 4 -37 18t-36 17q-2 8 6 15t2 20q66 27 134 99q20 22 30 28q-119 172 -112 372t122 283q-139 174 -227 250z" />
    <glyph glyph-name="yen" unicode="&#xa5;" horiz-adv-x="944" 
d="M401 72l-4 12q-2 0 -4 -2l-2 -12l2 -2v-2zM283 1200l-9 -18q2 0 15 4q-4 8 -6 14zM809 592l-31 -6v-4q20 -4 31 10zM238 1370v-22l18 -80q12 -41 14 -43v-4h4l-32 149h-4zM842 768l-121 -10q-16 0 -36 -4q-21 -4 -41 -6t-32 -5q-20 -4 -13 -14q7 -9 7 -45t-4 -66
q0 -10 10 -10q105 15 150 15q33 4 44 5q28 2 62 -32h-12v-4q8 -4 24 -16t25 -17q-2 -2 -2 -4h-6l-37 -10q-8 0 -14 -6q-6 10 -17 4l-36 -6h-31q-20 0 -29 -2l-67 -7q-10 -2 -32 -6t-32 -6q-12 0 -10 -14v-27q0 -29 -3 -37t-1 -20t-6 -29v-4q2 -2 2 -53l-6 -56l4 -90
q2 -18 2 -55v-25q0 -4 -4 -12t0 -14t10 -3t36 -7t36 -24t-3 -21t-9 -19t-9 -12l-109 -4h-40q-14 0 -39 -4l-60 -2h-63q-35 0 -51 -2q-28 5 -35 -7q-2 0 -2 -2l-4 -2q0 1 -5 9q-7 18 -29 10t-28 20q0 5 -20 25l28 2q18 4 22 10t11 6q18 -8 80 2q8 2 8 13v47l4 30q0 8 4 32
t2 35q-1 10 3 24t4 79q-6 19 0 82q-2 17 0 47t1 40q-2 23 -151 -5h-31q-44 -5 -84 -12q-1 13 -9 21t-19 30q-11 10 -11 26t15 23l2 -2h4l16 -16q6 -6 37 -6q29 4 59 6t47 5t50 7l61 6q18 2 21 27v27l-6 61q0 6 2 11t-3 9t-17 4t-19 1l-66 10h-16l-55 -6h-28q-26 0 -71 -15
q-17 16 -15 30t-18 42q12 16 28 5t59 -5q44 6 188 6q23 0 14 21q-2 8 -10 29t-14 58q-7 36 -19 66q-38 90 -52 161t-19 81t-11 34t-14 45q-9 23 -16 52t-12 41t-10 34t-8 30t-11 10q-8 0 -33 2t-36 0q-12 -2 -32 -1t-28 1h-2q-4 0 -5 -2q-24 -10 -52 38q-7 11 -11 17
q14 -6 22 1t18 2t28 -2t38 3h41l129 12q41 -2 91 11h6q32 8 57 8h12q51 4 68 4q16 0 42 -8t40 -26t-8 -31q-22 -14 -62 -21q-29 -6 -20 -37q2 -10 7 -33t7 -37l18 -98q4 -33 8 -48t6 -41q3 -26 7 -34t9 -34t16 -54q12 -27 19 -57t19 -50t17 -36v-11q0 -16 1 -21t9 -5l4 4
q17 66 52 139q37 77 60 149q22 71 32 91t12 26l6 25l51 133q0 3 3 17t-1 14q-39 10 -47 6q-2 4 -8 10t-4 9t-15 40l11 -4q14 -10 57 -10q36 6 66 6l18 -2l76 2l22 -4q37 -8 58 -29v-4q-53 -19 -57 -24q-5 -4 -13 -6t-21 0t-18 2l-29 2q-16 4 -16 -15q-8 -49 -30 -97t-27 -66
l-25 -62q-28 -58 -52 -117t-31 -71t-9 -16t-4 -12q-2 -7 -4 -13q-2 -7 -4 -13t-10 -21l-9 -19q2 -10 -8 -28t-10 -20l-4 -4q-5 -29 -14 -46t12 -17l90 -2l88 2h6q15 8 32 -2t23 -10t31 -15q-31 -8 -55 -8z" />
    <glyph glyph-name="brokenbar" unicode="&#xa6;" horiz-adv-x="292" 
d="M147 760q6 0 13 -12q14 -16 24 -46q12 -451 -2 -475q2 -19 10 -137t17 -153q52 -4 24 -89q-55 -32 -66 -11t-77 16q-27 74 -27 165q0 2 -5 14t8 13q0 -39 9 -46t15 -9q0 30 -15 100t-12 115q-2 0 -4 6t-12 2q4 18 12 27q-13 16 -8 55q4 39 4 51q-14 59 -14 340l16 49v4
q2 2 4 7q14 34 72 24l2 -2q2 0 7 -3t5 -5zM63 944q0 2 -1 2t-13 25q0 10 -6 22q8 424 23 494l-11 112q0 25 11 64q16 0 20 2q16 16 30 53q13 37 17 43q35 19 35 2q0 -25 14 -51q-6 -2 -13 2t-7 -8q-2 -8 7 -11t9 -5l-20 -140q21 -50 6 -147q-4 -25 -5 -34t13 -345
q-2 -2 -2 -10v-17q0 -6 -4 -18q-24 -35 -60 -47h-18l-2 2h-4q-2 0 -4 2h-2z" />
    <glyph glyph-name="section" unicode="&#xa7;" horiz-adv-x="958" 
d="M664 485q8 -4 17 -10t99 -51v-4l31 -37q94 39 94 53l15 86q0 30 -52 82q-10 16 -58 40t-64 30t-120 57q-105 51 -150 66t-87 34q-43 19 -49 19q-51 38 -100 65v5q-10 10 -15 20q-27 -12 -87 -46t-58 -44q0 -2 -5 -42t1 -61t53 -61q7 -10 61 -34q54 -25 68 -29t124 -46
t124 -47q57 -12 84 -20zM893 1223q1 -19 -17 -67t-26 -55t-18 -23q-41 -61 -99 -58q-13 0 -25 -2t-16 2q-16 20 -38 24t-27 19q-10 16 10 31q61 41 66 145q1 28 5 54q4 25 -12 42q-8 23 -28 64q-25 39 -31 45q-29 25 -47 29q-56 9 -76 -11h-2q-6 2 -16 -6t-22 -5t-15 -9
q-2 -20 -27 -27l-4 -2q-33 -65 -39 -89t-4 -64t5 -54q3 -16 7 -31t6 -25q3 -10 13 -24q10 -16 14 -24t34 -37t50 -43q21 -14 62 -32t57 -21q16 -2 120 -55t154 -83q49 -30 113 -94q10 -8 24 -39q14 -32 18 -38t13 -49q14 -63 -3 -97q-64 -135 -77 -149q-12 -20 -123 -76
q4 -12 5 -39q14 -30 14 -74q0 -46 5 -64t-2 -39t-7 -34t-25 -66q-25 -52 -55 -84l-62 -55q-35 -31 -57 -38t-38 -14t-25 -11l-25 -7q-4 -2 -12 -2h-13q-31 -8 -47 -4h-41q-16 10 -48 16t-47 10q-14 5 -24 9t-24 6q-17 2 -50 25t-51 36q-18 12 -34 37t-37 52l-6 28
q-23 91 -6 149q18 58 33 74t24 38q37 43 80 43l31 6q6 2 16 -10q10 -13 33 -15t31 -16t-11 -31q-45 -37 -55 -115q-2 -12 0 -34t2 -44q0 -21 9 -43q9 -21 33 -61q25 -41 40 -51q26 -23 64 -26t57 14l4 2q8 -4 17 7q10 11 22 8t12 9q2 23 25 31q4 0 6 2q2 8 20 54t12 94
q-6 47 -17 76q-11 28 -13 38t-13 24t-14 21l-20 21q-53 43 -75 56q-22 12 -63 26t-56 16t-151 58t-159 71q-66 45 -82 59t-36 44q-57 84 -52 163q0 7 5 21t10 30t9 22t23 54q21 47 25 57q4 9 70 53t108 64q-10 25 -6 60q-13 26 -10 67q4 41 2 68t7 49t14 45t54 88
q19 32 97 88q33 27 59 33q27 6 41 12t22 8l27 5h25q37 4 47 0h24q11 1 21 -7t42 -14t48 -15t38 -17t28 -9q6 -2 32 -24q4 -6 34 -28t41 -46t23 -44t13 -42l6 -41v-49z" />
    <glyph glyph-name="dieresis" unicode="&#xa8;" horiz-adv-x="520" 
d="M290 1205q-7 21 -7 53t20 64q20 31 25 40q14 0 18 -4q0 8 6 14t10 12t12 12t17 5q9 0 31 -8q26 -25 22 -101t-18 -90q-36 -37 -98 -24q-31 6 -38 27zM131 1390q8 12 21 11q14 0 34 -8q27 -25 23 -101q-5 -76 -19 -90t-40 -22t-58 -2q-31 6 -38 27t-7 54q1 33 21 64
q20 30 24 39q15 0 19 -4q0 8 6 14t14 18z" />
    <glyph glyph-name="copyright" unicode="&#xa9;" horiz-adv-x="1705" 
d="M862 371q-2 -3 -2 -7t-57 -4t-68 2q-53 8 -93 84t-53 163t-9 126t30 185q4 2 1 24t-3 25q25 94 70 174q6 2 10 2v4q-2 4 0 4q18 12 72 7t71 -17l7 -19l24 8t20 -4q14 -8 23 -8q7 -4 13 -13t8 -11q12 -40 12 -100l-4 -85q-10 0 -10 -12q-38 13 -36 92q1 35 -3 47
q-33 -18 -37 -82q-4 0 -4 -4t-4 -4q0 -20 -24 -147t-23 -158l8 -68q4 -111 47 -157q30 7 42 46q13 40 19 50q2 14 13 58q10 44 6 77q8 -2 14 3t16 1l11 -44q0 -5 -4 -19q4 -113 -29 -152q-2 -2 2 -10q-4 -4 -13 -16t-22 -26q-12 -14 -41 -15zM678 1243q-27 15 -79 29t-85 14
q-16 -38 -62 -106t-78 -123t-59 -161t-26 -239q0 -70 102 -305q43 -117 152 -165q109 -47 225 -33t215 48q98 34 135 70q41 44 78 176t49 254q47 494 -112 641q-344 156 -455 -100zM500 1438q95 -16 112 -33q29 77 118 101q155 41 422 -72q114 -50 200 -111
q113 -322 47 -819q-4 -49 -34 -124t-38 -112q-94 -258 -389 -258q-176 -6 -357 80t-323 227q-204 464 -38 794q52 103 120 178t160 149z" />
    <glyph glyph-name="ordfeminine" unicode="&#xaa;" horiz-adv-x="587" 
d="M178 1341h2q51 96 56 121l-13 2q-2 2 0 9q-53 -17 -92 -73t-27 -136q6 -2 9 0h8q16 10 33 38q16 28 24 35l-2 2q2 0 2 2zM451 1436v-15l10 -24q4 -35 -1 -128t5 -114q33 35 102 260q2 11 37 103q12 6 21 -19q2 -10 -44 -172q-45 -161 -57 -193t-19 -69t-28 -52t-74 -8
t-88 31q-68 82 -54 221q5 51 -1 107q-94 -188 -119 -197q-53 -12 -101 28q-98 81 -40 220q31 72 77 105t99 16q49 -33 82 -39q14 47 90 29t101 -76q2 -6 2 -14z" />
    <glyph glyph-name="guillemotleft" unicode="&#xab;" horiz-adv-x="1425" 
d="M801 803q0 -41 98 -116q99 -75 247 -176t220 -171q8 -8 25 -33q35 -74 4 -131q-18 18 -44 3t-34 -15q-152 80 -405 251q-140 95 -241 198t-102 173q0 43 65 127q64 84 222 202t369 210q8 8 94 51q8 0 34 -15t44 3q43 -76 -29 -166q-84 -82 -230 -167t-242 -140t-95 -88z
M221 803q0 -41 98 -116q99 -75 247 -176t220 -171q8 -8 25 -33q35 -74 4 -131q-18 18 -44 3t-34 -15q-147 78 -404 251q-140 95 -242 198q-101 103 -101 173q0 43 64 127t222 202t369 210q8 8 94 51q8 0 34 -15t44 3q43 -76 -29 -166q-84 -82 -230 -167t-242 -140t-95 -88z
" />
    <glyph glyph-name="logicalnot" unicode="&#xac;" horiz-adv-x="1007" 
d="M805 1327q-2 0 -14 -3t-13 7l30 2q19 0 28 21q-31 0 -101 -12t-114 -5q-1 -2 -7 -3t-4 -11q-18 4 -26 12q-10 -8 -27 -8l-78 8q-107 -10 -127 -7t-110 28q-27 0 -70 -4t-109 16q4 16 -5 26t-46 28q-37 17 -41 20q-17 31 1 35q28 0 53 10q2 -6 -2 -11t0 -8q14 -5 18 5
t6 10q45 -17 72 -19t65 -12q18 8 50 8t80 -10q47 -10 51 -10l110 18q109 18 127 -2q37 4 147 24t136 25q4 45 88 21q20 -56 18 -66t-12 -41t-8 -73q-2 -2 -6 -3q4 -31 11 -71t9 -60q45 -4 21 -88q-56 -20 -66 -18t-41 12t-74 8q-23 70 -18 166q0 2 -3 14t7 13l2 -30
q0 -21 21 -27q0 33 6 65h-35z" />
    <glyph glyph-name="registered" unicode="&#xae;" horiz-adv-x="1705" 
d="M793 928l108 39q66 23 78 34q37 35 -10 70q-29 19 -89 35t-92 6q8 -30 4 -94t1 -90zM782 734v-52l4 -29q0 -6 -6 -10q8 -25 7 -107t3 -98t-2 -17q-4 -1 -4 -3q8 -8 11 -37q6 -6 30 -16q0 -1 -5 -5t-3 -10l-205 -16q-2 8 -17 12t-17 10q0 9 20 9q-10 3 -6 31t4 32l-4 21
l6 61l-10 190q0 94 -2 140l4 260h-29q0 19 -4 41q14 0 131 3q232 6 301 -34q23 -14 42 -48t12 -58t-26 -39q-19 -16 -54 -33t-45 -23q49 -29 71 -49q0 -12 -2 -16q6 -6 19 -4q0 -2 -7 -9q8 -16 9 -36l-4 -105l-5 -45q0 -25 -2 -27t3 -4t4 -6q0 -205 8 -260q-8 -4 -11 -10
q-2 0 -50 -2t-59 19q-5 9 1 26q-4 39 -7 149t-9 154q-6 45 -3 76q0 117 -30 123q-14 4 -34 -5t-26 -10q-8 -34 -5 -66t3 -68zM678 1243q-27 15 -79 29t-85 14q-16 -38 -62 -106t-78 -123t-59 -161t-26 -239q0 -70 102 -305q43 -117 152 -165q109 -47 225 -33t215 48
q98 34 135 70q41 44 78 176t49 254q47 494 -112 641q-344 156 -455 -100zM500 1438q95 -16 112 -33q29 77 118 101q155 41 422 -72q114 -50 200 -111q113 -322 47 -819q-4 -49 -34 -124t-38 -112q-94 -258 -389 -258q-176 -6 -357 80t-323 227q-204 464 -38 794
q52 103 120 178t160 149z" />
    <glyph glyph-name="degree" unicode="&#xb0;" horiz-adv-x="417" 
d="M84 1284q0 -53 26 -87t66 -46t70 -7q31 5 43 19q25 25 36 129t-32 146q-54 24 -74 5t-31 -44q-18 14 -49 14q-3 -12 -29 -44t-26 -85zM346 1430q29 -80 12 -207q-2 -13 -9 -31t-9 -29q-22 -67 -106 -67t-164 80q-76 172 61 282q27 -4 29 -8q23 37 80 26t106 -46z" />
    <glyph glyph-name="plusminus" unicode="&#xb1;" horiz-adv-x="763" 
d="M514 145q42 -1 47 9q6 10 8 16q-115 -24 -159 -20t-116 15q-73 11 -134 7q0 16 -2 21q-16 16 -54 30t-41 17q-8 20 -8 27t6 8q5 1 21 3t31 11q2 -3 -2 -11t6 -10t13 7t5 10l139 -23q14 2 156 5t195 20q4 36 45 30q14 -2 43 -8q32 -55 12 -65q-8 -4 -15 -24t-3 -54
q-59 -20 -113 -22t-60 -5q-20 -8 -20 6zM479 807q0 42 -9 48q-9 5 -15 7q14 -59 18 -123q109 4 152 19q4 36 45 30q14 -2 43 -8q32 -55 12 -65q-8 -3 -15 -23t-3 -55q-59 -21 -113 -23t-60 -4q-20 -8 -20 6q42 0 47 10q6 10 8 15q-63 -16 -104 -18q-16 -102 -12 -170
q-18 0 -21 -2q-16 -15 -30 -53t-17 -42q-19 -8 -27 -8t-9 6t-3 22t-10 30q4 2 12 -4t8 10q2 8 -7 11t-9 5l22 139l-6 58q-150 20 -196 18q0 16 -2 21q-16 16 -54 30t-41 17q-8 20 -8 27t6 8q5 2 21 4t31 10q2 -4 -2 -11t6 -9t13 6q3 9 5 10l139 -23q29 4 82 4
q-4 129 -18 181q-37 4 -31 45q2 14 8 43q54 31 66 12q3 -8 23 -16t55 -3q20 -59 22 -113t4 -60q7 -20 -6 -19z" />
    <glyph glyph-name="twosuperior" unicode="&#xb2;" horiz-adv-x="286" 
d="M125 1214q6 1 3 4q-8 8 -3 -4zM133 1405v4l14 41l17 70q-14 11 -28 6q-13 -4 -17 -4t-4 -2v-4q-31 -16 -45 -50q-8 -10 -14 -38t-11 -37l-18 12v10q2 2 2 9v12q12 45 45 73q2 15 38 31t74 -16q0 -4 4 -6q27 -12 62 -60q0 -2 -2 -2v-14q-2 -18 -23 -39v-6q-4 0 -2 -6
q-10 -8 -20 -34t-19 -34q0 -3 -12 -21q2 -14 -12 -32q2 -6 -10 -19v-4q0 -2 2 -2q-4 -3 -16 -19t-23 -20q4 -4 0 -10t-4 -8l88 10q3 0 33 2t39 -5t20 -9q-4 0 -4 -2l14 -8q0 -2 -2 -3l6 -6l-49 7q-35 7 -49 4l-8 -5h-13l-39 -12q-4 -4 -4 -8q-14 -4 -32 -18t-31 -19h-10
q-2 2 -16 7t-42 34q-12 8 -12 14q23 12 32 37q8 25 15 39q33 51 39 65t8 13q4 27 18 45q15 18 19 27q0 10 2 10z" />
    <glyph glyph-name="threesuperior" unicode="&#xb3;" horiz-adv-x="286" 
d="M57 1141q-2 2 -10 6q0 -2 10 -6zM161 1552q42 0 54 -26q4 -4 21 -19t19 -32q3 -17 5 -27t-14 -32t-23 -23q0 -2 4 -2q-12 -16 -43 -41q53 -12 68 -54l6 -6v-2l6 -8q2 -8 7 -24t5 -20q0 -45 -32 -77q-20 -8 -33 -26q-4 -1 -15 -11t-75 -18q0 2 2 2l4 2q-14 2 -25 0l2 6
h-24q-2 2 4 2t6 2h-14q-8 8 -2 8l-43 23q-2 0 0 -2v-2q-31 20 -27 65q18 -6 37 -27q54 -61 119 5q0 10 8 12q0 4 7 18t3 25q4 4 0 11t-7 24t-34 29t-59 -2h-17l-22 38q-8 -2 -16 13q78 23 131 80q0 2 15 24t19 46q4 26 -10 32q-18 8 -40 -6q-22 -13 -33 -17q-11 -3 -11 -12
q-10 -6 -74 -76q-2 -2 -5 0t-5 0q-6 4 -10 11q10 16 55 65q8 5 36 27t70 22z" />
    <glyph glyph-name="acute" unicode="&#xb4;" horiz-adv-x="317" 
d="M70 1143l-35 63q68 125 88 184t35 69q16 9 37 5q4 -2 3 -12t-1 -12q8 2 40 16t54 8q4 0 3 -12t3 -14q-27 -14 -46 -51q-19 -39 -25 -47t-22 -33q-17 -25 -22 -33q-68 -106 -112 -131z" />
    <glyph glyph-name="mu" unicode="&#xb5;" horiz-adv-x="800" 
d="M83 -188q-15 0 -19 8q-14 25 -76 18q-25 76 -21 166q-6 29 4 27l2 -29q0 -16 21 -27q0 31 -13 101t-8 114l-2 7q-2 6 -12 4q4 16 12 24q-11 22 -6 59q6 36 6 48q-12 68 -2 342l19 47v4q20 39 78 29l2 -2q2 0 10 -9q4 0 12 -14q16 -18 23 -45q-4 -449 -19 -475l2 -33
l19 -47q2 0 17 -6t32 6l4 43q28 18 56 70t48 69q0 6 21 164q20 158 18 193q8 6 58 77q53 -2 110 -21t72 -52q4 -12 -3 -35t-7 -33l4 -69q-4 -39 -1 -73t-5 -113t-5 -113t15 -82t14 -72q29 -2 46 22t28 27q16 49 96 242t111 295q10 -17 27 -15q16 2 21 -5t3 -23
q-16 -147 -164 -445q-10 -18 -34 -62t-58 -110q-37 -16 -51 -63q-39 -25 -114 -24t-114 34q2 14 -17 38t-24 36q-20 53 -40 32q2 2 8 19q-14 18 -17 49q-8 -41 -62 -65t-108 -7q5 -108 11 -139q51 -7 20 -90q-33 -16 -48 -16z" />
    <glyph glyph-name="periodcentered" unicode="&#xb7;" horiz-adv-x="389" 
d="M115 922q61 -16 93 -26t75 -37q43 -26 67 -60q2 -45 -20 -55t-27 -38q-4 -28 -6 -75t-21 -72q6 -16 4 -38t-1 -34q-13 20 -30 11q-17 -8 -22 -11q-31 39 -73 50q-72 137 -36 256q13 43 -3 129z" />
    <glyph glyph-name="cedilla" unicode="&#xb8;" horiz-adv-x="395" 
d="M108 -418q-64 0 -114 40q-51 40 -64 95q-4 -4 -4 -8q-66 141 97 248q4 0 8 -3q3 -3 17 4t42 9t64 0q37 -2 53 -2q55 111 63 160q33 10 49 -4q0 -94 -79 -234q-4 -2 -8 0t-7 2q6 -14 -3 -26t-9 -21q-55 29 -115 -4t-59 -88q-10 -20 -12 -22q2 -54 82 -58t100 39l20 -10
q7 -49 -25 -83t-96 -34z" />
    <glyph glyph-name="onesuperior" unicode="&#xb9;" horiz-adv-x="217" 
d="M70 1149l-7 63v2q2 2 -2 5q4 8 2 10q2 0 5 2q0 2 -3 0t-4 0l7 12l-7 6q4 3 1 23t4 24q0 2 -2 2t-3 2l2 19l-4 18q0 4 4 4q-2 2 -8 2q-2 5 -1 11t5 6q-10 8 0 18q-4 6 -1 18t-3 15l6 2q-6 2 -3 14t3 15q-6 -2 -10 -9t-6 -8q-6 -25 -25 -47q-25 -39 -43 -14q30 24 56 81
q26 56 37 73v2l-2 4q7 12 11 12q3 0 11 1t33 -15q26 -10 39 -23q0 -4 -2 -4q10 -27 -2 -70l2 -2v-2q-8 -43 -2 -78q-4 -6 -3 -24t-1 -29q0 -114 26 -162q-2 0 -2 -4q-4 2 -15 -6t-52 2q-40 10 -41 19h4q6 0 8 2z" />
    <glyph glyph-name="ordmasculine" unicode="&#xba;" horiz-adv-x="417" 
d="M84 1284q0 -53 26 -87t66 -46t70 -7q31 5 43 19q25 25 36 129t-32 146q-54 24 -74 5t-31 -44q-18 14 -49 14q-3 -12 -29 -44t-26 -85zM346 1430q29 -80 12 -207q-2 -13 -9 -31t-9 -29q-22 -67 -106 -67t-164 80q-76 172 61 282q27 -4 29 -8q23 37 80 26t106 -46z" />
    <glyph glyph-name="guillemotright" unicode="&#xbb;" horiz-adv-x="1415" 
d="M842 786q0 -70 -102 -173q-150 -153 -488 -358q-106 -65 -158 -91q-8 0 -34 15t-44 -3q-31 57 4 131q16 25 25 33q72 70 220 171t247 176q98 75 98 116q0 33 -95 88t-241 140t-231 167q-72 90 -29 166q18 -18 44 -3t34 15q86 -43 94 -51q211 -92 369 -210
q159 -118 223 -202t64 -127zM1190 803q0 33 -95 88t-241 140t-231 167q-72 90 -29 166q18 -18 44 -3t34 15q86 -43 94 -51q211 -92 369 -210q159 -118 223 -202t63 -127q0 -173 -590 -531q-106 -65 -157 -91q-8 0 -34 15t-44 -3q-31 57 4 131q16 25 25 33q72 70 220 171
t247 176q98 75 98 116z" />
    <glyph glyph-name="onequarter" unicode="&#xbc;" horiz-adv-x="890" 
d="M868 18v-87q0 -28 4 -40q-2 0 -6 -8q-8 0 -39 -3t-49 9q-16 -2 -30 9q-6 12 -6 36t-3 29q6 8 4 33t2 31q-2 8 -4 14q8 11 4 25t0 34l7 28q2 7 6 30t6 28q-25 -4 -84 -45t-105 -18q-4 6 -12 14l8 21q12 14 23 57q10 43 14 53h-4q0 4 6 32q13 63 -25 90q-15 11 -18 20
q10 2 23 0l-8 18h4q10 -6 13 -5t11 -8t15 -7q-4 -2 4 -6t10 -7q2 -8 12 -18t13 -19q-4 0 0 -13t4 -32v-28l-6 -13l4 -8q0 -6 -7 -24q-4 -37 -32 -95q35 14 49 25q45 18 51 29h10l8 10q12 0 17 2q8 14 10 52t8 52q0 45 11 60q-2 33 2 51q12 0 24 -10q13 -10 17 -10t6 -3
q47 -23 47 -51l-6 -123l-11 -10q12 -25 -4 -61q10 -20 0 -33zM128 1327q3 0 3 2q-8 3 -4 19t4 18q-8 -2 -14 -11t-11 -12q-10 -41 -34 -71q-39 -55 -66 -21q54 44 99 155q22 52 38 79q0 6 -2 8q12 14 19 14q0 16 67 -18q27 -9 52 -25q4 -10 5 -11t-3 -5q18 -49 -2 -102l4 -9
q-16 -55 -4 -116q-7 -10 -7 -40t-4 -40q4 -25 6 -91q2 -87 35 -153q-2 0 -3 -1t1 -1v-4q-8 2 -17 -7q-22 -22 -82 -2q-60 19 -63 33h17q-12 12 -19 15q-3 33 -6 62q-4 30 -4 31t2 1t2 3t-3 3t1 7t-2 12q4 -2 8 2q0 2 -4 1t-6 3l10 16l-8 8q6 8 2 36t4 36q0 2 -4 3t-4 5l4 27
l-4 25q0 5 4 8q-2 2 -6 2l-4 2q-8 23 4 24q-14 10 0 25q-6 12 -1 30t-3 23q0 2 3 2zM129 -188q-47 28 -61 20t-30 -5t-42 40q4 16 5 21q1 6 6 20t7 15t10 11t13 6q6 -4 18 -3q20 29 76 132q55 103 68 121q-4 46 362 780q125 251 127 254t12 39q26 94 64 123q10 41 20 66
t19 70q2 2 12 1t10 7q4 15 -6 10q-4 -2 -10 4q12 10 21 24t14 21q5 8 30 -20q0 -8 -3 -53q-3 -46 3 -52t21 -12q-13 -67 -37 -103q-24 -35 -37 -59q-20 -84 -214 -528t-245 -516q-4 -10 -16 -47t-31 -47q4 -10 0 -29q-6 6 -11 2t-7 -4q-14 -43 -57 -101t-56 -83q21 0 29 12
t16 28q9 -9 -8 -26q-43 -90 -92 -139z" />
    <glyph glyph-name="onehalf" unicode="&#xbd;" horiz-adv-x="890" 
d="M684 33q-2 2 -4 0t1 -4t3 4zM670 5q0 -3 -8 -11l106 10q8 0 32 3t58 -5q6 -6 27 -14h-6q-6 2 -7 0q2 -2 8 -4t11 -11h-2q2 -2 6 -4l2 -2h-6q-6 -2 -6 2q-13 1 -51 9t-56 4l-10 -7h-16l-45 -16q-4 0 -5 -6q-18 -3 -40 -23t-35 -24q-8 4 -13 0q-4 4 -20 10t-49 39
q-14 10 -15 16q26 20 34 39q7 19 14 33q6 14 8 20q37 57 51 93q4 0 6 2q3 24 21 50t22 34q0 12 4 12l-2 2v2q6 6 10 26t11 25q0 14 10 39t8 43q-10 8 -19 8l-36 -6q-2 0 -4 -4v-2q-39 -20 -54 -59q-10 -12 -17 -46t-13 -46l-23 16l4 24v13q12 55 53 88q4 18 46 37t90 -19
l4 -8q33 -12 73 -72h-2q-2 0 -2 -2l4 -4v-2q-2 -6 0 -10q-8 -27 -19 -39t-11 -14v-8q-9 -10 -23 -41t-26 -41q0 -8 -15 -23q4 -20 -14 -39q4 -16 -10 -24v-9q-5 -5 -19 -23t-26 -22q2 -6 2 -9zM128 1327q3 0 3 2q-8 3 -4 19t4 18q-8 -2 -14 -11t-11 -12q-10 -41 -34 -71
q-39 -55 -66 -21q54 44 99 155q22 52 38 79q0 6 -2 8q12 14 19 14q0 16 67 -18q27 -9 52 -25q4 -10 5 -11t-3 -5q18 -49 -2 -102l4 -9q-16 -55 -4 -116q-7 -10 -7 -40t-4 -40q4 -25 6 -91q2 -87 35 -153q-2 0 -3 -1t1 -1v-4q-8 2 -17 -7q-22 -22 -82 -2q-60 19 -63 33h17
q-12 12 -19 15q-3 33 -6 62q-4 30 -4 31t2 1t2 3t-3 3t1 7t-2 12q4 -2 8 2q0 2 -4 1t-6 3l10 16l-8 8q6 8 2 36t4 36q0 2 -4 3t-4 5l4 27l-4 25q0 5 4 8q-2 2 -6 2l-4 2q-8 23 4 24q-14 10 0 25q-6 12 -1 30t-3 23q0 2 3 2zM129 -188q-47 28 -61 20t-30 -5t-42 40q4 16 5 21
q1 6 6 20t7 15t10 11t13 6q6 -4 18 -3q20 29 76 132q55 103 68 121q-4 46 362 780q125 251 127 254t12 39q26 94 64 123q10 41 20 66t19 70q2 2 12 1t10 7q4 15 -6 10q-4 -2 -10 4q12 10 21 24t14 21q5 8 30 -20q0 -8 -3 -53q-3 -46 3 -52t21 -12q-13 -67 -37 -103
q-24 -35 -37 -59q-20 -84 -214 -528t-245 -516q-4 -10 -16 -47t-31 -47q4 -10 0 -29q-6 6 -11 2t-7 -4q-14 -43 -57 -101t-56 -83q21 0 29 12t16 28q9 -9 -8 -26q-43 -90 -92 -139z" />
    <glyph glyph-name="threequarters" unicode="&#xbe;" horiz-adv-x="890" 
d="M868 18v-87q0 -28 4 -40q-2 0 -6 -8q-8 0 -39 -3t-49 9q-16 -2 -30 9q-6 12 -6 36t-3 29q6 8 4 33t2 31q-2 8 -4 14q8 11 4 25t0 34l7 28q2 7 6 30t6 28q-25 -4 -84 -45t-105 -18q-4 6 -12 14l8 21q12 14 23 57q10 43 14 53h-4q0 4 6 32q13 63 -25 90q-15 11 -18 20
q10 2 23 0l-8 18h4q10 -6 13 -5t11 -8t15 -7q-4 -2 4 -6t10 -7q2 -8 12 -18t13 -19q-4 0 0 -13t4 -32v-28l-6 -13l4 -8q0 -6 -7 -24q-4 -37 -32 -95q35 14 49 25q45 18 51 29h10l8 10q12 0 17 2q8 14 10 52t8 52q0 45 11 60q-2 33 2 51q12 0 24 -10q13 -10 17 -10t6 -3
q47 -23 47 -51l-6 -123l-11 -10q12 -25 -4 -61q10 -20 0 -33zM80 1012q-3 3 -12 6q0 -6 12 -6zM213 1538q51 0 68 -35q6 -8 23 -23q18 -16 22 -24t6 -23t6 -22q2 -27 -20 -53t-25 -25q0 -2 2 -2q-8 -10 -53 -51q68 -20 86 -70l8 -8q0 -2 -1 -4t2 -4t5 -10t10 -26t8 -23
q0 -58 -43 -101q-18 -8 -43 -33q-6 0 -10 -4q-20 -20 -104 -32l6 6q-20 0 -27 -2q0 2 1 4t-1 4q0 -2 -42 1t-9 3t33 2q-14 6 -17 0q-2 0 -3 4t-5 2q-2 4 4 4q-10 5 -28 15t-27 14q2 -4 0 -6q-41 31 -33 84q12 -4 19 -4q8 -6 25 -28q65 -85 155 5q0 12 8 14q0 5 9 23t5 33
q2 8 -1 16t-5 19q-6 33 -45 48t-76 -5h-20q-10 8 -19 26t-14 23q-6 -2 -11 6t-7 10q150 49 196 150q34 69 5 80t-55 -6t-40 -21t-14 -14q-30 -18 -94 -99h-15q-10 12 -12 15q35 47 72 84q12 7 48 35t87 28zM68 -188q-48 28 -62 20t-30 -5t-42 40q13 53 17 55t11 12t13 6
t19 -3q20 29 76 132q55 103 67 121q-4 44 363 780q125 251 127 254t20 67t55 95q10 41 21 66q10 25 18 70q3 2 13 1t10 7q4 15 -6 10q-4 -2 -10 4q16 13 33 42q7 12 32 -17q0 -8 -3 -53q-3 -46 2 -52t22 -12q-12 -64 -37 -101q-24 -37 -37 -61q-20 -84 -214 -528t-245 -516
q-4 -10 -16 -46t-31 -48q4 -10 0 -29q-6 6 -11 2t-7 -4q-14 -43 -58 -101t-55 -83q23 0 33 18t12 22q9 -9 -8 -26q-43 -90 -92 -139z" />
    <glyph glyph-name="questiondown" unicode="&#xbf;" horiz-adv-x="921" 
d="M612 1286q-12 2 -10 -8q0 -14 8 -18l4 14q6 12 -2 12zM621 1313q0 -10 10 -13q0 2 4 6t0 7h-14zM629 1497q0 -6 15 -8t15 -6q-4 0 -3 -5t-1 -8q8 -4 21 -2l4 23q-8 0 -8 2q2 4 -2 4q-8 -2 -32 3t-30 1q4 -2 9 -6t10 -6q0 8 2 8zM666 1497l6 6q-6 10 -23 6q-7 -2 4 -8
q0 6 4 0t9 -4zM639 1294q-4 0 -7 2t-5 2q6 -12 3 -17t-10 -14t-10 -14q-12 4 -15 29t-11 33q-104 8 -129 43h16q-8 8 -14 9t-12 4t-3 9q-49 -6 -51 -6q0 2 -9 16q-30 48 -11 70q-11 20 -9 24t-3 17q-15 35 -18 52t19 30q31 6 115 6q6 2 12 19q88 16 99 -52q2 0 2 4t-1 6
q-1 3 1 9q6 -10 23 -6t30 0q-6 -8 -20 0q3 -5 -3 -13t-6 -12q8 0 12 6t15 4q4 -8 -6 -11t-10 -7q4 -6 19 -5t20 -7v14q8 8 13 -5t-5 -15q8 0 8 6q18 -31 17 -51t10 -54l-17 -2v-4q4 -16 17 -14q-8 -6 -17 2q6 -23 -22 -55t-27 -52zM596 1726q-4 0 -9 -3t-12 -1q2 2 0 16
t3 15h18v-27zM178 523v14q66 76 84 161q31 22 60 88t49 88q6 58 23 120t20 86q2 24 -8 76t-6 53t10 -1t11 -1t3 11t-9 6q-7 -5 -7 5q37 -2 90 -26t69 -27q8 -8 8 -21q6 8 23 4q86 -125 66 -221q16 -74 12 -91t-20 -52t-19 -78q-31 -45 -115 -234q-16 -33 -66 -108t-61 -152
q0 -8 -19 -79q-19 -70 -10 -110t58 -61q62 -6 118 35t70 45q6 14 43 84t48 104q11 35 13 105t-26 141q10 -1 14 7t11 7q6 -1 81 -26t109 -39q23 -88 -9 -214t-32 -152q-32 -66 -111 -135q-79 -70 -98 -89q-10 0 -61 -6q-224 -26 -292 29q-24 20 -42 43q-20 -2 -58 17t-48 36
q-87 132 -70 141l4 5l-16 61q-2 24 5 62t3 57q8 33 38 97t38 104q8 0 12 8t12 6q-2 8 -2 17zM688 1401l-6 12q-2 -4 6 -12z" />
    <glyph glyph-name="Agrave" unicode="&#xc0;" 
d="M430 1948l6 26q22 6 54 -8t40 -16q0 2 -1 12t3 12q41 7 58 -35q4 -7 19 -52t83 -171l-35 -63q-45 25 -112 131q-4 8 -24 36t-37 62q-17 33 -27 45t-27 21zM338 1067q19 -32 -2 -23q0 -6 5 -12t3 -14q-12 -8 -13 -45t-22 -47q8 -6 8 -19q-20 -16 -23 -61t-11 -58
q35 -14 117 -16t88 -3q8 -1 9 7t5 8q-2 52 -16 226t-10 263q3 89 -5 113q-32 -81 -117 -288l-2 2l-2 -2q6 -4 2 -16t4 -15h-18zM610 1440q2 12 -13 17t-22 -5q21 -12 35 -12zM453 1532q67 0 183 -20t140 -38t56 -52t73 -48q16 -6 6 -112t-7 -142t7 -108q7 -127 35 -193
q-8 -55 6 -127t21 -90q8 -18 12 -34t50 -353q46 -336 69 -389q-8 0 -20 -5t-23 -3q-2 -9 3 -22t3 -13q-20 2 -134 4q-252 4 -296 57q0 72 -54 419t-59 394q-43 7 -137 13t-123 10q-28 -72 -100 -442t-88 -424q-45 0 -76 8q27 90 94 433q68 343 86 464q-8 8 -35 18t-32 25
q14 0 9 10t-5 12l73 -4q10 2 18 18t10 23q3 5 0 17t1 12q2 8 14 39t13 53q2 2 8 12t14 11q31 184 142 452q6 14 24 48t19 67z" />
    <glyph glyph-name="Aacute" unicode="&#xc1;" 
d="M571 1610l-34 63q68 125 79 158q28 85 38 91q21 13 42 9q4 -2 3 -12t-1 -12q8 2 40 16t55 8q4 0 3 -12t3 -14q-27 -14 -48 -56t-42 -71q-20 -29 -25 -37q-68 -106 -113 -131zM338 1067q19 -32 -2 -23q0 -6 5 -12t3 -14q-12 -8 -13 -45t-22 -47q8 -6 8 -19
q-20 -16 -23 -61t-11 -58q35 -14 117 -16t88 -3q8 -1 9 7t5 8q-2 52 -16 226t-10 263q3 89 -5 113q-32 -81 -117 -288l-2 2l-2 -2q6 -4 2 -16t4 -15h-18zM610 1440q2 12 -13 17t-22 -5q21 -12 35 -12zM453 1532q67 0 183 -20t140 -38t56 -52t73 -48q16 -6 6 -112t-7 -142
t7 -108q7 -127 35 -193q-8 -55 6 -127t21 -90q8 -18 12 -34t50 -353q46 -336 69 -389q-8 0 -20 -5t-23 -3q-2 -9 3 -22t3 -13q-20 2 -134 4q-252 4 -296 57q0 72 -54 419t-59 394q-43 7 -137 13t-123 10q-28 -72 -100 -442t-88 -424q-45 0 -76 8q27 90 94 433q68 343 86 464
q-8 8 -35 18t-32 25q14 0 9 10t-5 12l73 -4q10 2 18 18t10 23q3 5 0 17t1 12q2 8 14 39t13 53q2 2 8 12t14 11q31 184 142 452q6 14 24 48t19 67z" />
    <glyph glyph-name="Acircumflex" unicode="&#xc2;" 
d="M758 1610h-15q-6 0 -10 2q-23 28 -77 98t-85 105l-10 -45q-22 -102 -68 -128q-22 -12 -53 -14q-4 2 -5 11t-5 14q38 24 55 101t23 95q27 84 70 90q4 0 26 -9t31 -15q10 -10 19 -47q10 -37 12 -42q43 -85 118 -181q8 -12 7 -21l-11 -10q-12 -4 -22 -4zM338 1067
q19 -32 -2 -23q0 -6 5 -12t3 -14q-12 -8 -13 -45t-22 -47q8 -6 8 -19q-20 -16 -23 -61t-11 -58q35 -14 117 -16t88 -3q8 -1 9 7t5 8q-2 52 -16 226t-10 263q3 89 -5 113q-32 -81 -117 -288l-2 2l-2 -2q6 -4 2 -16t4 -15h-18zM610 1440q2 12 -13 17t-22 -5q21 -12 35 -12z
M453 1532q67 0 183 -20t140 -38t56 -52t73 -48q16 -6 6 -112t-7 -142t7 -108q7 -127 35 -193q-8 -55 6 -127t21 -90q8 -18 12 -34t50 -353q46 -336 69 -389q-8 0 -20 -5t-23 -3q-2 -9 3 -22t3 -13q-20 2 -134 4q-252 4 -296 57q0 72 -54 419t-59 394q-43 7 -137 13t-123 10
q-28 -72 -100 -442t-88 -424q-45 0 -76 8q27 90 94 433q68 343 86 464q-8 8 -35 18t-32 25q14 0 9 10t-5 12l73 -4q10 2 18 18t10 23q3 5 0 17t1 12q2 8 14 39t13 53q2 2 8 12t14 11q31 184 142 452q6 14 24 48t19 67z" />
    <glyph glyph-name="Atilde" unicode="&#xc3;" 
d="M639 1686v-9q-18 14 -27 29q-18 2 -51 11t-47 12q-61 6 -108 -31l-19 -19q-6 4 -14 0q0 37 4 37l2 4v25q47 63 120 77t132 -46q100 -51 180 -41q0 30 54 49q26 8 34 12q18 -29 17 -44t-11 -46t-8 -51q-78 -80 -166 -41q-2 2 -14 4t-12 12q47 -27 57 0q-53 14 -113 58
q0 -2 -5 0t-5 -2zM338 1067q19 -32 -2 -23q0 -6 5 -12t3 -14q-12 -8 -13 -45t-22 -47q8 -6 8 -19q-20 -16 -23 -61t-11 -58q35 -14 117 -16t88 -3q8 -1 9 7t5 8q-2 52 -16 226t-10 263q3 89 -5 113q-32 -81 -117 -288l-2 2l-2 -2q6 -4 2 -16t4 -15h-18zM610 1440
q2 12 -13 17t-22 -5q21 -12 35 -12zM453 1532q67 0 183 -20t140 -38t56 -52t73 -48q16 -6 6 -112t-7 -142t7 -108q7 -127 35 -193q-8 -55 6 -127t21 -90q8 -18 12 -34t50 -353q46 -336 69 -389q-8 0 -20 -5t-23 -3q-2 -9 3 -22t3 -13q-20 2 -134 4q-252 4 -296 57
q0 72 -54 419t-59 394q-43 7 -137 13t-123 10q-28 -72 -100 -442t-88 -424q-45 0 -76 8q27 90 94 433q68 343 86 464q-8 8 -35 18t-32 25q14 0 9 10t-5 12l73 -4q10 2 18 18t10 23q3 5 0 17t1 12q2 8 14 39t13 53q2 2 8 12t14 11q31 184 142 452q6 14 24 48t19 67z" />
    <glyph glyph-name="Adieresis" unicode="&#xc4;" 
d="M671 1670q-7 22 -7 53q0 32 20 64q20 31 25 40q14 0 18 -4q0 8 6 14t10 12q4 5 12 11q8 5 17 6q9 0 31 -8q27 -24 23 -100t-19 -90q-35 -36 -82 -28t-54 30zM512 1854q8 12 21 12q14 0 34 -8q27 -24 23 -100t-18 -90q-36 -36 -83 -28t-54 30t-7 54q0 33 20 64
q20 30 25 39q15 0 19 -4q0 8 6 14q6 5 14 17zM338 1067q19 -32 -2 -23q0 -6 5 -12t3 -14q-12 -8 -13 -45t-22 -47q8 -6 8 -19q-20 -16 -23 -61t-11 -58q35 -14 117 -16t88 -3q8 -1 9 7t5 8q-2 52 -16 226t-10 263q3 89 -5 113q-32 -81 -117 -288l-2 2l-2 -2q6 -4 2 -16
t4 -15h-18zM610 1440q2 12 -13 17t-22 -5q21 -12 35 -12zM453 1532q67 0 183 -20t140 -38t56 -52t73 -48q16 -6 6 -112t-7 -142t7 -108q7 -127 35 -193q-8 -55 6 -127t21 -90q8 -18 12 -34t50 -353q46 -336 69 -389q-8 0 -20 -5t-23 -3q-2 -9 3 -22t3 -13q-20 2 -134 4
q-252 4 -296 57q0 72 -54 419t-59 394q-43 7 -137 13t-123 10q-28 -72 -100 -442t-88 -424q-45 0 -76 8q27 90 94 433q68 343 86 464q-8 8 -35 18t-32 25q14 0 9 10t-5 12l73 -4q10 2 18 18t10 23q3 5 0 17t1 12q2 8 14 39t13 53q2 2 8 12t14 11q31 184 142 452q6 14 24 48
t19 67z" />
    <glyph glyph-name="Aring" unicode="&#xc5;" 
d="M345 1042q-5 0 -9 2q0 -6 5 -12t3 -14q-12 -8 -13 -45t-22 -47q8 -6 8 -19q-20 -16 -23 -61t-11 -58q35 -14 117 -16t89 -3t8 7t5 8q-2 52 -16 226t-10 263q3 89 -5 113l-117 -288h-4q6 -4 2 -16t4 -15h-18q12 -25 7 -25zM547 1636q0 -73 46 -82q61 -12 97 24
q14 14 22 90q8 75 -24 101q-50 18 -76 -34q-6 4 -20 4q-4 -9 -24 -39t-21 -64zM117 784l73 -4q10 2 18 18t10 23q3 5 0 17t1 12q2 8 14 39t13 53q2 2 8 12t14 11q31 184 142 452q6 14 24 46t19 69q12 0 65 -4q-20 16 -29 24q-76 172 62 283q27 -4 29 -8q24 37 80 25t106 -46
q29 -80 12 -207q0 -6 -14 -49t-39 -59q37 -9 51 -19t55 -49t74 -49q16 -6 6 -112t-7 -142t7 -108q7 -127 35 -193q-8 -55 6 -127t21 -90q8 -18 12 -34t50 -353q46 -336 69 -389q-8 0 -20 -5t-23 -3q-2 -9 3 -22t3 -13q-20 2 -134 4q-252 4 -296 57q0 72 -54 419t-59 394
q-43 7 -137 13t-123 10q-28 -72 -100 -442t-88 -424q-45 0 -76 8q27 90 94 433q68 343 86 464q-8 8 -35 18t-32 25q12 0 8 10t-4 12z" />
    <glyph glyph-name="AE" unicode="&#xc6;" horiz-adv-x="1492" 
d="M528 1042q-4 0 -8 2q-2 -6 3 -12t1 -14q-14 -8 -20 -45t-29 -47q6 -4 6 -19q-23 -16 -33 -61t-20 -58q35 -14 117 -16t88 -3t8 7t6 8q7 58 19 230t26 264q18 82 13 108l-158 -288q-4 4 -4 0q6 -4 0 -16t0 -15h-19q8 -25 4 -25zM852 1518q-14 14 -14 22q2 2 12 4t12 8
q6 -2 14 -13t17 -13q111 -12 191 -6q232 17 352 -21q18 -18 32 -39q-6 -16 -16 -30q-45 -2 -132 5t-138 3q-27 -55 -17 -166q-2 -4 -12 0q8 -106 -30 -275q-38 -168 -31 -196l155 16q3 -4 23 -19t24 -28q-12 -20 -16 -31q-60 5 -106 -9t-93 -32q6 -30 2 -146t4 -151
q0 -6 -7 -3t-13 3q16 -35 18 -39q-6 -2 -11 6t-7 7q0 -14 10 -38t10 -32q-11 26 -17 17t-9 -21q0 -6 8 -2t14 2q10 -33 -18 -49q4 -10 12 -8v8q11 -16 13 -41t10 -37q-20 -16 -23 -18q0 -6 5 -2t8 -6t-1 -16t-18 -3q19 -23 19 -93t22 -93q45 -2 122 0t120 0q18 -16 26 -47
q-6 0 -9 -6t-7 -9q-16 6 -76 3t-80 -3t-89 -8t-143 -19t-95 -14l4 -14l-43 -8q-7 -14 -3 -24q5 -9 3 -11q-23 2 -65 4t-56 5q-46 10 -76 52q12 72 8 410t0 403q-41 7 -134 13t-122 10q-37 -72 -164 -440t-153 -426q-47 0 -74 8q41 92 160 439t151 458q-5 8 -31 18t-30 25
q12 0 9 10t-1 12q14 2 38 -1t35 -2t20 17t16 21q2 7 0 19t4 12l20 40q16 32 19 52q4 2 11 12t15 11q55 174 207 452q9 14 33 47t29 68q37 0 88 -6h2z" />
    <glyph glyph-name="Ccedilla" unicode="&#xc7;" horiz-adv-x="956" 
d="M551 1440q2 0 63 18q10 -4 33 -17t51 -14q10 -8 24 -27t21 -26q37 -145 18 -338q-5 -49 -5 -57q-12 2 -16 -11t-5 -16q-47 18 -62 68t-16 128q0 79 -4 107q-66 -49 -80 -180q-2 -2 -6 -10t-12 -6q-2 -41 -49 -315t-47 -343l14 -145q5 -117 25 -197t73 -145q43 12 67 48
t40 87t33 76q2 41 21 132t16 155q14 -4 29 8t38 4q2 -16 10 -50q9 -34 9 -46t-9 -41q12 -240 -59 -324q-4 -6 -4 -7l6 -15q-8 -10 -26 -37t-32 -42q-38 -44 -104 -48q-2 0 -3 -10t-15 -7q-14 2 -129 1q-114 -1 -139 3q-15 -39 -39 -84q-3 0 -7 2t-6 0q6 -12 -1 -21t-7 -15
q-45 23 -91 -3t-46 -71l-8 -17q2 -41 64 -43t77 31l16 -10q4 -39 -20 -65q-24 -25 -74 -25q-49 0 -89 31t-50 73q-4 0 -4 -4q-51 111 76 191q4 0 7 -2t13 3q11 5 31 7t52 0t40 -2q11 22 19 40q-79 40 -151 183q-72 142 -103 330q-30 188 -15 321q6 68 30 190t28 147
q4 26 1 62q-11 97 58 250q31 74 88 175q6 6 22 6q4 2 -1 9t1 11q39 27 153 13t157 -39q10 -17 10 -35z" />
    <glyph glyph-name="Egrave" unicode="&#xc8;" horiz-adv-x="894" 
d="M328 1948l6 26q22 6 54 -8t40 -16q0 2 -1 12t3 12q40 7 57 -35q7 -13 21 -55t82 -168l-35 -63q-45 25 -113 131q-6 11 -27 43q-22 32 -40 68q-18 37 -47 53zM543 375q0 -14 10 -38t10 -32q-8 18 -12 19q-4 0 -14 -23q2 -5 9 -1t13 1q10 -33 -18 -49l12 -8q2 2 0 8
q12 -16 13 -41t9 -37q-20 -16 -22 -18q0 -8 5 -2t8 -5t-1 -17t-18 -3q20 -23 19 -93t22 -93q45 -2 122 0t119 0q18 -16 27 -47q-8 0 -11 -8t-5 -7q-129 10 -414 -32t-391 -29q-31 49 -35 76q10 4 43 5t43 7q-2 12 -17 134t-17 168t5 116q8 70 9 102l16 336q-2 104 37 368
t39 267q-22 10 -52 18t-40 13q-12 43 -31 79q2 2 8 4q12 2 6 13q7 0 21 -10t30 -7q6 6 -2 15t-8 16q2 2 12 4t13 8q6 -2 14 -13t16 -13q117 -8 396 -3t372 -24q21 -21 33 -39q-6 -16 -16 -30q-45 -2 -132 5t-139 3q-27 -55 -16 -166q-2 -4 -12 0q8 -106 -30 -275
q-38 -168 -32 -196l156 16q3 -4 23 -19t24 -28q-12 -20 -16 -31q-60 5 -106 -9t-93 -32q6 -30 2 -146t4 -151q0 -6 -7 -3t-13 3q18 -35 18 -39q-6 -2 -11 6t-7 7z" />
    <glyph glyph-name="Eacute" unicode="&#xc9;" horiz-adv-x="894" 
d="M403 1610l-34 63q68 125 79 158q28 85 38 91q21 13 42 9q4 -2 3 -12t-1 -12q8 2 40 16t55 8q4 0 3 -12t3 -14q-27 -14 -48 -56t-42 -71q-20 -29 -25 -37q-68 -106 -113 -131zM543 375q0 -14 10 -38t10 -32q-8 18 -12 19q-4 0 -14 -23q2 -5 9 -1t13 1q10 -33 -18 -49
l12 -8q2 2 0 8q12 -16 13 -41t9 -37q-20 -16 -22 -18q0 -8 5 -2t8 -5t-1 -17t-18 -3q20 -23 19 -93t22 -93q45 -2 122 0t119 0q18 -16 27 -47q-8 0 -11 -8t-5 -7q-129 10 -414 -32t-391 -29q-31 49 -35 76q10 4 43 5t43 7q-2 12 -17 134t-17 168t5 116q8 70 9 102l16 336
q-2 104 37 368t39 267q-22 10 -52 18t-40 13q-12 43 -31 79q2 2 8 4q12 2 6 13q7 0 21 -10t30 -7q6 6 -2 15t-8 16q2 2 12 4t13 8q6 -2 14 -13t16 -13q117 -8 396 -3t372 -24q21 -21 33 -39q-6 -16 -16 -30q-45 -2 -132 5t-139 3q-27 -55 -16 -166q-2 -4 -12 0
q8 -106 -30 -275q-38 -168 -32 -196l156 16q3 -4 23 -19t24 -28q-12 -20 -16 -31q-60 5 -106 -9t-93 -32q6 -30 2 -146t4 -151q0 -6 -7 -3t-13 3q18 -35 18 -39q-6 -2 -11 6t-7 7z" />
    <glyph glyph-name="Ecircumflex" unicode="&#xca;" horiz-adv-x="894" 
d="M629 1610h-15q-6 0 -10 2q-23 28 -77 98t-85 105l-10 -45q-22 -102 -68 -128q-22 -12 -53 -14q-4 2 -5 11t-5 14q39 25 66 152q26 127 82 134q5 0 27 -9t30 -15q10 -10 19 -47t11 -42q43 -85 119 -181q8 -12 7 -21l-11 -10q-12 -4 -22 -4zM543 375q0 -14 10 -38t10 -32
q-8 18 -12 19q-4 0 -14 -23q2 -5 9 -1t13 1q10 -33 -18 -49l12 -8q2 2 0 8q12 -16 13 -41t9 -37q-20 -16 -22 -18q0 -8 5 -2t8 -5t-1 -17t-18 -3q20 -23 19 -93t22 -93q45 -2 122 0t119 0q18 -16 27 -47q-8 0 -11 -8t-5 -7q-129 10 -414 -32t-391 -29q-31 49 -35 76
q10 4 43 5t43 7q-2 12 -17 134t-17 168t5 116q8 70 9 102l16 336q-2 104 37 368t39 267q-22 10 -52 18t-40 13q-12 43 -31 79q2 2 8 4q12 2 6 13q7 0 21 -10t30 -7q6 6 -2 15t-8 16q2 2 12 4t13 8q6 -2 14 -13t16 -13q117 -8 396 -3t372 -24q21 -21 33 -39q-6 -16 -16 -30
q-45 -2 -132 5t-139 3q-27 -55 -16 -166q-2 -4 -12 0q8 -106 -30 -275q-38 -168 -32 -196l156 16q3 -4 23 -19t24 -28q-12 -20 -16 -31q-60 5 -106 -9t-93 -32q6 -30 2 -146t4 -151q0 -6 -7 -3t-13 3q18 -35 18 -39q-6 -2 -11 6t-7 7z" />
    <glyph glyph-name="Edieresis" unicode="&#xcb;" horiz-adv-x="894" 
d="M600 1854q8 12 21 12q14 0 34 -8q27 -24 23 -100t-18 -90q-36 -36 -83 -28t-54 30t-7 54q0 33 20 64q20 30 25 39q15 0 19 -4q0 8 6 14q6 5 14 17zM288 1670q-7 22 -7 53q0 32 20 64q20 31 25 40q14 0 18 -4q0 8 6 14t10 12q4 5 12 11t17 6t31 -8q26 -24 22 -100t-18 -90
q-35 -36 -82 -28t-54 30zM543 375q0 -14 10 -38t10 -32q-8 18 -12 19q-4 0 -14 -23q2 -5 9 -1t13 1q10 -33 -18 -49l12 -8q2 2 0 8q12 -16 13 -41t9 -37q-20 -16 -22 -18q0 -8 5 -2t8 -5t-1 -17t-18 -3q20 -23 19 -93t22 -93q45 -2 122 0t119 0q18 -16 27 -47q-8 0 -11 -8
t-5 -7q-129 10 -414 -32t-391 -29q-31 49 -35 76q10 4 43 5t43 7q-2 12 -17 134t-17 168t5 116q8 70 9 102l16 336q-2 104 37 368t39 267q-22 10 -52 18t-40 13q-12 43 -31 79q2 2 8 4q12 2 6 13q7 0 21 -10t30 -7q6 6 -2 15t-8 16q2 2 12 4t13 8q6 -2 14 -13t16 -13
q117 -8 396 -3t372 -24q21 -21 33 -39q-6 -16 -16 -30q-45 -2 -132 5t-139 3q-27 -55 -16 -166q-2 -4 -12 0q8 -106 -30 -275q-38 -168 -32 -196l156 16q3 -4 23 -19t24 -28q-12 -20 -16 -31q-60 5 -106 -9t-93 -32q6 -30 2 -146t4 -151q0 -6 -7 -3t-13 3q18 -35 18 -39
q-6 -2 -11 6t-7 7z" />
    <glyph glyph-name="Igrave" unicode="&#xcc;" horiz-adv-x="876" 
d="M281 1948l6 26q23 6 55 -8t39 -16q0 2 -1 12t3 12q40 7 57 -35q2 -4 19 -51t84 -172l-35 -63q-45 25 -113 131q-6 11 -27 43q-22 32 -40 68q-18 37 -47 53zM362 883q10 23 11 26q-7 2 -11 -5t-3 -14t3 -7zM225 1319q0 6 -4 10q-6 0 -10 -16q14 0 14 6zM225 524v375
q0 43 -15 207t-12 202t14 82t9 68q-18 12 -92 9t-109 8q-2 5 -11 31t-8 29t1 28q52 -31 207 -31q10 -2 12 6t4 8q3 -6 231 -1t256 5t50 -1q20 -1 56 -12t50 -36q-16 -6 -24 -6l-56 10q-8 -6 -6 -7q18 -9 15 -23q-13 10 -97 9t-106 1q-2 -15 30 -33t31 -43q10 -8 35 -18
t33 -17q6 -38 -5 -106t-10 -81t-5 -16q-7 -2 -9 -4q8 -49 -7 -291t-11 -290q-6 2 -7 -3t-3 -5q6 -82 12 -275t33 -369q16 6 60 8t60 11q13 -5 19 -25t10 -24q-11 0 -18 -9t2 -22q-52 -12 -282 -34t-279 -40q16 17 18 17q-8 6 -17 4t-14 6q-6 -6 2 -11t7 -16q-33 6 -37 8
q6 -10 -4 -12q-29 -4 -70 12q10 13 32 7q23 -6 33 -7q-7 28 -41 18q-35 -9 -40 -9q-78 53 -97 106q51 -6 189 4q0 6 -8 23t-1 26q7 10 7 13q-17 189 -17 536z" />
    <glyph glyph-name="Iacute" unicode="&#xcd;" horiz-adv-x="876" 
d="M381 1610l-35 63q68 125 83 171t19 51l9 15q15 26 49 21q4 -2 3 -12t-1 -12q8 2 40 16t54 8q4 0 3 -12t3 -14q-25 -13 -49 -58q-24 -46 -43 -72q-18 -26 -22 -34q-68 -106 -113 -131zM362 883q10 23 11 26q-7 2 -11 -5t-3 -14t3 -7zM225 1319q0 6 -4 10q-6 0 -10 -16
q14 0 14 6zM225 524v375q0 43 -15 207t-12 202t14 82t9 68q-18 12 -92 9t-109 8q-2 5 -11 31t-8 29t1 28q52 -31 207 -31q10 -2 12 6t4 8q3 -6 231 -1t256 5t50 -1q20 -1 56 -12t50 -36q-16 -6 -24 -6l-56 10q-8 -6 -6 -7q18 -9 15 -23q-13 10 -97 9t-106 1q-2 -15 30 -33
t31 -43q10 -8 35 -18t33 -17q6 -38 -5 -106t-10 -81t-5 -16q-7 -2 -9 -4q8 -49 -7 -291t-11 -290q-6 2 -7 -3t-3 -5q6 -82 12 -275t33 -369q16 6 60 8t60 11q13 -5 19 -25t10 -24q-11 0 -18 -9t2 -22q-52 -12 -282 -34t-279 -40q16 17 18 17q-8 6 -17 4t-14 6q-6 -6 2 -11
t7 -16q-33 6 -37 8q6 -10 -4 -12q-29 -4 -70 12q10 13 32 7q23 -6 33 -7q-7 28 -41 18q-35 -9 -40 -9q-78 53 -97 106q51 -6 189 4q0 6 -8 23t-1 26q7 10 7 13q-17 189 -17 536z" />
    <glyph glyph-name="Icircumflex" unicode="&#xce;" horiz-adv-x="876" 
d="M594 1610h-14q-6 0 -11 2q-23 28 -77 98t-84 105l-10 -45q-11 -49 -35 -93q-23 -45 -87 -49q-4 2 -5 11t-5 14q38 24 55 101t23 95q27 84 70 90q4 0 26 -9t31 -15q10 -10 19 -47q10 -37 12 -42q41 -82 119 -181q8 -12 6 -21l-11 -10q-12 -4 -22 -4zM362 883q10 23 11 26
q-7 2 -11 -5t-3 -14t3 -7zM225 1319q0 6 -4 10q-6 0 -10 -16q14 0 14 6zM225 524v375q0 43 -15 207t-12 202t14 82t9 68q-18 12 -92 9t-109 8q-2 5 -11 31t-8 29t1 28q52 -31 207 -31q10 -2 12 6t4 8q3 -6 231 -1t256 5t50 -1q20 -1 56 -12t50 -36q-16 -6 -24 -6l-56 10
q-8 -6 -6 -7q18 -9 15 -23q-13 10 -97 9t-106 1q-2 -15 30 -33t31 -43q10 -8 35 -18t33 -17q6 -38 -5 -106t-10 -81t-5 -16q-7 -2 -9 -4q8 -49 -7 -291t-11 -290q-6 2 -7 -3t-3 -5q6 -82 12 -275t33 -369q16 6 60 8t60 11q13 -5 19 -25t10 -24q-11 0 -18 -9t2 -22
q-52 -12 -282 -34t-279 -40q16 17 18 17q-8 6 -17 4t-14 6q-6 -6 2 -11t7 -16q-33 6 -37 8q6 -10 -4 -12q-29 -4 -70 12q10 13 32 7q23 -6 33 -7q-7 28 -41 18q-35 -9 -40 -9q-78 53 -97 106q51 -6 189 4q0 6 -8 23t-1 26q7 10 7 13q-17 189 -17 536z" />
    <glyph glyph-name="Idieresis" unicode="&#xcf;" horiz-adv-x="876" 
d="M501 1670q-7 22 -7 53q0 32 20 64q20 31 25 40q14 0 18 -4q0 8 6 14t10 12q4 5 12 11t17 6t31 -8q27 -24 23 -100t-19 -90q-35 -36 -82 -28t-54 30zM342 1854q8 12 21 12q14 0 34 -8q27 -24 23 -100t-18 -90q-36 -36 -83 -28t-54 30t-7 54q0 33 20 64q20 30 25 39
q15 0 19 -4q0 8 6 14q6 5 14 17zM362 883q10 23 11 26q-7 2 -11 -5t-3 -14t3 -7zM225 1319q0 6 -4 10q-6 0 -10 -16q14 0 14 6zM225 524v375q0 43 -15 207t-12 202t14 82t9 68q-18 12 -92 9t-109 8q-2 5 -11 31t-8 29t1 28q52 -31 207 -31q10 -2 12 6t4 8q3 -6 231 -1t256 5
t50 -1q20 -1 56 -12t50 -36q-16 -6 -24 -6l-56 10q-8 -6 -6 -7q18 -9 15 -23q-13 10 -97 9t-106 1q-2 -15 30 -33t31 -43q10 -8 35 -18t33 -17q6 -38 -5 -106t-10 -81t-5 -16q-7 -2 -9 -4q8 -49 -7 -291t-11 -290q-6 2 -7 -3t-3 -5q6 -82 12 -275t33 -369q16 6 60 8t60 11
q13 -5 19 -25t10 -24q-11 0 -18 -9t2 -22q-52 -12 -282 -34t-279 -40q16 17 18 17q-8 6 -17 4t-14 6q-6 -6 2 -11t7 -16q-33 6 -37 8q6 -10 -4 -12q-29 -4 -70 12q10 13 32 7q23 -6 33 -7q-7 28 -41 18q-35 -9 -40 -9q-78 53 -97 106q51 -6 189 4q0 6 -8 23t-1 26q7 10 7 13
q-17 189 -17 536z" />
    <glyph glyph-name="Eth" unicode="&#xd0;" horiz-adv-x="1009" 
d="M193 -143q-6 10 -50 20q2 -14 20 -21t30 1zM522 1157l-14 -39l6 -35q-20 -88 -22 -149l-9 -250q102 8 117 12q4 37 45 31q14 -2 43 -8q32 -55 12 -66q-8 -3 -15 -23t-3 -55q-60 -20 -114 -22t-59 -4q-18 -7 -20 6q41 0 47 9q7 9 9 16q-41 -4 -64 -9q-12 -481 -8 -618
q59 33 137 119q66 129 143 399t83 424q-72 119 -146 194t-174 91q6 -16 6 -23zM803 160q-4 0 -6 4l-4 -2l6 -6q-117 -137 -142 -176q-31 -24 -53 -45t-46 -44t-48 -61q-16 -2 -81 -17t-122 -25t-90 -7q-33 4 -91 31t-71 49q-4 4 -10 24t-8 23q-33 123 -14 665q-51 -6 -111 9
q0 16 -2 20q-16 16 -53 30t-41 17q-14 34 -5 36q9 1 24 3t30 10q2 -4 -2 -10t8 -10q8 -2 11 7t5 9q45 -10 71 -12t67 -10q2 70 2 166q2 2 4 9t14 3q-20 12 0 31q2 8 -3 9t-11 1t-6 4q0 39 16 105t18 106q-16 14 -15 49t19 43q-14 18 -8 50t6 38q-10 6 -56 24t-66 38t-21 57
q16 2 36 -10t34 -13l8 31l65 -22q10 18 12 65q1 47 3 53q111 -5 245 -35t177 -79q6 2 13 -1t13 -3l10 -51q-1 -7 -14 -3q16 -18 21 -39q9 -6 77 -44q189 -106 245 -182q27 -38 49 -92t14 -196q-23 -45 -61 -313t-58 -307q0 -4 -4 -4z" />
    <glyph glyph-name="Ntilde" unicode="&#xd1;" horiz-adv-x="1462" 
d="M639 1686v-9q-18 14 -27 29q-18 2 -51 11t-47 12q-61 6 -108 -31l-19 -19q-6 4 -14 0q0 37 4 37l2 4v25q47 63 120 77t132 -46q100 -51 180 -41q0 30 54 49q26 8 34 12q18 -29 17 -44t-11 -46t-8 -51q-78 -80 -166 -41q-2 2 -14 4t-12 12q47 -27 57 0q-53 14 -113 58
q0 -2 -5 0t-5 -2zM1395 1356q0 -24 10 -37q-16 -25 -21 -66q-9 -67 -31 -160q-21 -93 -14 -165q-37 -90 -32 -303q-7 -3 -15 -13t-18 -10q20 -31 -6 -35q16 -74 23 -119q7 -46 9 -250t17 -261q2 -10 17 -39t14 -37q-4 -49 -163 -61t-222 12q-26 26 -43 26q2 22 -23 52
t-29 40q16 88 -92 435q-12 9 -30 35t-37 30q-14 74 -72 188q-15 15 -23 37q-1 9 7 13q-3 12 -11 10t-13 16t-30 88q-25 72 -49 142t-72 147q-20 -25 -18 -65t8 -145q7 -121 -3 -269t-7 -262q31 -354 -12 -469q-16 -4 -32 9t-24 13q-4 -10 3 -15t10 -11q-3 -11 -17 -23
t-16 -16q-16 2 -148 6t-176 24q-27 49 -8 150q2 12 4 108t0 121q-10 260 15 445q-12 88 4 264t0 264q0 29 11 82t13 81t-16 75q29 -4 183 -18t214 -40q12 -20 19 -49q4 -6 17 -16t19 -19q166 -532 375 -901q10 49 12 229t31 250q10 109 40 335t38 352q250 -60 367 -111
q0 -24 17 -32t22 -11q4 -27 4 -51z" />
    <glyph glyph-name="Ograve" unicode="&#xd2;" horiz-adv-x="1097" 
d="M430 1948l6 26q22 6 54 -8t40 -16q0 2 -1 12t3 12q41 7 58 -35q4 -7 19 -52t83 -171l-35 -63q-45 25 -112 131q-4 8 -24 36t-37 62q-17 33 -27 45t-27 21zM92 90q6 0 13 -3t10 3q-16 37 -35 43q-4 -7 7 -19t5 -24zM47 209l2 -19q4 0 8 4t9 1q0 14 -19 14zM479 1116
q22 -4 17 14q-10 0 -14 -3t-3 -11zM590 1423q12 1 46 7t58 4q-16 24 -58 18t-46 -29zM386 1456q-83 0 -85 4q10 8 24 35q13 27 25 35q248 -10 281 -35q79 2 147 -40t86 -83q-18 -28 -64 -62t-59 -48q-29 -10 -53 -32t-32 -38q-9 -16 -26 -53t-24 -49q-18 -10 -28 -9
q0 -8 7 -10t9 -4q-4 -10 -17 -45t-27 -68t-22 -69q-8 -35 -18 -77t-10 -60t-5 -62t3 -65q-32 -146 6 -377q10 -72 24 -104t31 -82q17 -52 29 -74t48 -50q36 -27 46 -43q133 96 205 463q12 60 20 196t4 182t-7 165q-3 120 -32 211q0 2 -5 10t-7 15t1 34t0 36t-19 29t-19 38
q25 10 44 5t33 -6t24 -17q12 -16 18 -26q6 -9 12 -32t10 -37t7 -40q6 -38 22 -91t14 -105q-1 -51 5 -111t6 -67l-21 -41q9 -33 1 -53q-14 -38 -8 -141q6 -102 -19 -111q23 -51 -4 -100q-18 -233 -156 -414q4 -49 -28 -75t-83 -25l-10 -19q-20 2 -158 6t-190 16
q-52 11 -119 79q-67 69 -86 84q0 2 -3 12t5 10q-2 4 -18 4q-12 16 -19 45q-6 29 -9 37t-25 37t-19 59q4 30 -20 56q-4 25 -3 65t-14 62q2 2 6 14t11 17l-19 8q4 5 4 17t-14 40q8 18 10 106t-8 107q14 2 16 -12l15 8q-1 7 -11 6q-10 -2 -12 -2q6 31 -8 49q-2 8 12 8
q-6 6 1 29t-7 33q8 -2 11 4t6 6q-2 4 -23 8q6 35 31 92t27 76t-2 21q-5 2 -5 4q20 111 113 268l-19 10q14 14 33 13q-2 10 -12 14q119 166 121 170l180 -4q0 10 -83 10z" />
    <glyph glyph-name="Oacute" unicode="&#xd3;" horiz-adv-x="1097" 
d="M571 1610l-34 63q68 125 79 158q28 85 38 91q21 13 42 9q4 -2 3 -12t-1 -12q8 2 40 16t55 8q4 0 3 -12t3 -14q-27 -14 -48 -56t-42 -71q-20 -29 -25 -37q-68 -106 -113 -131zM92 90q6 0 13 -3t10 3q-16 37 -35 43q-4 -7 7 -19t5 -24zM47 209l2 -19q4 0 8 4t9 1
q0 14 -19 14zM479 1116q22 -4 17 14q-10 0 -14 -3t-3 -11zM590 1423q12 1 46 7t58 4q-16 24 -58 18t-46 -29zM386 1456q-83 0 -85 4q10 8 24 35q13 27 25 35q248 -10 281 -35q79 2 147 -40t86 -83q-18 -28 -64 -62t-59 -48q-29 -10 -53 -32t-32 -38q-9 -16 -26 -53t-24 -49
q-18 -10 -28 -9q0 -8 7 -10t9 -4q-4 -10 -17 -45t-27 -68t-22 -69q-8 -35 -18 -77t-10 -60t-5 -62t3 -65q-32 -146 6 -377q10 -72 24 -104t31 -82q17 -52 29 -74t48 -50q36 -27 46 -43q133 96 205 463q12 60 20 196t4 182t-7 165q-3 120 -32 211q0 2 -5 10t-7 15t1 34t0 36
t-19 29t-19 38q25 10 44 5t33 -6t24 -17q12 -16 18 -26q6 -9 12 -32t10 -37t7 -40q6 -38 22 -91t14 -105q-1 -51 5 -111t6 -67l-21 -41q9 -33 1 -53q-14 -38 -8 -141q6 -102 -19 -111q23 -51 -4 -100q-18 -233 -156 -414q4 -49 -28 -75t-83 -25l-10 -19q-20 2 -158 6
t-190 16q-52 11 -119 79q-67 69 -86 84q0 2 -3 12t5 10q-2 4 -18 4q-12 16 -19 45q-6 29 -9 37t-25 37t-19 59q4 30 -20 56q-4 25 -3 65t-14 62q2 2 6 14t11 17l-19 8q4 5 4 17t-14 40q8 18 10 106t-8 107q14 2 16 -12l15 8q-1 7 -11 6q-10 -2 -12 -2q6 31 -8 49q-2 8 12 8
q-6 6 1 29t-7 33q8 -2 11 4t6 6q-2 4 -23 8q6 35 31 92t27 76t-2 21q-5 2 -5 4q20 111 113 268l-19 10q14 14 33 13q-2 10 -12 14q119 166 121 170l180 -4q0 10 -83 10z" />
    <glyph glyph-name="Ocircumflex" unicode="&#xd4;" horiz-adv-x="1097" 
d="M758 1610h-15q-6 0 -10 2q-23 28 -77 98t-85 105l-10 -45q-22 -102 -68 -128q-22 -12 -53 -14q-4 2 -5 11t-5 14q38 24 55 101t23 95q27 84 70 90q4 0 26 -9t31 -15q10 -10 19 -47q10 -37 12 -42q43 -85 118 -181q8 -12 7 -21l-11 -10q-12 -4 -22 -4zM92 90q6 0 13 -3
t10 3q-16 37 -35 43q-4 -7 7 -19t5 -24zM47 209l2 -19q4 0 8 4t9 1q0 14 -19 14zM479 1116q22 -4 17 14q-10 0 -14 -3t-3 -11zM590 1423q12 1 46 7t58 4q-16 24 -58 18t-46 -29zM386 1456q-83 0 -85 4q10 8 24 35q13 27 25 35q248 -10 281 -35q79 2 147 -40t86 -83
q-18 -28 -64 -62t-59 -48q-29 -10 -53 -32t-32 -38q-9 -16 -26 -53t-24 -49q-18 -10 -28 -9q0 -8 7 -10t9 -4q-4 -10 -17 -45t-27 -68t-22 -69q-8 -35 -18 -77t-10 -60t-5 -62t3 -65q-32 -146 6 -377q10 -72 24 -104t31 -82q17 -52 29 -74t48 -50q36 -27 46 -43
q133 96 205 463q12 60 20 196t4 182t-7 165q-3 120 -32 211q0 2 -5 10t-7 15t1 34t0 36t-19 29t-19 38q25 10 44 5t33 -6t24 -17q12 -16 18 -26q6 -9 12 -32t10 -37t7 -40q6 -38 22 -91t14 -105q-1 -51 5 -111t6 -67l-21 -41q9 -33 1 -53q-14 -38 -8 -141q6 -102 -19 -111
q23 -51 -4 -100q-18 -233 -156 -414q4 -49 -28 -75t-83 -25l-10 -19q-20 2 -158 6t-190 16q-52 11 -119 79q-67 69 -86 84q0 2 -3 12t5 10q-2 4 -18 4q-12 16 -19 45q-6 29 -9 37t-25 37t-19 59q4 30 -20 56q-4 25 -3 65t-14 62q2 2 6 14t11 17l-19 8q4 5 4 17t-14 40
q8 18 10 106t-8 107q14 2 16 -12l15 8q-1 7 -11 6q-10 -2 -12 -2q6 31 -8 49q-2 8 12 8q-6 6 1 29t-7 33q8 -2 11 4t6 6q-2 4 -23 8q6 35 31 92t27 76t-2 21q-5 2 -5 4q20 111 113 268l-19 10q14 14 33 13q-2 10 -12 14q119 166 121 170l180 -4q0 10 -83 10z" />
    <glyph glyph-name="Otilde" unicode="&#xd5;" horiz-adv-x="1097" 
d="M639 1686v-9q-18 14 -27 29q-18 2 -51 11t-47 12q-61 6 -108 -31l-19 -19q-6 4 -14 0q0 37 4 37l2 4v25q47 63 120 77t132 -46q100 -51 180 -41q0 30 54 49q26 8 34 12q18 -29 17 -44t-11 -46t-8 -51q-78 -80 -166 -41q-2 2 -14 4t-12 12q47 -27 57 0q-53 14 -113 58
q0 -2 -5 0t-5 -2zM92 90q6 0 13 -3t10 3q-16 37 -35 43q-4 -7 7 -19t5 -24zM47 209l2 -19q4 0 8 4t9 1q0 14 -19 14zM479 1116q22 -4 17 14q-10 0 -14 -3t-3 -11zM590 1423q12 1 46 7t58 4q-16 24 -58 18t-46 -29zM386 1456q-83 0 -85 4q10 8 24 35q13 27 25 35
q248 -10 281 -35q79 2 147 -40t86 -83q-18 -28 -64 -62t-59 -48q-29 -10 -53 -32t-32 -38q-9 -16 -26 -53t-24 -49q-18 -10 -28 -9q0 -8 7 -10t9 -4q-4 -10 -17 -45t-27 -68t-22 -69q-8 -35 -18 -77t-10 -60t-5 -62t3 -65q-32 -146 6 -377q10 -72 24 -104t31 -82
q17 -52 29 -74t48 -50q36 -27 46 -43q133 96 205 463q12 60 20 196t4 182t-7 165q-3 120 -32 211q0 2 -5 10t-7 15t1 34t0 36t-19 29t-19 38q25 10 44 5t33 -6t24 -17q12 -16 18 -26q6 -9 12 -32t10 -37t7 -40q6 -38 22 -91t14 -105q-1 -51 5 -111t6 -67l-21 -41
q9 -33 1 -53q-14 -38 -8 -141q6 -102 -19 -111q23 -51 -4 -100q-18 -233 -156 -414q4 -49 -28 -75t-83 -25l-10 -19q-20 2 -158 6t-190 16q-52 11 -119 79q-67 69 -86 84q0 2 -3 12t5 10q-2 4 -18 4q-12 16 -19 45q-6 29 -9 37t-25 37t-19 59q4 30 -20 56q-4 25 -3 65
t-14 62q2 2 6 14t11 17l-19 8q4 5 4 17t-14 40q8 18 10 106t-8 107q14 2 16 -12l15 8q-1 7 -11 6q-10 -2 -12 -2q6 31 -8 49q-2 8 12 8q-6 6 1 29t-7 33q8 -2 11 4t6 6q-2 4 -23 8q6 35 31 92t27 76t-2 21q-5 2 -5 4q20 111 113 268l-19 10q14 14 33 13q-2 10 -12 14
q119 166 121 170l180 -4q0 10 -83 10z" />
    <glyph glyph-name="Odieresis" unicode="&#xd6;" horiz-adv-x="1097" 
d="M671 1670q-7 22 -7 53q0 32 20 64q20 31 25 40q14 0 18 -4q0 8 6 14t10 12q4 5 12 11q8 5 17 6q9 0 31 -8q27 -24 23 -100t-19 -90q-35 -36 -82 -28t-54 30zM512 1854q8 12 21 12q14 0 34 -8q27 -24 23 -100t-18 -90q-36 -36 -83 -28t-54 30t-7 54q0 33 20 64
q20 30 25 39q15 0 19 -4q0 8 6 14q6 5 14 17zM92 90q6 0 13 -3t10 3q-16 37 -35 43q-4 -7 7 -19t5 -24zM47 209l2 -19q4 0 8 4t9 1q0 14 -19 14zM479 1116q22 -4 17 14q-10 0 -14 -3t-3 -11zM590 1423q12 1 46 7t58 4q-16 24 -58 18t-46 -29zM386 1456q-83 0 -85 4
q10 8 24 35q13 27 25 35q248 -10 281 -35q79 2 147 -40t86 -83q-18 -28 -64 -62t-59 -48q-29 -10 -53 -32t-32 -38q-9 -16 -26 -53t-24 -49q-18 -10 -28 -9q0 -8 7 -10t9 -4q-4 -10 -17 -45t-27 -68t-22 -69q-8 -35 -18 -77t-10 -60t-5 -62t3 -65q-32 -146 6 -377
q10 -72 24 -104t31 -82q17 -52 29 -74t48 -50q36 -27 46 -43q133 96 205 463q12 60 20 196t4 182t-7 165q-3 120 -32 211q0 2 -5 10t-7 15t1 34t0 36t-19 29t-19 38q25 10 44 5t33 -6t24 -17q12 -16 18 -26q6 -9 12 -32t10 -37t7 -40q6 -38 22 -91t14 -105q-1 -51 5 -111
t6 -67l-21 -41q9 -33 1 -53q-14 -38 -8 -141q6 -102 -19 -111q23 -51 -4 -100q-18 -233 -156 -414q4 -49 -28 -75t-83 -25l-10 -19q-20 2 -158 6t-190 16q-52 11 -119 79q-67 69 -86 84q0 2 -3 12t5 10q-2 4 -18 4q-12 16 -19 45q-6 29 -9 37t-25 37t-19 59q4 30 -20 56
q-4 25 -3 65t-14 62q2 2 6 14t11 17l-19 8q4 5 4 17t-14 40q8 18 10 106t-8 107q14 2 16 -12l15 8q-1 7 -11 6q-10 -2 -12 -2q6 31 -8 49q-2 8 12 8q-6 6 1 29t-7 33q8 -2 11 4t6 6q-2 4 -23 8q6 35 31 92t27 76t-2 21q-5 2 -5 4q20 111 113 268l-19 10q14 14 33 13
q-2 10 -12 14q119 166 121 170l180 -4q0 10 -83 10z" />
    <glyph glyph-name="multiply" unicode="&#xd7;" horiz-adv-x="763" 
d="M608 559q-2 -2 -7 -4t-5 -17q0 -16 14 -48q14 -33 19 -46q-9 -28 -15 -30t-21 11t-34 19q2 2 12 6t-2 13q-4 8 -12 3t-10 -3q-25 39 -43 59t-41 56l-45 34q-113 -84 -152 -125q-2 1 -3 5q-6 22 -81 -13q-18 -8 -30 -12q-27 10 -30 15q-3 4 10 20t20 35q2 -3 6 -13t12 2
q8 4 3 12t-3 11q39 25 59 43t56 41q25 33 55 59q-94 90 -141 115q-35 -29 -78 47q17 59 37 55q26 -7 67 41q61 -31 135 -100l19 -12q2 -4 -2 -9l-28 21q-1 0 -13 4t-17 -4q49 -27 101 -74q78 86 94 121q-29 35 47 78q60 -17 55 -37q-6 -26 41 -68q-31 -61 -100 -135l-12 -18
q-4 -2 -8 2l20 27q0 2 4 14t-4 16q-33 -59 -59 -88q66 -88 110 -129z" />
    <glyph glyph-name="Oslash" unicode="&#xd8;" horiz-adv-x="1097" 
d="M479 1116q22 -4 17 14q-10 0 -14 -3t-3 -11zM47 209l2 -19q4 0 8 4t9 1q0 14 -19 14zM92 90q6 0 13 -3t10 3q-16 37 -35 43q-4 -7 7 -19t5 -24zM590 1423q12 1 46 7t58 4q-16 24 -58 18t-46 -29zM741 1262q-29 -10 -53 -32t-32 -38q-9 -16 -26 -53t-24 -49
q-18 -10 -28 -9q0 -8 7 -10t9 -4q-98 -245 -98 -377q94 196 173 352t81 160q27 88 28 92q-14 -9 -37 -32zM492 350q18 -169 35 -205q16 -35 32 -87q17 -52 29 -74t48 -50q36 -27 46 -43q133 96 205 463q12 60 20 196t4 182t-7 165q-3 120 -32 211q0 2 -5 10t-7 15t1 33
t-1 36q-55 -144 -173 -418t-195 -434zM386 1456q-83 0 -85 4q10 8 24 35q13 27 25 35q248 -10 281 -35q80 2 147 -41q39 -23 60 -43q20 55 26 90q2 2 12 1t11 7q4 17 -3 13t-14 2q22 19 34 42q7 11 32 -18q0 -8 -3 -53t2 -51t21 -12q-14 -68 -38 -102q-23 -34 -33 -56
q41 -8 57 -51q17 -43 25 -87q12 -64 27 -114t13 -101q-1 -51 5 -111t6 -67l-21 -41q9 -33 1 -53q-14 -38 -8 -141q6 -102 -19 -111q23 -51 -4 -100q-18 -233 -156 -414q4 -49 -28 -75t-83 -25l-10 -19q-20 2 -158 6t-185 15q-48 10 -109 68q-21 -33 -48 -62q-47 29 -61 21
q-13 -8 -29 -6t-43 40q4 16 5 22t7 19q5 13 7 15t9 12t13 5t19 -3l20 33q0 2 -2 12t4 10q-2 4 -18 4q-12 16 -19 45q-6 29 -9 37t-25 37t-19 59q4 30 -20 56q-4 16 -3 64t-14 63q2 2 6 14t11 17l-19 8q4 14 4 17l-14 40q8 18 10 106t-8 107q14 2 16 -12l15 8q-1 6 -11 5
t-12 -1q6 31 -8 49q-2 8 12 8q-6 6 1 29t-7 33q8 -2 11 4t6 6q-2 4 -23 8q6 35 31 92t27 76t-2 21q-5 2 -5 4q20 111 113 268l-19 10q14 14 33 13q-2 10 -12 14q119 166 121 170l180 -4q0 10 -83 10z" />
    <glyph glyph-name="Ugrave" unicode="&#xd9;" horiz-adv-x="999" 
d="M430 1948l6 26q22 6 54 -8t40 -16q0 2 -1 12t3 12q41 7 58 -35q4 -7 19 -52t83 -171l-35 -63q-45 25 -112 131q-4 8 -24 36t-37 62q-17 33 -27 45t-27 21zM426 120q0 12 -2 19q-12 4 -17 4q-12 0 -8 -12q13 0 19 -14t12 -17q-4 8 -4 20zM154 135q0 23 -23 19
q7 -29 23 -19zM391 586h19q-2 16 -14 14t-5 -14zM424 684l-14 -6q11 -8 13 -24q1 -15 3 -23q-4 0 -8 4t-6 4q14 -31 12 -142q-2 -112 -2 -120q-4 -4 -12 -4t-11 -8q2 -4 19 -5q2 -12 2 -67q-6 -6 -12 4t-11 10q-4 -4 2 -13t7 -13q4 -6 8 0t10 0q2 -10 -4 -35t8 -31
q-9 0 -25 -22q18 -14 21 -23q4 0 2 11t0 12q6 -1 10 -17t0 -18q-16 16 -22 16q-6 -2 -11 -12q1 -6 15 -8t16 -4q8 -61 8 -89q23 -12 55 -57t56 -57q20 8 37 0q86 63 119 215q59 221 59 579t-68 672h23q4 0 19 -6q14 -6 24 -8t11 8t9 10q10 -6 22 -19t23 -16h-6
q-17 -3 11 -26q-8 -2 -18 3t-17 5q10 -20 28 -27q8 -2 7 15q8 -4 10 -17q0 -10 -8 -2q20 -35 20 -57q-4 2 -10 18q-2 -10 -15 -11t-16 -3q0 -10 6 -6t13 2q3 -10 -7 -10q-8 0 -6 -5t19 -6q6 0 2 25q10 -4 13 -19t7 -24q-12 -8 -28 8q10 -27 26 -16q2 -9 -2 -21t6 -24
q-6 -6 -20 -4q2 -8 1 -14t5 -9q4 -8 7 0t9 4q2 -11 -2 -25q-5 -14 8 -14q4 -6 2 -12t2 -13q-2 3 -10 1t-16 -2q-2 12 -18 129q-6 -19 2 -75t8 -71q9 1 19 7q9 6 18 1q4 -25 -31 -12q-6 -8 -3 -24t15 -21q8 3 -3 6q-11 4 -7 13q12 10 27 4q-11 -22 -11 -123q10 8 13 -6
q10 -44 14 -52q0 -6 -8 -3t-15 3q0 -8 10 -12t9 -10q-16 -90 2 -188l-16 8l6 -27q0 -6 -9 -8l3 -6q2 -2 5 0t7 -2q-9 -39 -27 -279t-51 -313l10 -23q-47 -98 -85 -144q-71 -85 -179 -84t-377 60q-2 2 -15 27t-18 30q-4 5 -26 35t-62 41q-55 250 -53 414q10 231 -1 277
t-1 134q10 87 10 109l-12 93q-4 35 5 90t9 73q-22 25 -11 51t11 132t31 151l-10 27q37 22 151 -16t151 -59q38 -21 46 -21t17 -6t37 -33t42 -33q2 -23 19 -31q14 -76 -19 -92q0 -10 12 -10q5 0 7 -2q-20 -61 -33 -164q-8 2 -12 -1t-9 -3q10 -10 0 -40t-10 -36v-23
q0 -25 2 -12q0 -4 2 -16t-1 -18t-13 -1q16 -27 7 -73t-3 -68q-6 -6 -16 0q4 -3 14 -35q-8 0 -14 2t-13 -2q0 -16 17 -12l4 -27q-8 -6 -13 -1t-10 1q3 -12 12 -8t11 4q2 -6 2 -8zM879 1096h-1h1z" />
    <glyph glyph-name="Uacute" unicode="&#xda;" horiz-adv-x="999" 
d="M571 1610l-34 63q68 125 79 158q28 85 38 91q21 13 42 9q4 -2 3 -12t-1 -12q8 2 40 16t55 8q4 0 3 -12t3 -14q-27 -14 -48 -56t-42 -71q-20 -29 -25 -37q-68 -106 -113 -131zM426 120q0 12 -2 19q-12 4 -17 4q-12 0 -8 -12q13 0 19 -14t12 -17q-4 8 -4 20zM154 135
q0 23 -23 19q7 -29 23 -19zM391 586h19q-2 16 -14 14t-5 -14zM424 684l-14 -6q11 -8 13 -24q1 -15 3 -23q-4 0 -8 4t-6 4q14 -31 12 -142q-2 -112 -2 -120q-4 -4 -12 -4t-11 -8q2 -4 19 -5q2 -12 2 -67q-6 -6 -12 4t-11 10q-4 -4 2 -13t7 -13q4 -6 8 0t10 0q2 -10 -4 -35
t8 -31q-9 0 -25 -22q18 -14 21 -23q4 0 2 11t0 12q6 -1 10 -17t0 -18q-16 16 -22 16q-6 -2 -11 -12q1 -6 15 -8t16 -4q8 -61 8 -89q23 -12 55 -57t56 -57q20 8 37 0q86 63 119 215q59 221 59 579t-68 672h23q4 0 19 -6q14 -6 24 -8t11 8t9 10q10 -6 22 -19t23 -16h-6
q-17 -3 11 -26q-8 -2 -18 3t-17 5q10 -20 28 -27q8 -2 7 15q8 -4 10 -17q0 -10 -8 -2q20 -35 20 -57q-4 2 -10 18q-2 -10 -15 -11t-16 -3q0 -10 6 -6t13 2q3 -10 -7 -10q-8 0 -6 -5t19 -6q6 0 2 25q10 -4 13 -19t7 -24q-12 -8 -28 8q10 -27 26 -16q2 -9 -2 -21t6 -24
q-6 -6 -20 -4q2 -8 1 -14t5 -9q4 -8 7 0t9 4q2 -11 -2 -25q-5 -14 8 -14q4 -6 2 -12t2 -13q-2 3 -10 1t-16 -2q-2 12 -18 129q-6 -19 2 -75t8 -71q9 1 19 7q9 6 18 1q4 -25 -31 -12q-6 -8 -3 -24t15 -21q8 3 -3 6q-11 4 -7 13q12 10 27 4q-11 -22 -11 -123q10 8 13 -6
q10 -44 14 -52q0 -6 -8 -3t-15 3q0 -8 10 -12t9 -10q-16 -90 2 -188l-16 8l6 -27q0 -6 -9 -8l3 -6q2 -2 5 0t7 -2q-9 -39 -27 -279t-51 -313l10 -23q-47 -98 -85 -144q-71 -85 -179 -84t-377 60q-2 2 -15 27t-18 30q-4 5 -26 35t-62 41q-55 250 -53 414q10 231 -1 277
t-1 134q10 87 10 109l-12 93q-4 35 5 90t9 73q-22 25 -11 51t11 132t31 151l-10 27q37 22 151 -16t151 -59q38 -21 46 -21t17 -6t37 -33t42 -33q2 -23 19 -31q14 -76 -19 -92q0 -10 12 -10q5 0 7 -2q-20 -61 -33 -164q-8 2 -12 -1t-9 -3q10 -10 0 -40t-10 -36v-23
q0 -25 2 -12q0 -4 2 -16t-1 -18t-13 -1q16 -27 7 -73t-3 -68q-6 -6 -16 0q4 -3 14 -35q-8 0 -14 2t-13 -2q0 -16 17 -12l4 -27q-8 -6 -13 -1t-10 1q3 -12 12 -8t11 4q2 -6 2 -8zM879 1096h-1h1z" />
    <glyph glyph-name="Ucircumflex" unicode="&#xdb;" horiz-adv-x="999" 
d="M676 1610h-14q-6 0 -11 2q-23 28 -77 98t-85 105l-10 -45q-22 -102 -68 -128q-22 -12 -53 -14q-4 2 -5 11t-5 14q38 24 55 101t23 95q27 84 70 90q4 0 26 -9t31 -15q10 -10 19 -47q10 -37 12 -42q43 -85 118 -181q8 -12 7 -21l-11 -10q-12 -4 -22 -4zM426 120q0 12 -2 19
q-12 4 -17 4q-12 0 -8 -12q13 0 19 -14t12 -17q-4 8 -4 20zM154 135q0 23 -23 19q7 -29 23 -19zM391 586h19q-2 16 -14 14t-5 -14zM424 684l-14 -6q11 -8 13 -24q1 -15 3 -23q-4 0 -8 4t-6 4q14 -31 12 -142q-2 -112 -2 -120q-4 -4 -12 -4t-11 -8q2 -4 19 -5q2 -12 2 -67
q-6 -6 -12 4t-11 10q-4 -4 2 -13t7 -13q4 -6 8 0t10 0q2 -10 -4 -35t8 -31q-9 0 -25 -22q18 -14 21 -23q4 0 2 11t0 12q6 -1 10 -17t0 -18q-16 16 -22 16q-6 -2 -11 -12q1 -6 15 -8t16 -4q8 -61 8 -89q23 -12 55 -57t56 -57q20 8 37 0q86 63 119 215q59 221 59 579t-68 672
h23q4 0 19 -6q14 -6 24 -8t11 8t9 10q10 -6 22 -19t23 -16h-6q-17 -3 11 -26q-8 -2 -18 3t-17 5q10 -20 28 -27q8 -2 7 15q8 -4 10 -17q0 -10 -8 -2q20 -35 20 -57q-4 2 -10 18q-2 -10 -15 -11t-16 -3q0 -10 6 -6t13 2q3 -10 -7 -10q-8 0 -6 -5t19 -6q6 0 2 25q10 -4 13 -19
t7 -24q-12 -8 -28 8q10 -27 26 -16q2 -9 -2 -21t6 -24q-6 -6 -20 -4q2 -8 1 -14t5 -9q4 -8 7 0t9 4q2 -11 -2 -25q-5 -14 8 -14q4 -6 2 -12t2 -13q-2 3 -10 1t-16 -2q-2 12 -18 129q-6 -19 2 -75t8 -71q9 1 19 7q9 6 18 1q4 -25 -31 -12q-6 -8 -3 -24t15 -21q8 3 -3 6
q-11 4 -7 13q12 10 27 4q-11 -22 -11 -123q10 8 13 -6q10 -44 14 -52q0 -6 -8 -3t-15 3q0 -8 10 -12t9 -10q-16 -90 2 -188l-16 8l6 -27q0 -6 -9 -8l3 -6q2 -2 5 0t7 -2q-9 -39 -27 -279t-51 -313l10 -23q-47 -98 -85 -144q-71 -85 -179 -84t-377 60q-2 2 -15 27t-18 30
q-4 5 -26 35t-62 41q-55 250 -53 414q10 231 -1 277t-1 134q10 87 10 109l-12 93q-4 35 5 90t9 73q-22 25 -11 51t11 132t31 151l-10 27q37 22 151 -16t151 -59q38 -21 46 -21t17 -6t37 -33t42 -33q2 -23 19 -31q14 -76 -19 -92q0 -10 12 -10q5 0 7 -2q-20 -61 -33 -164
q-8 2 -12 -1t-9 -3q10 -10 0 -40t-10 -36v-23q0 -25 2 -12q0 -4 2 -16t-1 -18t-13 -1q16 -27 7 -73t-3 -68q-6 -6 -16 0q4 -3 14 -35q-8 0 -14 2t-13 -2q0 -16 17 -12l4 -27q-8 -6 -13 -1t-10 1q3 -12 12 -8t11 4q2 -6 2 -8zM879 1096h-1h1z" />
    <glyph glyph-name="Udieresis" unicode="&#xdc;" horiz-adv-x="999" 
d="M558 1670q-7 22 -7 54q1 33 21 64q20 30 24 39q14 0 18 -4q0 11 6 15q6 5 11 11q4 5 11 11t17 6q11 0 31 -8q27 -24 23 -100q-5 -76 -19 -90q-36 -36 -82 -28q-47 8 -54 30zM322 1670q-7 22 -7 53q1 32 21 63q20 32 24 41q15 0 19 -4q0 8 6 14q6 5 14 17t21 12t35 -8
q27 -24 23 -100t-19 -90q-35 -36 -99 -26q-31 6 -38 28zM426 120q0 12 -2 19q-12 4 -17 4q-12 0 -8 -12q13 0 19 -14t12 -17q-4 8 -4 20zM154 135q0 23 -23 19q7 -29 23 -19zM391 586h19q-2 16 -14 14t-5 -14zM424 684l-14 -6q11 -8 13 -24q1 -15 3 -23q-4 0 -8 4t-6 4
q14 -31 12 -142q-2 -112 -2 -120q-4 -4 -12 -4t-11 -8q2 -4 19 -5q2 -12 2 -67q-6 -6 -12 4t-11 10q-4 -4 2 -13t7 -13q4 -6 8 0t10 0q2 -10 -4 -35t8 -31q-9 0 -25 -22q18 -14 21 -23q4 0 2 11t0 12q6 -1 10 -17t0 -18q-16 16 -22 16q-6 -2 -11 -12q1 -6 15 -8t16 -4
q8 -61 8 -89q23 -12 55 -57t56 -57q20 8 37 0q86 63 119 215q59 221 59 579t-68 672h23q4 0 19 -6q14 -6 24 -8t11 8t9 10q10 -6 22 -19t23 -16h-6q-17 -3 11 -26q-8 -2 -18 3t-17 5q10 -20 28 -27q8 -2 7 15q8 -4 10 -17q0 -10 -8 -2q20 -35 20 -57q-4 2 -10 18
q-2 -10 -15 -11t-16 -3q0 -10 6 -6t13 2q3 -10 -7 -10q-8 0 -6 -5t19 -6q6 0 2 25q10 -4 13 -19t7 -24q-12 -8 -28 8q10 -27 26 -16q2 -9 -2 -21t6 -24q-6 -6 -20 -4q2 -8 1 -14t5 -9q4 -8 7 0t9 4q2 -11 -2 -25q-5 -14 8 -14q4 -6 2 -12t2 -13q-2 3 -10 1t-16 -2
q-2 12 -18 129q-6 -19 2 -75t8 -71q9 1 19 7q9 6 18 1q4 -25 -31 -12q-6 -8 -3 -24t15 -21q8 3 -3 6q-11 4 -7 13q12 10 27 4q-11 -22 -11 -123q10 8 13 -6q10 -44 14 -52q0 -6 -8 -3t-15 3q0 -8 10 -12t9 -10q-16 -90 2 -188l-16 8l6 -27q0 -6 -9 -8l3 -6q2 -2 5 0t7 -2
q-9 -39 -27 -279t-51 -313l10 -23q-47 -98 -85 -144q-71 -85 -179 -84t-377 60q-2 2 -15 27t-18 30q-4 5 -26 35t-62 41q-55 250 -53 414q10 231 -1 277t-1 134q10 87 10 109l-12 93q-4 35 5 90t9 73q-22 25 -11 51t11 132t31 151l-10 27q37 22 151 -16t151 -59
q38 -21 46 -21t17 -6t37 -33t42 -33q2 -23 19 -31q14 -76 -19 -92q0 -10 12 -10q5 0 7 -2q-20 -61 -33 -164q-8 2 -12 -1t-9 -3q10 -10 0 -40t-10 -36v-23q0 -25 2 -12q0 -4 2 -16t-1 -18t-13 -1q16 -27 7 -73t-3 -68q-6 -6 -16 0q4 -3 14 -35q-8 0 -14 2t-13 -2
q0 -16 17 -12l4 -27q-8 -6 -13 -1t-10 1q3 -12 12 -8t11 4q2 -6 2 -8zM879 1096h-1h1z" />
    <glyph glyph-name="Yacute" unicode="&#xdd;" horiz-adv-x="1236" 
d="M571 1610l-34 63q68 125 79 158q28 85 38 91q21 13 42 9q4 -2 3 -12t-1 -12q8 2 40 16t55 8q4 0 3 -12t3 -14q-27 -14 -48 -56t-42 -71q-20 -29 -25 -37q-68 -106 -113 -131zM561 164q-20 35 29 354q0 8 -2 30t7 39t11 25q0 8 -3 28t15 161q18 142 19 217q-8 47 -6 146
t-6 145q-62 -151 -103 -216q-42 -65 -64 -107t-50 -172t-35 -148q-6 -18 -39 -102q-33 -82 -44 -114t-29 -66q-26 -48 -68 -69q-25 -2 -76 27q-6 18 -27 79t-26 97t-2 88q3 51 -1 76t-6 79t-13 80q-10 25 -2 176q7 150 7 191q-2 182 51 330l21 -6q51 -9 67 -41
q4 -33 -12 -111q-37 -257 -43 -286q10 -90 13 -342t46 -318q59 78 125 264t80 217q10 75 56 158t91 197q46 114 79 168q-6 18 -5 32q2 14 -4 29q12 2 109 -8q2 -10 20 -45q18 -12 129 -45t131 -51q7 -29 45 -66t48 -63q14 -13 12 -97t-2 -88q23 -254 -27 -340
q6 -66 -13 -248t-13 -239q-1 -4 -9 -30t-18 -34q4 -49 0 -67t-22 -58t-24 -56q-5 -15 -13 -64q-9 -50 -17 -64t-26 -32t-24 -25q-6 -9 -4 -25q1 -16 -1 -21t-53 -104q-90 -164 -287 -180q-84 -9 -236 13t-215 57h-30q-8 14 -38 32t-38 33q0 -2 -12 -9t-15 9q2 2 4 5t11 -5
q0 6 -54 111q-4 8 5 11t10 7q-31 45 -35 58q54 7 114 -30q17 -11 51 -39t44 -34q133 -45 223 39q42 39 90 124t66 135t36 112t27 86z" />
    <glyph glyph-name="Thorn" unicode="&#xde;" horiz-adv-x="1040" 
d="M248 281q38 -6 98 12t57 22q-3 -6 -77 -19t-78 -15zM141 418q23 -16 29 12q-6 2 -10 19q-18 -4 -19 -7q10 -2 4 -11t-4 -13zM145 469q2 -16 25 -12q2 12 -8 16q-11 4 -17 -4zM487 769v-62q1 -10 5 -34t2 -36l-11 -62q1 -39 13 -119t10 -122q34 4 68 27q34 24 56 34t52 34
t43 36q12 12 47 52t39 45t37 44t46 68t1 75q-13 46 -35 70t-82 46t-74 28t-25 16q-14 13 -49 24q-34 11 -72 34q-38 24 -50 12q-21 -81 -21 -210zM53 35h8q2 8 -8 17q-1 78 -2 132q4 3 6 4q6 50 -5 136t1 118q-4 27 -8 27h-8q8 39 -1 124t5 114q0 8 -9 14t-9 12q2 82 -1 304
t-8 300q39 61 -57 150q20 20 20 61q11 -2 25 -11t18 -11q60 14 218 -14t223 -52q8 -2 2 -158t6 -159q40 -10 162 -58q113 -37 140 -55t73 -67t82 -62q10 -19 34 -79t46 -93q-10 -8 2 -57q0 -10 -16 -30t-9 -36q-15 -16 -69 -88t-97 -96q0 -4 2 -14q-18 4 -22 -16
q-2 -9 -8 -14t-53 -22t-100 -55q-52 -37 -106 -63q-20 -12 -41 -72q17 -92 25 -162t29 -166q-55 -32 -247 -30t-243 47v180zM49 40q0 2 1 14q3 -3 3 -19l-4 2v3zM48 38q-2 -7 -5 -3q0 5 5 3zM50 54q-6 4 -9 5q-4 2 6 11q-27 12 -63 8q-6 16 -33 30t-33 19q63 0 97 30
q9 7 17 11t17 14l2 -28q1 -71 -1 -100zM50 208q0 -24 -1 -26l-8 102l8 -22q1 -30 1 -54zM41 284v1v-1z" />
    <glyph glyph-name="germandbls" unicode="&#xdf;" horiz-adv-x="956" 
d="M424 -115v-45q-2 -12 -2 -37q-35 23 -176 35t-170 27q-39 80 -57 273q-23 235 -23 284v57q0 189 42 355q73 291 249 468q175 177 344 177h80q10 -5 27 -21t28 -22q55 -100 60 -148q6 -48 10 -128q4 -81 -12 -257t-46 -254q-35 -69 -131 -153q3 -19 22 -28t25 -15
q45 -49 74 -243t3 -270q-5 -15 -5 -18l-10 -65q-41 -57 -121 -75t-160 19q0 10 14 45v9q27 -12 46 -11q31 2 63 58t44 122q11 64 -16 219q-28 155 -69 187q-14 12 -65 31l2 31q2 23 14 53q10 4 30 16t23 14q129 76 144 267q10 133 10 323q-9 213 -45 244h-8
q-121 -174 -201 -848q-25 -63 -17 -123q-4 -63 -16 -538q-4 -4 -4 -15z" />
    <glyph glyph-name="agrave" unicode="&#xe0;" horiz-adv-x="905" 
d="M283 1161l6 27q23 6 55 -8t39 -17q0 3 -1 13t3 12q34 6 49 -21q13 -21 28 -67q15 -45 83 -170l-35 -64q-45 25 -113 131q-4 8 -21 33q-25 36 -45 77q-20 40 -48 54zM368 582q-9 0 -6 12q-80 -24 -140 -108t-44 -212h25q27 14 53 58t35 55l-2 2l4 4h2q6 12 42 75t44 112
q-4 2 -13 2zM946 666q14 8 33 -29q2 -14 -69 -265t-88 -301t-30 -105t-30 -70q-41 -33 -123 -20t-137 50q-55 70 -73 152q-17 82 -13 200t2 150q-151 -292 -182 -301q-82 -20 -156 42q-151 127 -61 338q48 110 119 160t151 25q84 -53 125 -59q16 45 78 49t126 -31
q66 -35 89 -92q4 -8 3 -21q-1 -14 1 -22t9 -20t9 -41t-5 -172t9 -174q55 59 156 397q9 32 31 90t26 70z" />
    <glyph glyph-name="aacute" unicode="&#xe1;" horiz-adv-x="905" 
d="M375 874l-35 64q68 126 79 158q29 85 39 90q21 13 42 10q4 -2 3 -12t-1 -13q8 3 40 17t54 8q4 0 3 -12t3 -15q-28 -14 -46 -51l-21 -41q-11 -19 -48 -71q-68 -106 -112 -132zM368 582q-9 0 -6 12q-80 -24 -140 -108t-44 -212h25q27 14 53 58t35 55l-2 2l4 4h2q6 12 42 75
t44 112q-4 2 -13 2zM946 666q14 8 33 -29q2 -14 -69 -265t-88 -301t-30 -105t-30 -70q-41 -33 -123 -20t-137 50q-55 70 -73 152q-17 82 -13 200t2 150q-151 -292 -182 -301q-82 -20 -156 42q-151 127 -61 338q48 110 119 160t151 25q84 -53 125 -59q16 45 78 49t126 -31
q66 -35 89 -92q4 -8 3 -21q-1 -14 1 -22t9 -20t9 -41t-5 -172t9 -174q55 59 156 397q9 32 31 90t26 70z" />
    <glyph glyph-name="acircumflex" unicode="&#xe2;" horiz-adv-x="905" 
d="M627 854h-15q-6 0 -10 2q-23 28 -77 98t-85 105q-2 -8 -10 -44q-23 -103 -69 -128q-22 -12 -52 -15q-4 2 -5 12t-5 13q39 25 66 152q26 127 81 135q4 0 27 -9t32 -17t18 -46q9 -37 11 -42q41 -82 119 -181q8 -12 6 -21l-10 -10q-12 -4 -22 -4zM368 582q-9 0 -6 12
q-80 -24 -140 -108t-44 -212h25q27 14 53 58t35 55l-2 2l4 4h2q6 12 42 75t44 112q-4 2 -13 2zM946 666q14 8 33 -29q2 -14 -69 -265t-88 -301t-30 -105t-30 -70q-41 -33 -123 -20t-137 50q-55 70 -73 152q-17 82 -13 200t2 150q-151 -292 -182 -301q-82 -20 -156 42
q-151 127 -61 338q48 110 119 160t151 25q84 -53 125 -59q16 45 78 49t126 -31q66 -35 89 -92q4 -8 3 -21q-1 -14 1 -22t9 -20t9 -41t-5 -172t9 -174q55 59 156 397q9 32 31 90t26 70z" />
    <glyph glyph-name="atilde" unicode="&#xe3;" horiz-adv-x="905" 
d="M453 965v-9q-18 14 -27 29q-18 2 -51 11t-47 12q-61 6 -109 -31l-18 -19q-8 4 -15 0q0 39 2 37q3 -3 5 4v25q47 62 119 76t132 -45q100 -51 181 -41q0 30 54 49q26 8 34 12q18 -29 17 -44t-11 -46t-8 -51q-78 -80 -166 -41q-3 2 -15 4t-12 12q47 -27 57 0q-53 14 -112 58
q0 -2 -5 0t-5 -2zM368 582q-9 0 -6 12q-80 -24 -140 -108t-44 -212h25q27 14 53 58t35 55l-2 2l4 4h2q6 12 42 75t44 112q-4 2 -13 2zM946 666q14 8 33 -29q2 -14 -69 -265t-88 -301t-30 -105t-30 -70q-41 -33 -123 -20t-137 50q-55 70 -73 152q-17 82 -13 200t2 150
q-151 -292 -182 -301q-82 -20 -156 42q-151 127 -61 338q48 110 119 160t151 25q84 -53 125 -59q16 45 78 49t126 -31q66 -35 89 -92q4 -8 3 -21q-1 -14 1 -22t9 -20t9 -41t-5 -172t9 -174q55 59 156 397q9 32 31 90t26 70z" />
    <glyph glyph-name="adieresis" unicode="&#xe4;" horiz-adv-x="905" 
d="M627 1094q27 -24 23 -100t-19 -90q-14 -14 -41 -23q-27 -8 -58 -2q-32 6 -38 27q-18 58 -4 84q14 28 26 46t16 27q15 0 19 -4q0 8 6 14q6 5 14 17t21 12t35 -8zM259 906q-7 21 -7 54t20 64q20 30 25 39q14 0 18 -4q1 11 7 15q6 5 10 11q4 5 11 11t17 6q11 0 31 -8
q27 -24 23 -100t-18 -90q-37 -37 -99 -25q-31 6 -38 27zM368 582q-9 0 -6 12q-80 -24 -140 -108t-44 -212h25q27 14 53 58t35 55l-2 2l4 4h2q6 12 42 75t44 112q-4 2 -13 2zM946 666q14 8 33 -29q2 -14 -69 -265t-88 -301t-30 -105t-30 -70q-41 -33 -123 -20t-137 50
q-55 70 -73 152q-17 82 -13 200t2 150q-151 -292 -182 -301q-82 -20 -156 42q-151 127 -61 338q48 110 119 160t151 25q84 -53 125 -59q16 45 78 49t126 -31q66 -35 89 -92q4 -8 3 -21q-1 -14 1 -22t9 -20t9 -41t-5 -172t9 -174q55 59 156 397q9 32 31 90t26 70z" />
    <glyph glyph-name="aring" unicode="&#xe5;" horiz-adv-x="905" 
d="M428 1044q-6 4 -20 5q-4 -8 -24 -38t-21 -64q-2 -74 46 -83q61 -12 97 24q14 14 21 90q7 75 -23 101q-54 19 -76 -35zM582 1116q29 -80 12 -207q-2 -12 -9 -30t-10 -29q-23 -66 -107 -67t-163 79q-76 172 62 283q27 -6 28 -8q23 37 81 25t106 -46zM368 582q-9 0 -6 12
q-80 -24 -140 -108t-44 -212h25q27 14 53 58t35 55l-2 2l4 4h2q6 12 42 75t44 112q-4 2 -13 2zM946 666q14 8 33 -29q2 -14 -69 -265t-88 -301t-30 -105t-30 -70q-41 -33 -123 -20t-137 50q-55 70 -73 152q-17 82 -13 200t2 150q-151 -292 -182 -301q-82 -20 -156 42
q-151 127 -61 338q48 110 119 160t151 25q84 -53 125 -59q16 45 78 49t126 -31q66 -35 89 -92q4 -8 3 -21q-1 -14 1 -22t9 -20t9 -41t-5 -172t9 -174q55 59 156 397q9 32 31 90t26 70z" />
    <glyph glyph-name="ae" unicode="&#xe6;" horiz-adv-x="905" 
d="M860 555q-52 -31 -72 -91t-32 -159q120 33 104 250zM293 393h2q6 12 42 75t44 112q-4 2 -13 2t-6 12q-80 -24 -140 -108t-44 -212h25q27 14 53 58t35 55l-2 2q4 0 4 4zM1268 674q18 -22 12 -48t-50 -124t-42 -131q-8 -13 -50 -107t-81 -135q-66 -104 -117 -145t-115 -52
q-113 -22 -197 12t-131 110q-95 156 -89 356q-138 -273 -172 -283q-82 -20 -156 42q-151 127 -61 338q48 110 119 160t151 25q43 -29 164 -49q33 74 47 94q45 59 131 46t173 -61t130 -97q70 -176 8 -275q-4 -6 -17 -13t-19 -14t-17 -30q-9 -23 -19 -30t-27 -13t-49 -11
t-36 -8q-4 -154 71 -206h7q4 -5 20 -11t38 1t28 28h-2l2 2l6 10q8 2 14 8q59 72 70 93q135 233 225 542l8 -6q5 0 23 -18z" />
    <glyph glyph-name="ccedilla" unicode="&#xe7;" horiz-adv-x="735" 
d="M338 -14q-14 8 -37 2q-7 -34 -41 -106q-23 4 -49 9q-104 47 -160 164q-55 117 -51 250q0 13 25 153t16 171q2 2 7 11t15 9q-8 7 -7 15t-3 18q44 102 81 146q36 45 73 67q242 -8 352 -129q98 -244 4 -387q-24 -6 -42 10q-19 16 -25 19q4 162 -11 225q-41 -47 -75 -161
t-28 -252q5 -138 69 -220q35 0 63 51q58 105 141 318q82 212 101 297q4 -4 9 -5t25 -22t16 -45q-5 -24 -43 -123q-38 -100 -32 -133q-13 -26 -62 -141t-126 -210q-47 -57 -113 -87q-88 -39 -118 -24q26 63 26 110zM252 -334l16 -10q4 -39 -20 -65q-24 -25 -74 -25
q-49 0 -89 31t-50 73q-4 0 -4 -4q-51 111 75 191q4 0 8 -2t13 3q11 5 31 7t52 0t40 -2q5 10 10 19q28 -5 52 -6q-14 -34 -36 -73q-2 0 -6 2t-6 0q6 -12 -1 -21t-7 -15q-45 23 -91 -3t-46 -71l-8 -17q2 -41 64 -43t77 31z" />
    <glyph glyph-name="egrave" unicode="&#xe8;" horiz-adv-x="702" 
d="M180 1161l6 27q23 6 55 -8t40 -17q0 3 -1 13t3 12q34 6 46 -15t17 -36q6 -16 17 -49t79 -158l-34 -64q-45 25 -113 131q-4 8 -22 34t-37 62t-29 48t-27 20zM451 555q-51 -31 -71 -91t-34 -159q121 33 105 250zM858 674q18 -22 12 -48t-50 -124t-42 -131q-8 -13 -50 -107
t-81 -135q-66 -104 -117 -145t-114 -52q-109 -24 -194 10t-129 104t-70 159q-40 134 -7 356q8 35 32 92t42 84q45 59 131 46t173 -61t130 -97q70 -176 8 -275q-4 -6 -21 -15t-29 -37q-13 -28 -22 -35q-8 -7 -26 -13t-50 -11t-36 -8q-4 -154 72 -206h6q3 -3 21 -10t39 1
t26 28q0 -1 -2 -1q4 4 8 12q10 2 42 41t42 60q135 233 225 542q5 -4 9 -5t22 -19z" />
    <glyph glyph-name="eacute" unicode="&#xe9;" horiz-adv-x="702" 
d="M313 874l-34 64q68 126 79 158q29 86 38 91q21 13 42 9q4 -2 3 -12t-1 -13q8 3 40 17t55 8q4 0 3 -12t3 -15q-27 -14 -50 -58q-23 -45 -42 -71q-19 -27 -23 -34q-68 -106 -113 -132zM451 555q-51 -31 -71 -91t-34 -159q121 33 105 250zM858 674q18 -22 12 -48t-50 -124
t-42 -131q-8 -13 -50 -107t-81 -135q-66 -104 -117 -145t-114 -52q-109 -24 -194 10t-129 104t-70 159q-40 134 -7 356q8 35 32 92t42 84q45 59 131 46t173 -61t130 -97q70 -176 8 -275q-4 -6 -21 -15t-29 -37q-13 -28 -22 -35q-8 -7 -26 -13t-50 -11t-36 -8
q-4 -154 72 -206h6q3 -3 21 -10t39 1t26 28q0 -1 -2 -1q4 4 8 12q10 2 42 41t42 60q135 233 225 542q5 -4 9 -5t22 -19z" />
    <glyph glyph-name="ecircumflex" unicode="&#xea;" horiz-adv-x="702" 
d="M483 854h-14q-6 0 -10 2q-23 28 -77 98t-85 105q-2 -8 -10 -44q-10 -45 -34 -91t-87 -52q-4 2 -5 12t-5 13q39 25 66 152q26 127 81 135q4 0 27 -9q24 -9 32 -17t18 -46q10 -37 11 -42q24 -59 119 -181q8 -12 6 -21l-10 -10q-12 -4 -23 -4zM451 555q-51 -31 -71 -91
t-34 -159q121 33 105 250zM858 674q18 -22 12 -48t-50 -124t-42 -131q-8 -13 -50 -107t-81 -135q-66 -104 -117 -145t-114 -52q-109 -24 -194 10t-129 104t-70 159q-40 134 -7 356q8 35 32 92t42 84q45 59 131 46t173 -61t130 -97q70 -176 8 -275q-4 -6 -21 -15t-29 -37
q-13 -28 -22 -35q-8 -7 -26 -13t-50 -11t-36 -8q-4 -154 72 -206h6q3 -3 21 -10t39 1t26 28q0 -1 -2 -1q4 4 8 12q10 2 42 41t42 60q135 233 225 542q5 -4 9 -5t22 -19z" />
    <glyph glyph-name="edieresis" unicode="&#xeb;" horiz-adv-x="702" 
d="M469 1090q8 12 21 12q14 0 34 -8q27 -24 23 -100q-5 -76 -19 -90q-37 -37 -98 -25q-31 6 -38 27t-7 54q1 33 21 64q20 30 24 39q15 0 19 -4q0 8 6 14q6 5 14 17zM157 906q-7 21 -7 53t20 64q20 31 25 40q14 0 18 -4q0 8 6 14t10 12q4 5 12 11t17 6t31 -8q27 -24 23 -100
t-19 -90q-36 -37 -98 -25q-31 6 -38 27zM451 555q-51 -31 -71 -91t-34 -159q121 33 105 250zM858 674q18 -22 12 -48t-50 -124t-42 -131q-8 -13 -50 -107t-81 -135q-66 -104 -117 -145t-114 -52q-109 -24 -194 10t-129 104t-70 159q-40 134 -7 356q8 35 32 92t42 84
q45 59 131 46t173 -61t130 -97q70 -176 8 -275q-4 -6 -21 -15t-29 -37q-13 -28 -22 -35q-8 -7 -26 -13t-50 -11t-36 -8q-4 -154 72 -206h6q3 -3 21 -10t39 1t26 28q0 -1 -2 -1q4 4 8 12q10 2 42 41t42 60q135 233 225 542q5 -4 9 -5t22 -19z" />
    <glyph glyph-name="igrave" unicode="&#xec;" horiz-adv-x="638" 
d="M365 1282l-35 -63q-45 25 -113 131q-4 8 -21 32q-24 35 -45 76t-49 55q4 3 3 15t4 12q23 6 55 -8t39 -16q0 2 -1 12t3 12q40 7 57 -35q4 -8 19 -53t84 -170zM742 666h20q8 -44 8 -58t-8 -49t-10 -45q-8 -63 -163 -358t-198 -340q-240 -29 -293 112q-4 14 -21 47t-21 45
t-9 59q-6 48 -22 71q8 47 -8 93q-15 45 -11 77t2 32q-6 -2 -8 2q14 72 14 123q10 12 6 33q31 154 41 178q150 -2 299 -137q20 -57 9 -148q-14 -59 -4 -182t43 -194q53 51 98 132t100 211t68 154q-10 6 -8 16q2 9 -2 17q4 0 10 -2t10 -2q-13 34 -5 48q7 13 21 11
q-14 14 -13 20t9 21q8 14 9 23q31 -10 37 -10zM91 964l26 171q12 0 29 19t24 24q47 -6 176 -43q4 -5 8 -13t8 -14t5 -23q66 -41 88 -73q-6 -16 -36 -79t-29 -96q1 -32 3 -71q-25 6 -87 17t-95 19q-92 21 -143 81q2 8 16 0t25 -4q-18 59 -18 85z" />
    <glyph glyph-name="iacute" unicode="&#xed;" horiz-adv-x="638" 
d="M211 1255l-35 64q68 125 84 172t18 51q3 4 9 14q16 26 49 21q4 -3 3 -13t-1 -12q8 2 40 16t54 9q4 0 3 -12t3 -15q-26 -13 -49 -58q-24 -45 -42 -71q-19 -27 -23 -35q-68 -106 -113 -131zM742 666h20q8 -44 8 -58t-8 -49t-10 -45q-8 -63 -163 -358t-198 -340
q-240 -29 -293 112q-4 14 -21 47t-21 45t-9 59q-6 48 -22 71q8 47 -8 93q-15 45 -11 77t2 32q-6 -2 -8 2q14 72 14 123q10 12 6 33q31 154 41 178q150 -2 299 -137q20 -57 9 -148q-14 -59 -4 -182t43 -194q53 51 98 132t100 211t68 154q-10 6 -8 16q2 9 -2 17q4 0 10 -2
t10 -2q-13 34 -5 48q7 13 21 11q-14 14 -13 20t9 21q8 14 9 23q31 -10 37 -10zM91 964l26 171q12 0 29 19t24 24q47 -6 176 -43q4 -5 8 -13t8 -14t5 -23q66 -41 88 -73q-6 -16 -36 -79t-29 -96q1 -32 3 -71q-25 6 -87 17t-95 19q-92 21 -143 81q2 8 16 0t25 -4
q-18 59 -18 85z" />
    <glyph glyph-name="icircumflex" unicode="&#xee;" horiz-adv-x="638" 
d="M451 1260h-15q-6 0 -10 2q-23 28 -77 98t-85 104q-2 -8 -10 -44q-23 -103 -69 -128q-22 -12 -52 -14q-4 2 -5 11t-5 14q39 25 65 152t82 134q4 0 27 -9t31 -15q10 -10 19 -47t11 -42q24 -61 119 -182q8 -12 6 -20l-10 -10q-12 -4 -22 -4zM742 666h20q8 -44 8 -58t-8 -49
t-10 -45q-8 -63 -163 -358t-198 -340q-240 -29 -293 112q-4 14 -21 47t-21 45t-9 59q-6 48 -22 71q8 47 -8 93q-15 45 -11 77t2 32q-6 -2 -8 2q14 72 14 123q10 12 6 33q31 154 41 178q150 -2 299 -137q20 -57 9 -148q-14 -59 -4 -182t43 -194q53 51 98 132t100 211t68 154
q-10 6 -8 16q2 9 -2 17q4 0 10 -2t10 -2q-13 34 -5 48q7 13 21 11q-14 14 -13 20t9 21q8 14 9 23q31 -10 37 -10zM91 964l26 171q12 0 29 19t24 24q47 -6 176 -43q4 -5 8 -13t8 -14t5 -23q66 -41 88 -73q-6 -16 -36 -79t-29 -96q1 -32 3 -71q-25 6 -87 17t-95 19
q-92 21 -143 81q2 8 16 0t25 -4q-18 59 -18 85z" />
    <glyph glyph-name="idieresis" unicode="&#xef;" horiz-adv-x="638" 
d="M331 1320q-7 22 -7 53q0 32 20 64q20 31 25 40q14 0 18 -4q0 8 6 14t10 12t16 13t44 -5q27 -25 23 -100t-19 -89q-14 -14 -41 -24q-28 -8 -58 -2t-37 28zM95 1320q-7 22 -7 54q0 33 20 64q20 30 25 39q15 0 19 -4q0 8 6 14t10 12t14 13q12 8 45 -5q27 -25 23 -100
t-18 -89t-42 -24q-28 -8 -58 -2t-37 28zM742 666h20q8 -44 8 -58t-8 -49t-10 -45q-8 -63 -163 -358t-198 -340q-240 -29 -293 112q-4 14 -21 47t-21 45t-9 59q-6 48 -22 71q8 47 -8 93q-15 45 -11 77t2 32q-6 -2 -8 2q14 72 14 123q10 12 6 33q31 154 41 178
q150 -2 299 -137q20 -57 9 -148q-14 -59 -4 -182t43 -194q53 51 98 132t100 211t68 154q-10 6 -8 16q2 9 -2 17q4 0 10 -2t10 -2q-13 34 -5 48q7 13 21 11q-14 14 -13 20t9 21q8 14 9 23q31 -10 37 -10zM91 964l26 171q12 0 29 19t24 24q47 -6 176 -43q4 -5 8 -13t8 -14
t5 -23q66 -41 88 -73q-6 -16 -36 -79t-29 -96q1 -32 3 -71q-25 6 -87 17t-95 19q-92 21 -143 81q2 8 16 0t25 -4q-18 59 -18 85z" />
    <glyph glyph-name="eth" unicode="&#xf0;" horiz-adv-x="894" 
d="M195 358l-15 -88q0 -81 46 -138q17 -22 47 -56t40 -47q32 -1 58 27t35 34q49 106 60 168t15 260q8 184 -41 227q-20 17 -78 -19t-78 -66q-57 -81 -66 -130t-11 -63t-6 -54t-6 -55zM-31 950h9q10 0 14 -8q18 8 71 38t68 36q6 10 154 102q-70 119 -148 203l23 15
q55 37 65 54t15 29q14 9 51 25t59 36t31 52q80 59 125 6q35 -74 133 -209l23 14q59 49 83 54q15 12 27 21t31 28l4 -4q4 -2 9 1t1 6t-4 5q11 0 21 5t12 3t4 -16q-33 -45 -32 -48t3 -7q4 0 4 -2q-26 -26 -47 -35q-22 -10 -37 -19q-43 -35 -69 -53q55 -82 82 -141q0 -8 -6 -6
q-4 4 -5 0l-2 -7q18 -3 19 -26q2 -24 6 -31q-12 -4 -12 7q0 3 -4 -3q4 -39 28 -97t27 -91q4 -2 10 1t10 3q0 -29 13 -127q6 -82 -6 -138t-15 -114q-2 -58 -6 -72t-10 -32t-6 -27l10 -12q-2 -4 -14 -25t2 -20q2 0 4 4q-49 -176 -113 -246q-37 -41 -115 -90t-108 -78
q-9 0 -27 -9q-68 -35 -152 -14t-128 54q-16 27 -64 71t-63 74l-10 109q1 29 14 63q-25 133 59 296q99 192 254 225q33 7 51 20q3 -4 19 -6t20 2q-53 141 -110 252q-84 -51 -99 -56q-43 -29 -51 -28q0 -10 -8 -15q-2 6 -6 4h-2q-20 -14 -58 -28t-49 -21q8 -8 33 4
q4 -8 -12 -8q-31 -25 -82 -37q-20 32 -32 30t-15 34q20 20 26 20z" />
    <glyph glyph-name="ntilde" unicode="&#xf1;" horiz-adv-x="827" 
d="M125 971v24q47 63 120 77t132 -46q100 -51 180 -41q0 32 54 49q26 8 34 13q17 -29 17 -45t-10 -46q-10 -31 -9 -51q-78 -80 -166 -41q-2 2 -14 4t-12 13q47 -27 57 0q-53 14 -113 57q0 -2 -5 0t-5 -2v-8q-18 14 -27 28q-18 2 -51 12t-47 11q-61 6 -108 -31l-19 -18
q-6 4 -14 0q0 39 2 37t3 -1t1 5zM383 487q0 -23 -8 -69q8 14 55 76t81 110q34 49 71 61q37 11 81 -12t60 -59q12 -45 7 -73t-20 -93t-8 -85q7 -21 5 -30l-5 -190q25 -16 37 -8t15 18q2 10 5 32q3 21 19 47t71 228q56 202 66 226q43 -41 19 -121q-66 -118 -99 -350
q-11 -70 -59 -117t-137 -35q-54 7 -56 39q-1 12 -2 42t-6 52q-14 78 13 223t24 185q-25 -4 -37 -19q-12 -14 -16 -18t-14 -23l-10 -18q-100 -166 -154 -316q-25 -166 -29 -327q6 -9 10 -17t13 -14q-140 -46 -254 -1q-63 26 -92 85q-19 37 -25 100q-6 62 -4 70t6 9t9 3t5 35
q12 53 -12 135q2 18 14 50q11 32 16 54t9 122q6 6 6 11t-4 17v4q2 4 2 10t-8 13l31 102l-6 46q0 11 10 18q12 2 38 -9q26 -12 39 -16t19 10l2 2l2 -2q10 -4 4 -10q57 -37 185 -84q-6 -20 -3 -32t25 -21q-6 -43 -6 -66z" />
    <glyph glyph-name="ograve" unicode="&#xf2;" horiz-adv-x="653" 
d="M139 1161l6 27q23 6 55 -8t40 -17q0 3 -1 13t3 12q34 6 46 -15t17 -36q6 -16 17 -49t79 -158l-34 -64q-45 25 -113 131q-4 8 -22 34t-37 62t-29 48t-27 20zM311 135q25 -45 76 -6q110 81 92 320q-53 11 -99 50q-46 38 -56 44q-64 -104 -57 -255q5 -83 44 -153zM449 532
q-19 53 -47 77t-52 -13q54 -46 99 -64zM573 430q-4 -27 -27 -111t-21 -103q1 -19 0 -21q-1 -3 -12 -13t-18 -36t-38 -69q-31 -42 -73 -59q-43 -16 -67 -16l-53 10q21 0 -34 10q-56 10 -92 34q-64 43 -84 111q-21 68 -34 165t-20 143v8q36 181 157 220q76 24 175 -4
q20 -5 66 -20t57 -17q57 -59 102 -179q68 0 158 133q33 49 43 56q2 -2 16 -6q-4 0 6 -17t6 -24q-31 -79 -86 -137t-127 -58z" />
    <glyph glyph-name="oacute" unicode="&#xf3;" horiz-adv-x="653" 
d="M231 874l-34 64q68 126 79 158q29 86 38 91q21 13 42 9q4 -2 3 -12t-1 -13q8 3 40 17t55 8q4 0 3 -12t3 -15q-29 -14 -47 -51q-27 -54 -68 -112q-68 -106 -113 -132zM311 135q25 -45 76 -6q110 81 92 320q-53 11 -99 50q-46 38 -56 44q-64 -104 -57 -255q5 -83 44 -153z
M449 532q-19 53 -47 77t-52 -13q54 -46 99 -64zM573 430q-4 -27 -27 -111t-21 -103q1 -19 0 -21q-1 -3 -12 -13t-18 -36t-38 -69q-31 -42 -73 -59q-43 -16 -67 -16l-53 10q21 0 -34 10q-56 10 -92 34q-64 43 -84 111q-21 68 -34 165t-20 143v8q36 181 157 220q76 24 175 -4
q20 -5 66 -20t57 -17q57 -59 102 -179q68 0 158 133q33 49 43 56q2 -2 16 -6q-4 0 6 -17t6 -24q-31 -79 -86 -137t-127 -58z" />
    <glyph glyph-name="ocircumflex" unicode="&#xf4;" horiz-adv-x="653" 
d="M463 854h-14q-6 0 -11 2q-23 28 -77 98t-85 105q-2 -8 -10 -44q-23 -102 -68 -128q-22 -12 -53 -15q-4 2 -5 12t-5 13q38 24 55 101t23 96q27 84 70 90q5 0 27 -9t31 -17t18 -46q9 -37 11 -42q38 -77 119 -181q8 -12 7 -21l-11 -10q-12 -4 -22 -4zM311 135q25 -45 76 -6
q110 81 92 320q-53 11 -99 50q-46 38 -56 44q-64 -104 -57 -255q5 -83 44 -153zM449 532q-19 53 -47 77t-52 -13q54 -46 99 -64zM573 430q-4 -27 -27 -111t-21 -103q1 -19 0 -21q-1 -3 -12 -13t-18 -36t-38 -69q-31 -42 -73 -59q-43 -16 -67 -16l-53 10q21 0 -34 10
q-56 10 -92 34q-64 43 -84 111q-21 68 -34 165t-20 143v8q36 181 157 220q76 24 175 -4q20 -5 66 -20t57 -17q57 -59 102 -179q68 0 158 133q33 49 43 56q2 -2 16 -6q-4 0 6 -17t6 -24q-31 -79 -86 -137t-127 -58z" />
    <glyph glyph-name="otilde" unicode="&#xf5;" horiz-adv-x="653" 
d="M49 999v25q47 62 120 76t132 -45q100 -51 180 -41q0 30 55 49q26 8 33 12q17 -29 17 -44t-10 -46t-9 -51q-78 -80 -166 -41q-2 1 -14 3t-12 13q47 -27 57 0q-53 14 -113 58q0 -2 -5 0t-5 -2v-9q-18 14 -26 29q-17 2 -51 11t-48 12q-61 6 -108 -31l-19 -19q-8 4 -14 0
q0 39 2 37t3 -1t1 5zM311 135q25 -45 76 -6q110 81 92 320q-53 11 -99 50q-46 38 -56 44q-64 -104 -57 -255q5 -83 44 -153zM449 532q-19 53 -47 77t-52 -13q54 -46 99 -64zM573 430q-4 -27 -27 -111t-21 -103q1 -19 0 -21q-1 -3 -12 -13t-18 -36t-38 -69q-31 -42 -73 -59
q-43 -16 -67 -16l-53 10q21 0 -34 10q-56 10 -92 34q-64 43 -84 111q-21 68 -34 165t-20 143v8q36 181 157 220q76 24 175 -4q20 -5 66 -20t57 -17q57 -59 102 -179q68 0 158 133q33 49 43 56q2 -2 16 -6q-4 0 6 -17t6 -24q-31 -79 -86 -137t-127 -58z" />
    <glyph glyph-name="odieresis" unicode="&#xf6;" horiz-adv-x="653" 
d="M372 906q-7 21 -7 53t20 64q20 31 25 40q14 0 18 -4q0 8 6 14t10 12q4 5 12 11t17 6t31 -8q26 -24 22 -100t-18 -90q-36 -37 -98 -25q-31 6 -38 27zM213 1090q8 12 21 12q14 0 34 -8q27 -24 23 -100q-5 -76 -19 -90q-37 -37 -98 -25q-31 6 -38 27t-7 54q1 33 21 64
q20 30 24 39q15 0 19 -4q0 8 6 14q6 5 14 17zM311 135q25 -45 76 -6q110 81 92 320q-53 11 -99 50q-46 38 -56 44q-64 -104 -57 -255q5 -83 44 -153zM449 532q-19 53 -47 77t-52 -13q54 -46 99 -64zM573 430q-4 -27 -27 -111t-21 -103q1 -19 0 -21q-1 -3 -12 -13t-18 -36
t-38 -69q-31 -42 -73 -59q-43 -16 -67 -16l-53 10q21 0 -34 10q-56 10 -92 34q-64 43 -84 111q-21 68 -34 165t-20 143v8q36 181 157 220q76 24 175 -4q20 -5 66 -20t57 -17q57 -59 102 -179q68 0 158 133q33 49 43 56q2 -2 16 -6q-4 0 6 -17t6 -24q-31 -79 -86 -137
t-127 -58z" />
    <glyph glyph-name="divide" unicode="&#xf7;" horiz-adv-x="763" 
d="M279 1374q61 -16 93 -26t74 -36t68 -61q2 -45 -20 -54t-27 -37q-4 -28 -6 -76q-2 -47 -21 -72q6 -16 3 -38t-1 -34q-12 19 -29 10q-17 -8 -22 -10q-31 39 -74 49q-74 140 -35 256q13 43 -3 129zM279 434q61 -16 93 -26t74 -36t68 -61q2 -45 -20 -54t-27 -37
q-4 -28 -6 -76q-2 -47 -21 -72q6 -16 3 -38t-1 -34q-12 19 -29 10q-17 -8 -22 -10q-31 39 -74 49q-74 140 -35 256q13 43 -3 129zM514 616q42 0 47 10q6 10 8 15q-115 -23 -159 -19t-116 14q-73 11 -134 7q0 16 -2 21q-16 16 -54 30t-41 17q-8 20 -8 27t6 8q5 2 21 4t31 10
q2 -4 -2 -11t6 -9t13 6q3 9 5 10l139 -23q14 2 156 5t195 20q4 36 45 30q14 -2 43 -8q32 -55 12 -65q-8 -3 -15 -23t-3 -55q-59 -21 -113 -23t-60 -4q-20 -8 -20 6z" />
    <glyph glyph-name="oslash" unicode="&#xf8;" horiz-adv-x="653" 
d="M387 565l14 43q-33 29 -51 -12zM324 543q-49 -82 -58 -189q51 96 92 162zM481 399q0 25 -2 50l-14 2q-49 -131 -103 -205q-4 -10 -16 -47t-31 -47q4 -12 0 -25q31 -39 82 12q84 80 84 260zM129 -188q-47 28 -61 20t-30 -5t-42 40q4 16 5 21q1 6 6 20t7 15t10 11t13 6
q6 -4 18 -3q23 35 72 122q-37 27 -60 78q-24 51 -32 93t-19 125q-10 83 -16 120v8q36 181 157 220q29 9 73 11t192 -42q18 43 45 67q10 41 20 66t19 69q2 2 12 2t10 7q4 15 -6 10q-4 -2 -10 4q18 15 34 42q6 10 32 -17q0 -8 -4 -54t2 -51q6 -6 22 -12q-14 -70 -37 -104
q-24 -34 -37 -58l-14 -55q20 -37 47 -105q68 0 158 133q33 49 43 56q4 -2 14 -6q0 -4 9 -19t5 -22q-31 -79 -86 -137t-127 -58q-4 -27 -27 -111t-21 -103q1 -19 0 -21q-1 -3 -12 -13t-18 -36t-38 -69q-31 -42 -73 -59q-43 -16 -67 -16l-53 10q22 0 -26 6q-41 -55 -54 -81
q21 0 29 12t16 28q9 -9 -8 -26q-43 -90 -92 -139z" />
    <glyph glyph-name="ugrave" unicode="&#xf9;" horiz-adv-x="800" 
d="M139 1161l6 27q23 6 55 -8t40 -17q0 3 -1 13t3 12q34 6 46 -15t17 -36q6 -16 17 -49t79 -158l-34 -64q-45 25 -113 131q-4 8 -22 34t-37 62t-29 48t-27 20zM541 604l4 -69q-4 -39 -1 -73t-5 -113t-5 -113t15 -82t14 -72q29 -2 46 22t28 27q16 49 90 227q73 178 87 216
t30 94q10 -17 27 -15q16 2 21 -5t3 -23q-16 -147 -164 -445q-10 -18 -34 -62t-58 -110q-37 -16 -51 -63q-39 -25 -114 -24t-114 34q2 14 -17 38q-45 57 -57 156q-11 99 3 150q-14 18 -17 49q-12 -62 -101 -76t-140 56q-35 52 -41 118t4 110t35 112t28 84q61 -23 95 -50
q-6 -30 -22 -82t-26 -86q-23 -92 13 -186q2 0 18 -6t31 6l4 43q28 17 56 69t48 70q2 23 21 64q18 41 16 74q8 6 58 77q53 -2 110 -21t72 -52q4 -12 -3 -35t-7 -33z" />
    <glyph glyph-name="uacute" unicode="&#xfa;" horiz-adv-x="800" 
d="M375 874l-35 64q68 126 79 158q29 85 39 90q21 13 42 10q4 -2 3 -12t-1 -13q8 3 40 17t54 8q4 0 3 -12t3 -15q-28 -14 -46 -51l-21 -41q-11 -19 -48 -71q-68 -106 -112 -132zM541 604l4 -69q-4 -39 -1 -73t-5 -113t-5 -113t15 -82t14 -72q29 -2 46 22t28 27q16 49 90 227
q73 178 87 216t30 94q10 -17 27 -15q16 2 21 -5t3 -23q-16 -147 -164 -445q-10 -18 -34 -62t-58 -110q-37 -16 -51 -63q-39 -25 -114 -24t-114 34q2 14 -17 38q-45 57 -57 156q-11 99 3 150q-14 18 -17 49q-12 -62 -101 -76t-140 56q-35 52 -41 118t4 110t35 112t28 84
q61 -23 95 -50q-6 -30 -22 -82t-26 -86q-23 -92 13 -186q2 0 18 -6t31 6l4 43q28 17 56 69t48 70q2 23 21 64q18 41 16 74q8 6 58 77q53 -2 110 -21t72 -52q4 -12 -3 -35t-7 -33z" />
    <glyph glyph-name="ucircumflex" unicode="&#xfb;" horiz-adv-x="800" 
d="M483 854h-14q-6 0 -10 2q-23 28 -77 98t-85 105q-2 -8 -10 -44q-10 -45 -34 -91t-87 -52q-4 2 -5 12t-5 13q39 25 66 152q26 127 81 135q4 0 27 -9q24 -9 32 -17t18 -46q10 -37 11 -42q24 -59 119 -181q8 -12 6 -21l-10 -10q-12 -4 -23 -4zM541 604l4 -69q-4 -39 -1 -73
t-5 -113t-5 -113t15 -82t14 -72q29 -2 46 22t28 27q16 49 90 227q73 178 87 216t30 94q10 -17 27 -15q16 2 21 -5t3 -23q-16 -147 -164 -445q-10 -18 -34 -62t-58 -110q-37 -16 -51 -63q-39 -25 -114 -24t-114 34q2 14 -17 38q-45 57 -57 156q-11 99 3 150q-14 18 -17 49
q-12 -62 -101 -76t-140 56q-35 52 -41 118t4 110t35 112t28 84q61 -23 95 -50q-6 -30 -22 -82t-26 -86q-23 -92 13 -186q2 0 18 -6t31 6l4 43q28 17 56 69t48 70q2 23 21 64q18 41 16 74q8 6 58 77q53 -2 110 -21t72 -52q4 -12 -3 -35t-7 -33z" />
    <glyph glyph-name="udieresis" unicode="&#xfc;" horiz-adv-x="800" 
d="M372 906q-7 21 -7 53t20 64q20 31 25 40q14 0 18 -4q0 8 6 14t10 12q4 5 12 11t17 6t31 -8q26 -24 22 -100t-18 -90q-36 -37 -98 -25q-31 6 -38 27zM213 1090q8 12 21 12q14 0 34 -8q27 -24 23 -100q-5 -76 -19 -90q-37 -37 -98 -25q-31 6 -38 27t-7 54q1 33 21 64
q20 30 24 39q15 0 19 -4q0 8 6 14q6 5 14 17zM541 604l4 -69q-4 -39 -1 -73t-5 -113t-5 -113t15 -82t14 -72q29 -2 46 22t28 27q16 49 90 227q73 178 87 216t30 94q10 -17 27 -15q16 2 21 -5t3 -23q-16 -147 -164 -445q-10 -18 -34 -62t-58 -110q-37 -16 -51 -63
q-39 -25 -114 -24t-114 34q2 14 -17 38q-45 57 -57 156q-11 99 3 150q-14 18 -17 49q-12 -62 -101 -76t-140 56q-35 52 -41 118t4 110t35 112t28 84q61 -23 95 -50q-6 -30 -22 -82t-26 -86q-23 -92 13 -186q2 0 18 -6t31 6l4 43q28 17 56 69t48 70q2 23 21 64q18 41 16 74
q8 6 58 77q53 -2 110 -21t72 -52q4 -12 -3 -35t-7 -33z" />
    <glyph glyph-name="yacute" unicode="&#xfd;" horiz-adv-x="761" 
d="M252 874l-35 64q68 126 79 158q29 85 39 90q21 13 42 10q4 -2 3 -12t-1 -13q8 3 40 17t54 8q4 0 3 -12t3 -15q-26 -13 -49 -58q-24 -45 -42 -71q-19 -27 -23 -34q-68 -106 -113 -132zM643 -155q0 -23 -4 -33q-78 -242 -152 -314q-51 -51 -161 -100q-110 -50 -199 -62
q-88 -12 -185 4t-159 44q-4 2 -7 9t-5 8t-11 -7q0 4 -22 31q-8 0 -22 6t-29 2q10 27 -2 53t-11 37q41 25 124 -19t132 -26q-7 7 -33 5q149 11 191 34q10 0 6 24q94 68 153 185q58 117 62 254q9 6 13 34t12 33q-4 51 6 159t0 167q-12 -6 -42 -52t-60 -57q-92 -10 -149 25
q-56 35 -73 89q-41 138 37 367q35 14 90 -4q9 -27 9 -37t-10 -32q-10 -23 -13 -35q-41 -236 57 -324q31 10 21 54q4 0 12 -15q23 14 10 35q8 -6 23 4q10 23 44 77t48 112q-6 28 -7 76t9 65q52 39 146 8t118 -91t36 -166q13 -106 5 -148q3 -48 19 -152t13 -146t-21 -100
t-19 -81zM-103 -517h-2h2z" />
    <glyph glyph-name="thorn" unicode="&#xfe;" horiz-adv-x="739" 
d="M141 418q23 -16 29 12q-6 2 -10 19q-18 -4 -19 -7q10 -2 4 -11t-4 -13zM145 469q2 -16 25 -12q2 12 -8 16q-11 4 -17 -4zM221 810v-103l6 -70l-10 -62q0 -39 12 -119t11 -122q35 4 68 27q34 24 56 34t52 34q31 24 43 36t47 52t39 45t37 44t46 68t1 75q-13 46 -35 70
t-82 46t-74 28t-25 16q-14 13 -48 23t-73 35q-39 24 -50 12q-21 -82 -21 -169zM53 35h8q2 8 -8 17q-1 78 -2 132q4 3 6 4q5 38 -1 99q-46 -11 -74 -6q4 2 74 14q-1 15 -8 65t5 82q-4 27 -8 27h-8q8 39 -1 124t5 114q0 8 -9 14t-9 12q2 82 -1 304t-8 300q39 61 -57 150
q20 20 20 61q11 -2 25 -11t18 -11q41 8 67 -1q27 -9 55 -32t53 -33q8 -2 2 -158t6 -159q40 -10 162 -58q113 -37 140 -55t73 -67t81 -62q10 -19 34 -79t46 -93q-10 -8 2 -57q0 -10 -15 -30t-9 -36q-15 -16 -69 -88t-97 -96q0 -4 2 -14q-17 3 -21 -11t-10 -19t-52 -22
t-99 -54q-54 -38 -107 -64q-20 -12 -41 -72q17 -92 25 -162t28 -166q-133 -63 -223 17v180zM49 40q0 2 1 14q3 -3 3 -19l-4 2v3zM48 38q-2 -7 -5 -3q0 5 5 3zM50 54q-6 4 -9 5q-4 2 6 11q-27 12 -63 8q-6 16 -33 30t-33 19q63 0 97 30q9 7 17 11t17 14l2 -28q1 -71 -1 -100z
M50 208q0 -24 -1 -26l-8 102l8 -22q1 -30 1 -54z" />
    <glyph glyph-name="ydieresis" unicode="&#xff;" horiz-adv-x="761" 
d="M372 906q-7 21 -7 53t20 64q20 31 25 40q14 0 18 -4q0 8 6 14t10 12q4 5 12 11t17 6t31 -8q26 -24 22 -100t-18 -90q-36 -37 -98 -25q-31 6 -38 27zM213 1090q8 12 21 12q14 0 34 -8q27 -24 23 -100q-5 -76 -19 -90q-37 -37 -98 -25q-31 6 -38 27t-7 54q1 33 21 64
q20 30 24 39q15 0 19 -4q0 8 6 14q6 5 14 17zM643 -155q0 -23 -4 -33q-78 -242 -152 -314q-51 -51 -161 -100q-110 -50 -199 -62q-88 -12 -185 4t-159 44q-4 2 -7 9t-5 8t-11 -7q0 4 -22 31q-8 0 -22 6t-29 2q10 27 -2 53t-11 37q41 25 124 -19t132 -26q-7 7 -33 5
q149 11 191 34q10 0 6 24q94 68 153 185q58 117 62 254q9 6 13 34t12 33q-4 51 6 159t0 167q-12 -6 -42 -52t-60 -57q-92 -10 -149 25q-56 35 -73 89q-41 138 37 367q35 14 90 -4q9 -27 9 -37t-10 -32q-10 -23 -13 -35q-41 -236 57 -324q31 10 21 54q4 0 12 -15q23 14 10 35
q8 -6 23 4q10 23 44 77t48 112q-6 28 -7 76t9 65q52 39 146 8t118 -91t36 -166q13 -106 5 -148q3 -48 19 -152t13 -146t-21 -100t-19 -81zM-103 -517h-2h2z" />
    <glyph glyph-name="dotlessi" unicode="&#x131;" horiz-adv-x="514" 
d="M428 261q0 -31 -35 -13q-2 4 -19 41q-18 37 -28 46t-27 5q-20 65 -16 109q4 43 4 69q-25 90 -27 110t7 128l-8 78q0 16 8 26q-8 8 -13 27q10 -2 12 4q1 6 3 6q-6 45 5 115t11 100q-20 -7 -20 -28l-2 -29q-17 0 -4 26v35q-33 -6 -66 -6q7 -20 26 -20t31 -3q0 -10 -12 -7
t-14 3q-96 -4 -166 19q2 43 -8 74t-13 41q-2 10 19 65q84 25 88 -20q18 -2 59 -10t72 -11q0 4 2 6q43 -2 74 8q31 11 41 13t65 -19q25 -84 -20 -88q-5 -27 -25 -137t-24 -145q20 -18 2 -129l-19 -109q26 -104 22 -133q-3 -30 -10 -47q11 -39 13 -66t18 -71q0 -2 -10 -6
t-6 -14q4 -9 9 -5t11 2q-10 -23 -10 -40z" />
    <glyph glyph-name="Lslash" unicode="&#x141;" horiz-adv-x="1134" 
d="M455 125q-8 20 -4 27h-19q4 -4 7 -16q4 -11 16 -11zM414 512l-2 -12q23 0 22 35zM446 63q20 0 11 27q-31 -4 -11 -27zM197 805v-8q0 -7 2 -15q10 0 12 12t-8 23q0 -10 -7 -3t-12 3q13 -10 13 -12zM395 690l29 -4q-2 14 0 92t-14 88q-8 -72 4 -164q-10 2 -16 -1t-3 -11z
M430 221q-10 1 -6 -21t2 -28q18 -4 25 -10q-2 8 -4 56q-1 48 -19 69q10 2 8 97t-14 99q-2 -2 2 -10t-1 -8h-9q2 -6 6 -92t4 -90q-4 8 -9 2t-7 -6q2 -12 14 -31q-20 2 -12 -19q20 0 20 -8zM5 240q7 0 13 -13l80 76q-2 39 2 147t-4 154q2 0 23 17q-4 8 -25 4q8 35 4 131
t11 110l-3 8h-2q-4 0 -6 3q10 20 7 56t12 56q-6 8 -9 1t-14 -3q14 130 11 309t-3 215q-2 9 -12 15t-12 12q43 -9 92 -27q8 -1 13 7t10 8q104 6 241 -58q16 -8 65 -26t70 -45q22 -36 11 -86q-10 -50 -11 -68q3 -2 9 -3q6 -2 15 -20t10 -60t-3 -91t-2 -80q-23 -42 -29 -110
t-8 -82q55 55 57 59q47 74 76 82q14 29 26 41q11 12 25 37l5 -4q2 -4 7 1t0 8t-5 7q10 2 19 10t11 5t4 -25q-24 -68 -24 -74t4 -14q-19 -34 -39 -52t-33 -30q-14 -20 -147 -180q-12 -96 4 -386t8 -378q27 -6 69 5t68 9q0 -12 9 -14q12 0 3 -9t-6 -12q23 2 124 9t153 18
q15 0 31 -8t24 -11q0 -6 -9 -14t-3 -20q-27 6 -34 6l-62 -10q-68 -9 -222 -27t-226 -30t-222 -22q-150 -9 -225 -5q-20 33 -39 38q-4 13 6 25t4 29q33 -6 69 -5t66 -3q6 12 6 17t-5 22q-5 18 -8 30t-5 53t-12 62q4 27 -1 84t-6 82q-18 -8 -32 -27q9 -11 30 10q4 -11 -3 -12
q-7 -2 -27 -24t-56 -37q-14 35 -21 38t-12 5t-10 47q23 37 30 37z" />
    <glyph glyph-name="lslash" unicode="&#x142;" horiz-adv-x="671" 
d="M750 666q6 0 10 -4q6 -86 -30 -282t-99 -325l-8 -41q-17 -25 -53 -86t-60 -94q-24 -34 -78 -64q-53 -30 -125 -30q-8 10 6 10h35q-14 10 -34 8t-27 -14q-8 2 -11 4q-2 2 -1 7t-1 9q-129 6 -187 144q-30 72 -52 164q8 8 0 23q-7 15 -15 59t-20 67q6 -2 16 -20
q14 315 23 450q-6 -2 -16 -2q-9 19 -15 23t-48 2t-52 0q-28 24 -20 30q6 5 20 13t24 20q6 -6 4 -10t1 -6q2 -2 10 0t8 11v11q25 4 90 23q33 385 90 620q12 51 43 84q334 -72 338 -311q-45 -86 -76 -219q59 31 90 51q-6 19 6 31t24 15q13 3 44 10q35 -29 38 -43q4 -14 -6 -30
t17 -63q-39 -37 -91 -63q-56 -27 -63 -34t-14 3q37 19 39 28t2 17q-24 -10 -64 -38t-46 -31q-6 -55 -33 -351q-13 -52 -21 -162t-18 -153q2 -4 14 -60q28 -130 64 -151q4 0 8 -4l14 4q74 27 138 161q63 134 100 297t23 261v8q-2 14 34 21q5 2 11 2z" />
    <glyph glyph-name="OE" unicode="&#x152;" horiz-adv-x="1667" 
d="M479 1116q22 -4 17 14q-10 0 -14 -3t-3 -11zM47 209l2 -19q4 0 8 4t9 1q0 14 -19 14zM92 90q6 0 13 -3t10 3q-16 37 -35 43q-4 -7 7 -19t5 -24zM590 1423q12 1 46 7t58 4q-16 24 -58 18t-46 -29zM500 748q0 -18 -5 -62t3 -65q-32 -146 6 -377q10 -72 24 -104t31 -82
q15 -52 27 -74t48 -49q36 -26 46 -39q2 2 4 2q26 9 74 75q-25 163 -27 223t6 130t8 102l17 336q0 147 32 343q32 195 35 226q-8 -7 -41 -31t-47 -40q-29 -10 -53 -32t-32 -38q-9 -16 -26 -53t-24 -49q-18 -10 -28 -9q0 -8 7 -10t9 -4q-4 -10 -17 -45t-27 -68t-22 -69
q-8 -35 -18 -77t-10 -60zM386 1456q-83 0 -85 4q10 8 24 35q13 27 25 35q248 -10 281 -35q57 0 98 -16l-14 30l10 2q8 4 4 15q7 0 21 -10t30 -7q6 6 -2 15t-8 16q2 2 12 4t13 8q6 -2 15 -13t15 -13q75 -10 395 -4t373 -23q21 -21 33 -39q-6 -16 -16 -30q-45 -2 -132 5
t-139 3q-27 -55 -16 -166q-2 -4 -12 0q8 -100 -30 -272q-38 -171 -32 -199l156 16q4 -4 23 -19t24 -28q-12 -20 -16 -31q-65 5 -111 -10t-88 -31q6 -30 2 -146t4 -151q0 -6 -7 -3t-13 3q18 -35 18 -39q-6 -2 -11 6t-7 7q0 -14 10 -38t10 -32q-11 26 -17 17t-9 -21q0 -6 8 -2
t14 2q10 -33 -18 -49q4 -10 12 -8v8q12 -16 13 -41t9 -37q-20 -16 -22 -18q0 -6 5 -2t8 -6t-1 -16t-18 -3q20 -23 19 -93t22 -93q45 -2 122 0t119 0q18 -16 27 -47q-6 0 -9 -6t-7 -9q-125 11 -385 -27t-344 -38q-31 -33 -91 -33l-10 -19q-20 2 -158 6t-190 16
q-52 11 -119 79q-67 69 -86 84q0 2 -2 12t4 10q-2 4 -18 4q-12 16 -19 45q-6 29 -9 37t-25 37t-19 59q4 30 -20 56q-4 16 -3 64t-14 63q2 2 6 14t11 17l-19 8q4 14 4 17l-14 40q8 18 10 106t-8 107q14 2 16 -12l15 8q-1 6 -11 5t-12 -1q6 31 -8 49q-2 8 12 8q-6 6 1 29
t-7 33q8 -2 11 4t6 6q-2 4 -23 8q6 35 31 92t27 76t-2 21q-5 2 -5 4q20 111 113 268l-19 10q14 14 33 13q-2 10 -12 14q119 166 121 170l180 -4q0 10 -83 10z" />
    <glyph glyph-name="oe" unicode="&#x153;" horiz-adv-x="653" 
d="M350 596q23 -23 45 -37v2q4 18 13 41q-38 41 -58 -6zM829 555q-51 -31 -71 -91t-33 -159q120 33 104 250zM311 135q14 -29 45 -23t60 46q-53 154 -33 336q-19 19 -59 49q-64 -104 -57 -255q5 -83 44 -153zM1237 674q18 -22 12 -48t-50 -124t-42 -131q-8 -13 -50 -107
t-81 -135q-66 -104 -117 -145t-114 -52q-229 -45 -340 140q-59 -70 -138 -70l-53 10q21 0 -34 10q-56 10 -92 34q-64 43 -84 111q-21 68 -34 165t-20 143v8q36 181 157 220q29 9 73 13t202 -48q14 35 37 69q45 59 131 46t173 -61t130 -97q70 -176 8 -275q-4 -6 -21 -15
t-29 -37q-13 -28 -22 -35t-27 -13t-49 -11q-32 -5 -36 -8q-4 -154 72 -206h6q5 -5 21 -11t38 1t27 28h-2l2 2l6 10q8 2 14 8q59 72 70 93q135 233 225 542l8 -6q5 0 23 -18z" />
    <glyph glyph-name="Scaron" unicode="&#x160;" horiz-adv-x="1024" 
d="M674 2011h14q11 0 23 -4l10 -10q2 -8 -6 -21q-61 -78 -89 -126t-30 -54t-11 -43t-25 -50t-52 -22q-55 8 -86 157q-22 104 -62 130l11 25q62 -4 85 -48q24 -45 34 -88t12 -51q31 35 85 106t77 97q4 2 10 2zM770 201q-31 47 -68 71q9 -15 35 -40q27 -25 33 -31zM393 745
l-2 19q-6 2 -10 -1t-8 -3q2 -10 20 -15zM109 80q10 0 26 -6t31 -2l10 -20t11 -21q3 -3 11 -17t19 -29q13 -15 19 -18q6 -4 17 -12t37 -9t117 50t133 86t64 84q-43 47 -203 191q-159 145 -193 167t-74 72t-66 68q0 4 2 9t0 11q-45 39 -70 47q68 303 231 555q12 63 82 154
q25 33 86 82t86 86h23q31 -33 116 -100t119 -115q59 102 45 190q49 -8 79 -51t28 -102q2 -2 19 -12t22 -21q-6 -78 -38 -198t-38 -167q-6 -2 -13 -9t-16 -9q0 -4 17 -25q-27 -24 -18 -130q3 -36 -15 -55t-65 -1q-64 81 -69 192q-4 111 24 240q-97 -87 -208 -293
q-56 -104 -81 -143q-4 -25 1 -54t-16 -47l13 -6q4 -12 -15 -8q31 -33 101 -63q197 -82 397 -474q0 -14 5 -59q10 -94 -13 -147q-23 0 -31 -19q2 -14 -9 -30t-7 -31q-170 -188 -475 -174q-111 45 -136 49q-2 6 -10 16t-12 17q-57 11 -85 81t-28 164q8 2 14 -9t15 -7
q6 14 -5 41t-11 41z" />
    <glyph glyph-name="scaron" unicode="&#x161;" horiz-adv-x="663" 
d="M412 1350h14q11 0 23 -4l10 -11q2 -8 -6 -20q-95 -122 -119 -181q-2 -5 -11 -42t-20 -48q-8 -6 -31 -15t-26 -9q-56 8 -86 157q-21 102 -62 130q4 4 5 13t6 11q63 -4 86 -49t33 -87q9 -42 12 -50q31 35 85 105t76 98q4 2 11 2zM129 -451q13 52 30 104q40 128 21 294
q-12 8 -16 6q-246 -223 -154 -453q6 -6 22 -1t21 3t19 8t27 16t30 23zM555 -222q0 -42 -10 -102q-24 -24 -16 -83t-19 -82q12 -53 -21 -92q-11 -13 -33 -35l-30 -31q-90 -41 -200 -41t-203 45q-13 8 -51 38t-60 36l-2 41q-57 49 -45 172q1 6 11 42t1 44q12 -8 12 2t-6 18
q25 29 73 104q48 76 94 120t112 67q-10 41 -66 161q-55 120 -57 208q-8 0 -10 -2l-6 47q-4 45 -15 57q-41 143 29 281q5 39 31 55t36 20q66 36 147 12t116 -81q53 -88 4 -170q-12 -20 -21 -29q-20 -53 -63 -102q17 -68 29 -92t40 -72q28 -47 37 -82q59 18 119 78t100 127
q111 179 181 221q10 -8 12 -31t-39 -109t-133 -197q-92 -112 -203 -167q10 -42 50 -140t58 -156t17 -100zM-123 -270l-2 2z" />
    <glyph glyph-name="Ydieresis" unicode="&#x178;" horiz-adv-x="1236" 
d="M558 1670q-7 22 -7 54q1 33 21 64q20 30 24 39q14 0 18 -4q0 11 6 15q6 5 11 11q4 5 11 11t17 6q11 0 31 -8q27 -24 23 -100q-5 -76 -19 -90q-36 -36 -82 -28q-47 8 -54 30zM322 1670q-7 22 -7 53q1 32 21 63q20 32 24 41q15 0 19 -4q0 8 6 14q6 5 14 17t21 12t35 -8
q27 -24 23 -100t-19 -90q-35 -36 -99 -26q-31 6 -38 28zM561 164q-20 35 29 354q0 8 -2 30t7 39t11 25q0 8 -3 28t15 161q18 142 19 217q-8 47 -6 146t-6 145q-62 -151 -103 -216q-42 -65 -64 -107t-50 -172t-35 -148q-6 -18 -39 -102q-33 -82 -44 -114t-29 -66
q-26 -48 -68 -69q-25 -2 -76 27q-6 18 -27 79t-26 97t-2 88q3 51 -1 76t-6 79t-13 80q-10 25 -2 176q7 150 7 191q-2 182 51 330l21 -6q51 -9 67 -41q4 -33 -12 -111q-37 -257 -43 -286q10 -90 13 -342t46 -318q59 78 125 264t80 217q10 75 56 158t91 197q46 114 79 168
q-6 18 -5 32q2 14 -4 29q12 2 109 -8q2 -10 20 -45q18 -12 129 -45t131 -51q7 -29 45 -66t48 -63q14 -13 12 -97t-2 -88q23 -254 -27 -340q6 -66 -13 -248t-13 -239q-1 -4 -9 -30t-18 -34q4 -49 0 -67t-22 -58t-24 -56q-5 -15 -13 -64q-9 -50 -17 -64t-26 -32t-24 -25
q-6 -9 -4 -25q1 -16 -1 -21t-53 -104q-90 -164 -287 -180q-84 -9 -236 13t-215 57h-30q-8 14 -38 32t-38 33q0 -2 -12 -9t-15 9q2 2 4 5t11 -5q0 6 -54 111q-4 8 5 11t10 7q-31 45 -35 58q54 7 114 -30q17 -11 51 -39t44 -34q133 -45 223 39q42 39 90 124t66 135t36 112
t27 86z" />
    <glyph glyph-name="Zcaron" unicode="&#x17d;" horiz-adv-x="1495" 
d="M872 1991h15q10 0 22 -4l11 -11q2 -8 -33 -53t-63 -94t-30 -54t-10 -42q-10 -37 -20 -47q-8 -6 -31 -16t-26 -9q-56 8 -86 157q-21 102 -62 130l10 24q65 -4 88 -51t32 -87t11 -48q31 36 85 106t77 97q4 2 10 2zM1479 43q0 -6 2 -10q4 2 11 1t11 0t2 9h-26zM535 1325
q45 2 73 31q-4 -2 -31 -9t-42 -22zM604 1485h-20q-2 -14 11 -14q13 2 9 14zM733 1532q6 0 33 10t33 -10q12 -4 16 8l2 10q37 10 136 24t147 30q14 0 14 -11q8 13 56 23t51 26q6 0 53 -26q-17 -24 60 -167q30 -57 34 -75t1 -38t3 -33q-43 -37 -277 -213t-339 -289
q291 -35 420 -31q-31 16 -60 8q29 33 115 -30q47 -33 57 -74q-2 4 -33 4h-34q2 2 2 4q3 10 -71 13t-82 4t-10 9q-1 8 -3 9q-43 -6 -158 2t-141 -10q-8 0 -16 8t-13 10q-27 2 -59 -10q-54 -59 -104 -103t-150 -226q-100 -181 -162 -226q-8 -25 -20 -35q-11 -10 -23 -19
t-19 -15t-40 -23q375 27 700 34q4 0 12 -14q80 8 279 -9t284 -18q4 -4 9 -24q18 -2 38 10t27 14q27 -27 62 -20q29 -21 75 -127t58 -162q4 -6 15 -10t15 -8q-16 -10 -22 -46t-8 -40q-78 -4 -274 22t-287 21q-4 13 5 14q9 2 14 3t13 1h13q-18 15 -87 13t-79 12
q-25 -10 -39 -8q-4 8 10 8h2q-6 8 -37 6q-20 -2 -10 -10q-41 14 -139 -8t-139 -9q-53 -47 -173 -22q-8 -2 -6 -11t-4 -12q-41 6 -119 -18t-106 -25q-53 33 -49 58q-76 57 -157 213t-7 202q-8 31 7 59q16 28 32 40t49 32q47 51 157 235t171 239q-9 14 -103 10t-121 2
q-57 53 -55 98q23 -14 86 -18q4 4 -2 13t2 13q37 -16 129 -11t134 1q41 -4 55 10t84 81t92 95q12 0 24 9q42 42 136 114t135 115q16 -8 25 3t12 13q-97 -7 -212 -50q-114 -42 -137 -50q-67 -8 -183 -48t-150 -44t-40 -12q-5 -8 -12 -11q-2 6 -17 29t-17 41q-20 4 -69 84
q-48 80 -69 76q-4 18 -34 48q-31 30 -27 54q135 18 290 68q154 49 185 59q8 0 14 -4q8 23 123 23q8 2 3 7t-5 9z" />
    <glyph glyph-name="zcaron" unicode="&#x17e;" horiz-adv-x="997" 
d="M436 1313h15q10 0 22 -4l10 -11q2 -8 -6 -20q-95 -122 -119 -181q-2 -5 -11 -42t-19 -47q-8 -6 -31 -16t-27 -9q-53 7 -81 135q-28 127 -66 152l10 24q63 -4 87 -51t33 -87t11 -48q31 36 85 106t77 97q4 2 10 2zM274 -420q29 12 53 39q25 27 53 119t-1 176q-4 6 -12 4
q-139 -111 -185 -215q-51 -135 8 -186q28 -6 56 17t28 46zM76 -532q-19 51 -19 92q1 41 11 66q10 24 20 52t14 35q68 180 248 295q-43 93 -171 172q-26 16 -77 43t-71 39l6 23q0 4 -6 12q25 8 30 35q53 4 93 39q72 70 139 291q27 86 -2 147q-82 -9 -122 -63t-69 -148
q-2 -2 -16 -5t-10 -20q-14 1 -36 19t-38 20q0 14 15 34t3 44q10 -2 16 4t7 6q-2 2 -8 6t-4 15q29 2 44 22t9 45q8 4 75 42t124 42t128 -15t125 -72t56 -167t-33 -184q-6 -4 -29 -4q-8 -2 -2 -12t6 -17q-57 -45 -112 -133q20 -16 67 -41t66 -39q57 58 193 230t151 219
q12 2 41 19t63 6q4 -29 6 -36t-13 4q-28 21 -50 -24q-12 -26 -40 -102t-43 -100t-40 -46q-25 -20 -34 -32t-37 -50t-52 -70q-25 -33 -77 -67q6 -10 25 -39q91 -139 98 -228q2 -40 12 -89t11 -83t-15 -106t-19 -88q-8 -8 -38 -53t-47 -59t-42 -40t-41 -39q-46 -37 -121 -26
q-10 3 -34 15t-33 16q-216 77 -253 118q-25 25 -48 30z" />
    <glyph glyph-name="florin" unicode="&#x192;" horiz-adv-x="849" 
d="M401 295q2 4 23 28q20 24 27 41q6 17 2 44q33 22 44 294t-10 326q-14 -98 -49 -380t-37 -353zM444 -369q-9 9 -10 11q37 94 32 265t-67 279q-20 -24 -26 -98t-19 -98q0 -111 -32 -303l12 -25q-19 -34 -14 -74q4 -40 12 -86t10 -57q13 -3 15 -22q3 -19 12 -23
q12 -27 24 -18q-12 8 -16 14h10q6 0 10 6q2 -2 6 -2q-3 8 -1 12t4 20t18 68t15 80q-1 29 -1 45zM934 672q45 0 35 -86q-4 -35 -2 -41l-9 14q-12 -101 -54 -188t-87 -141t-121 -87t-168 -20q80 -387 39 -594q-4 -27 -15 -112t-35 -137q-23 -52 -75 -81q-13 -6 -44 -26
q-63 -39 -114 -44q-51 -6 -80 5q-30 10 -57 26q-70 86 -104 206q-35 120 -38 210t0 224t1 186q8 20 -1 72t-1 157q10 14 21 16q-2 78 41 336t59 335t28 179t42 160q-9 15 -7 33t-4 31q98 12 267 -84q81 -89 105 -315t-13 -430t-111 -240q16 0 53 -24t58 -26q96 -8 169 47
t103 123q31 68 55 138q25 70 33 77q0 99 31 101z" />
    <glyph glyph-name="circumflex" unicode="&#x2c6;" horiz-adv-x="415" 
d="M383 1139h-14q-6 0 -11 2q-22 27 -76 97t-85 105l-11 -44q-23 -103 -68 -128q-22 -12 -52 -14q-4 2 -6 11q-1 9 -5 14q38 24 55 101t23 95q27 84 70 90q5 0 27 -9t30 -15q10 -10 20 -47t11 -42q25 -62 119 -181q8 -12 6 -21l-10 -10q-12 -4 -23 -4z" />
    <glyph glyph-name="caron" unicode="&#x2c7;" horiz-adv-x="442" 
d="M369 1468h14q11 0 23 -4l10 -10q2 -8 -6 -20q-61 -78 -89 -127t-30 -55t-11 -42q-9 -37 -20 -47q-8 -6 -31 -15t-26 -9q-55 8 -81 134t-67 152q4 3 5 13t6 12q63 -4 86 -49t33 -87q9 -42 12 -50q31 36 85 106t76 96q4 2 11 2z" />
    <glyph glyph-name="breve" unicode="&#x2d8;" horiz-adv-x="380" 
d="M340 1309v-2l4 -9v-4l2 -2q0 -6 4 -10q0 -39 -10 -65q-10 -27 -12 -35q-23 -66 -107 -69t-164 81q-45 101 -19 143q5 8 7 13l2 2q4 0 12 4l62 -6q0 -10 8 -23q-12 -29 -13 -57q-2 -67 45 -76q61 -12 97 24q14 14 18 76l3 4v9q8 8 12 16v4h2v2h10q2 0 4 -2h4q4 0 4 -2
l23 -14q0 -2 2 -2z" />
    <glyph glyph-name="dotaccent" unicode="&#x2d9;" horiz-adv-x="280" 
d="M131 1390q8 12 21 11q14 0 34 -8q27 -25 23 -101q-5 -76 -19 -90t-40 -22t-58 -2q-31 6 -38 27t-7 54q1 33 21 64q20 30 24 39q15 0 19 -4q0 8 6 14t14 18z" />
    <glyph glyph-name="ring" unicode="&#x2da;" horiz-adv-x="407" 
d="M127 1259q0 -74 46 -81q61 -12 97 24q14 14 22 89t-24 102q-51 18 -73 -31l-2 -4q-6 4 -21 4q-4 -8 -24 -39q-20 -32 -21 -64zM346 1430q29 -80 12 -207q-2 -13 -9 -31t-9 -29q-22 -67 -106 -67t-164 80q-76 172 61 282q27 -4 29 -8q23 37 80 26t106 -46z" />
    <glyph glyph-name="ogonek" unicode="&#x2db;" horiz-adv-x="442" 
d="M289 72q-6 -31 -41 -29q-31 -37 -46 -59q-46 -66 -46 -150q63 -12 94 16q14 12 44 53t49 42t29 -13t23 -12q3 -17 -10 -38q-12 -21 -14 -29q-57 -156 -168 -132q-41 8 -77 43t-30 108t52 140q15 23 43 60t34 47q25 -4 42 -23q16 -20 22 -24z" />
    <glyph glyph-name="tilde" unicode="&#x2dc;" horiz-adv-x="610" 
d="M-2 1315v24q47 63 120 77t132 -46q100 -51 180 -41q0 32 54 49q26 8 34 13q18 -29 18 -44t-12 -47q-10 -32 -8 -51q-78 -80 -166 -41q-2 2 -14 4t-12 13q47 -27 57 0q-53 14 -113 57q0 -2 -5 0t-5 -2v-8q-18 14 -27 28q-18 2 -51 12t-47 11q-61 6 -108 -31l-19 -18
q-6 4 -14 0q0 39 2 37q4 -4 4 4z" />
    <glyph glyph-name="hungarumlaut" unicode="&#x2dd;" horiz-adv-x="514" 
d="M424 1450q2 0 33 4t33 -2t-2 -10q-3 -4 -9 -9t-14 -22t-84 -121q-75 -104 -97 -112t-36 26h-15q0 4 -10 25q40 47 74 117q35 71 43 86q31 22 84 32q6 -4 2 -9t-2 -5zM70 1143l-35 63q68 125 88 184t35 69q16 9 37 5q4 -2 3 -12t-1 -12q8 2 40 16t54 8q4 0 3 -12t3 -14
q-27 -14 -46 -51q-19 -39 -25 -47t-22 -33q-17 -25 -22 -33q-68 -106 -112 -131z" />
    <glyph glyph-name="endash" unicode="&#x2013;" horiz-adv-x="1196" 
d="M1143 893q23 -10 40 -10q32 0 13 -35q-4 -2 -41 -20t-46 -27q-9 -10 -5 -27q-66 -20 -109 -16t-69 4q-78 -23 -210 -29t-224 8l-78 -8q-16 0 -27 8q-8 -8 -27 -12q2 10 -4 11t-6 3q-44 -7 -114 5t-101 12q7 -21 28 -21l30 -2q-1 -10 -13 -7t-14 3q-96 -4 -166 19
q2 44 -8 74t-12 40t18 66q84 25 88 -21q26 -4 136 -24t147 -25q60 20 243 1q184 -19 192 -17q97 26 129 22q33 -4 50 -10q39 10 66 12t71 19q2 0 6 -10q4 -11 14 -7t5 10q-4 6 -2 11z" />
    <glyph glyph-name="emdash" unicode="&#x2014;" horiz-adv-x="1705" 
d="M1571 893q23 -10 40 -10q32 0 13 -35q-4 -2 -41 -20t-46 -27q-9 -10 -5 -27q-66 -20 -109 -16t-69 4q-74 -20 -423 -28t-439 7l-78 -8q-16 0 -27 8q-8 -8 -27 -12q2 10 -4 11t-6 3q-44 -7 -114 5t-101 12q7 -21 28 -21l30 -2q-1 -10 -13 -7t-14 3q-96 -4 -166 19
q2 44 -8 74t-12 40t18 66q84 25 88 -21q26 -4 136 -24t147 -25q85 21 471 1q385 -19 392 -17q27 8 71 14l35 5q38 5 73 -7q39 10 66 12t71 19q2 0 6 -10q4 -11 14 -7t5 10q-4 6 -2 11z" />
    <glyph glyph-name="quoteleft" unicode="&#x2018;" horiz-adv-x="296" 
d="M248 834q-25 -2 -63 -9t-59 0q-21 8 -42 29q-31 46 -33 66t11 92t47 118q8 8 23 20l21 18q34 34 78 34q5 -10 9 -22t7 -16t11 -3q-41 -12 -75 -50t-40 -67t4 -36q77 2 97 -2t17 -24t-14 -54q-11 -35 1 -94z" />
    <glyph glyph-name="quoteright" unicode="&#x2019;" horiz-adv-x="303" 
d="M57 1165q25 2 54 7t50 8t60 -35q31 -45 33 -65t-11 -94q-13 -73 -46 -118q-7 -8 -23 -20t-21 -18q-30 -34 -79 -33q-6 10 -9 22q-3 13 -7 17t-11 2q41 12 75 50t40 66t-4 37q-76 -2 -97 2q-20 3 -17 23t14 55t-1 94z" />
    <glyph glyph-name="quotesinglbase" unicode="&#x201a;" horiz-adv-x="290" 
d="M57 1350q25 2 54 7t51 7t59 -35q31 -45 33 -65t-11 -93t-46 -118q-7 -9 -23 -21t-21 -17q-34 -34 -79 -34q-6 11 -9 23t-7 16t-11 2q41 12 75 50t40 67t-4 37q-76 -2 -97 2q-20 4 -17 23t14 55t-1 94z" />
    <glyph glyph-name="quotedblleft" unicode="&#x201c;" horiz-adv-x="561" 
d="M508 834q-25 -2 -63 -9t-59 0q-21 8 -42 29q-31 46 -33 66q-3 20 11 92t47 118q8 8 23 20l21 18q34 34 79 34q6 -10 9 -22t6 -16t11 -3q-41 -12 -75 -50t-40 -67t5 -36q76 2 96 -2t17 -24t-14 -54q-11 -35 1 -94zM248 834q-25 -2 -63 -9t-59 0q-21 8 -42 29
q-31 46 -33 66t11 92t47 118q8 8 23 20l21 18q34 34 78 34q5 -10 9 -22t7 -16t11 -3q-41 -12 -75 -50t-40 -67t4 -36q77 2 97 -2t17 -24t-14 -54q-11 -35 1 -94z" />
    <glyph glyph-name="quotedblright" unicode="&#x201d;" horiz-adv-x="577" 
d="M57 1165q25 2 54 7t50 8t60 -35q31 -45 33 -65t-11 -94q-13 -73 -46 -118q-7 -8 -23 -20t-21 -18q-30 -34 -79 -33q-6 10 -9 22q-3 13 -7 17t-11 2q41 12 75 50t40 66t-4 37q-76 -2 -97 2q-20 3 -17 23t14 55t-1 94zM317 1165q25 2 54 7t50 8t60 -35q31 -45 33 -65
t-11 -94q-13 -73 -46 -118q-7 -8 -23 -20t-21 -18q-30 -34 -79 -33q-6 10 -9 22q-3 13 -7 17t-11 2q41 12 75 50t40 66t-4 37q-76 -2 -96 2q-20 3 -18 23t14 55q11 35 -1 94z" />
    <glyph glyph-name="quotedblbase" unicode="&#x201e;" horiz-adv-x="557" 
d="M315 1165q25 2 54 7t50 8t60 -35q31 -45 33 -65t-11 -94q-13 -73 -46 -118q-7 -8 -23 -20t-21 -18q-30 -34 -79 -33q-6 10 -9 22q-3 13 -7 17t-11 2q41 12 75 50t40 66t-4 37q-76 -2 -97 2q-20 3 -17 23t14 55t-1 94zM57 1165q25 2 54 7t50 8t60 -35q31 -45 33 -65
t-11 -94q-13 -73 -46 -118q-7 -8 -23 -20t-21 -18q-30 -34 -79 -33q-6 10 -9 22q-3 13 -7 17t-11 2q41 12 75 50t40 66t-4 37q-76 -2 -97 2q-20 3 -17 23t14 55t-1 94z" />
    <glyph glyph-name="dagger" unicode="&#x2020;" horiz-adv-x="911" 
d="M885 1212q31 0 12 -34q-4 -2 -41 -20t-46 -28t-5 -26q-66 -20 -109 -16t-69 4q-45 -12 -41 -23l6 -6q-10 0 -51 8q-2 0 -45 -6q35 -897 14 -932q2 -18 10 -137t17 -154q50 -3 24 -88q-55 -32 -66 -10t-77 14q-27 74 -27 166q0 2 -5 14t7 13q-1 -40 9 -46q10 -7 16 -9
q0 30 -16 100t-11 115q-2 0 -4 6t-12 2q4 18 12 26q-13 16 -9 56q5 39 5 51q-27 117 -8 819q-37 -2 -97 8t-94 11q7 -21 28 -21l30 -2q0 -10 -12 -7t-15 3q-96 -5 -166 18q2 43 -8 74t-12 41t18 66q84 25 88 -21q142 -28 244 -45q6 141 14 197l-10 112q0 25 10 64q16 0 21 2
q16 16 29 53t18 43q32 18 35 2q0 -25 14 -51q-6 -2 -12 2t-9 -6t7 -13t10 -6l-21 -139q22 -52 11 -119t-7 -159q10 -4 27 1t75 13t93 -4q39 10 66 12t71 19q2 -1 6 -11q3 -10 13 -6t6 9t-2 12q25 -11 41 -11z" />
    <glyph glyph-name="daggerdbl" unicode="&#x2021;" horiz-adv-x="868" 
d="M842 1212q31 0 12 -34q-4 -2 -41 -20t-46 -28t-5 -26q-66 -20 -109 -16t-69 4q-45 -12 -41 -23l6 -6q-10 0 -51 8q-2 0 -45 -6q18 -514 20 -604q127 25 168 10q39 10 66 12t71 19q2 0 6 -10t14 -6t5 8q-4 6 -2 12q23 -10 40 -10q32 0 13 -35q-4 -1 -41 -19t-46 -28
t-5 -27q-66 -20 -109 -16t-69 4q-45 -12 -41 -23q0 -4 6 -6q-10 0 -51 8q-16 0 -23 -2q0 -203 -8 -219q2 -18 10 -137t17 -154q50 -3 24 -88q-55 -32 -66 -10t-77 14q-27 74 -27 166q0 2 -5 14t7 13q0 -40 10 -46q10 -7 15 -9q1 30 -15 100t-12 115q-2 0 -4 6t-12 2
q4 18 12 26q-13 16 -9 56q5 39 5 51q-8 33 -10 100q-35 0 -94 10t-95 11q7 -21 28 -21l30 -2q-1 -10 -13 -7t-14 3q-96 -4 -166 19q2 43 -8 73t-12 41q-2 10 18 66q84 25 88 -21q95 -13 236 -43q-4 258 4 590q-35 -2 -96 8t-95 11q7 -21 28 -21l30 -2q-1 -10 -13 -7t-14 3
q-96 -5 -166 18q2 43 -8 74t-12 41t18 66q84 25 88 -21q114 -23 244 -45q6 141 14 197l-10 112q0 25 10 64q18 0 21 2q16 16 29 53t18 43q32 18 35 2q0 -25 14 -51q-6 -2 -12 2t-9 -6q-2 -10 8 -13t9 -6l-21 -139q22 -52 11 -119t-7 -159q8 -4 60 10q77 21 135 0
q39 10 66 12t71 19q2 -1 6 -11t14 -6t5 9q-4 5 -2 12q25 -11 41 -11z" />
    <glyph glyph-name="bullet" unicode="&#x2022;" horiz-adv-x="417" 
d="M346 973q29 -80 12 -207q-2 -12 -9 -30t-9 -29q-22 -66 -106 -67t-164 79q-76 172 61 282q25 -6 29 -8q23 37 80 26t106 -46z" />
    <glyph glyph-name="ellipsis" unicode="&#x2026;" horiz-adv-x="1028" 
d="M750 201q61 -17 93 -27t75 -36t67 -60q1 -45 -21 -54t-26 -38t-6 -76t-21 -72q6 -16 3 -38t-1 -33q-12 19 -29 10q-17 -8 -22 -10q-31 39 -74 49q-73 139 -35 256q13 43 -3 129zM442 201q62 -17 94 -27t74 -36t68 -60q2 -45 -21 -54t-27 -38t-5 -76q-2 -47 -21 -72
q6 -16 3 -38t-1 -33q-12 18 -30 10q-17 -8 -21 -10q-31 39 -74 49q-72 137 -36 256q13 43 -3 129zM115 201q61 -17 93 -27t75 -36t67 -60q2 -45 -20 -54t-27 -38q-4 -29 -6 -76t-21 -72q6 -16 4 -38t-1 -33q-13 19 -30 11q-17 -9 -22 -11q-31 39 -73 49q-72 137 -36 256
q13 43 -3 129z" />
    <glyph glyph-name="perthousand" unicode="&#x2030;" horiz-adv-x="1638" 
d="M1180 213q2 2 2 6q-2 8 -6 6q0 -4 4 -12zM1324 188q5 0 5 -4q-6 -84 82 -182q37 -47 70 -8q70 135 75 227q5 30 5 54t2 50q8 110 -64 189q-31 31 -43 39q-20 4 -23 6t-17 -6t-19 -10q-6 -12 -36 -66t-30 -112q-4 -1 -5 -15t-7 -18q4 -12 0 -28t-4 -23l8 -33q0 -48 -2 -54
t3 -6zM1442 580q27 0 39 -6t45 -38q33 -33 54 -79q22 -45 26 -91t-3 -114t-15 -100q-42 -156 -85 -199q-5 -4 -25 -17t-20 -30q-49 -6 -98 6q-86 70 -98 84q0 18 -19 33l-2 -4q-31 43 -30 49t-3 9t-6 5q-57 141 -37 322q10 76 39 116q-4 2 -3 8t1 9q12 12 29 47q16 35 35 47
l39 -4q28 -14 34 -19q18 4 40 -13t29 -19t34 -2zM668 213q2 2 2 6q-2 8 -6 6q0 -4 4 -12zM812 188q5 0 5 -4q-6 -84 82 -182q37 -47 70 -8q70 135 75 227q5 30 5 54t2 50q8 110 -64 189q-31 31 -43 39q-20 4 -23 6t-17 -6t-19 -10q-6 -12 -36 -66t-30 -112q-4 -1 -5 -15
t-7 -18q4 -12 0 -28t-4 -23l8 -33q0 -48 -2 -54t3 -6zM930 580q27 0 39 -6t45 -38q33 -33 54 -79q22 -45 26 -91t-3 -114t-15 -100q-42 -156 -85 -199q-5 -4 -25 -17t-20 -30q-49 -6 -98 6q-86 70 -98 84q0 18 -19 33l-2 -4q-31 43 -30 49t-3 9t-6 5q-57 141 -37 322
q10 76 39 116q-4 2 -3 8t1 9q12 12 29 47q16 35 35 47l39 -4q28 -14 34 -19q18 4 40 -13t29 -19t34 -2zM10 1130q2 2 2 7q-2 8 -6 6q0 -5 4 -13zM155 1106q5 0 5 -4q-6 -84 82 -182q37 -47 69 -9q80 154 80 299q0 6 2 32q8 109 -63 190q-31 31 -43 38q-19 4 -23 6t-18 -6
t-19 -10q-6 -12 -21 -40q-16 -28 -30 -57t-14 -81q-4 -2 -5 -15t-7 -18q4 -12 0 -27t-5 -24l9 -33q0 -47 -2 -53t3 -6zM272 1497q26 0 46 -8q19 -8 52 -52q32 -44 47 -76t19 -78q4 -47 -3 -115t-15 -99t-33 -101t-40 -86t-35 -28t-21 -31q-49 -6 -99 6q-86 70 -98 84
q0 18 -18 33l-2 -4q-31 43 -29 53q-10 10 -10 11q-57 141 -37 321q10 76 39 117q-4 2 -3 8t1 8q12 12 28 47t35 47l39 -4q5 -2 17 -8t18 -10q20 5 41 -13q19 -18 27 -20t34 -2zM129 -188q-47 28 -61 20t-30 -5t-42 40q4 16 5 21q1 6 6 20t7 15t10 11t13 6q6 -4 18 -3
q20 29 76 132q55 103 68 121q-4 46 362 780q125 251 127 254t12 39q26 94 64 123q10 41 20 66t19 70q2 2 12 1t10 7q4 15 -6 10q-4 -2 -10 4q12 10 21 24t14 21q5 8 30 -20q0 -8 -3 -53q-3 -46 3 -52t21 -12q-13 -67 -37 -103q-24 -35 -37 -59q-20 -84 -214 -528t-245 -516
q-4 -10 -16 -47t-31 -47q4 -10 0 -29q-6 6 -11 2t-7 -4q-14 -43 -57 -101t-56 -83q21 0 29 12t16 28q9 -9 -8 -26q-43 -90 -92 -139z" />
    <glyph glyph-name="guilsinglleft" unicode="&#x2039;" horiz-adv-x="854" 
d="M221 803q0 -41 98 -116q99 -75 247 -176t220 -171q8 -8 25 -33q35 -74 4 -131q-18 18 -44 3t-34 -15q-147 78 -404 251q-140 95 -242 198q-101 103 -101 173q0 43 64 127t222 202t369 210q8 8 94 51q8 0 34 -15t44 3q43 -76 -29 -166q-84 -82 -230 -167t-242 -140
t-95 -88z" />
    <glyph glyph-name="guilsinglright" unicode="&#x203a;" horiz-adv-x="847" 
d="M842 786q0 -70 -102 -173q-150 -153 -488 -358q-106 -65 -158 -91q-8 0 -34 15t-44 -3q-31 57 4 131q16 25 25 33q72 70 220 171t247 176q98 75 98 116q0 33 -95 88t-241 140t-231 167q-72 90 -29 166q18 -18 44 -3t34 15q86 -43 94 -51q211 -92 369 -210
q159 -118 223 -202t64 -127z" />
    <glyph glyph-name="fraction" unicode="&#x2044;" horiz-adv-x="897" 
d="M762 -188q-49 49 -92 139q-18 18 -8 26q18 -36 27 -38t18 -2q-11 27 -55 83t-58 101q-2 0 -7 4t-12 -2q-4 18 0 29q-19 11 -30 48q-12 36 -17 46q-51 72 -244 516q-194 444 -214 528q-12 25 -36 61t-38 101q16 6 21 12t2 52t-3 53q25 29 30 20q18 -30 36 -45
q-6 -6 -10 -4t-6 0t0 -10t11 -7t11 -1q8 -45 18 -70t21 -66q29 -26 41 -56q12 -31 22 -67t12 -39t128 -254q366 -734 362 -780q12 -18 68 -121t76 -132q18 5 31 -5t17 -22t11 -43q-27 -37 -42 -40t-29 5t-62 -20z" />
    <glyph glyph-name="Euro" unicode="&#x20ac;" horiz-adv-x="956" 
d="M551 1440q2 0 63 18q10 -4 33 -17t51 -14q10 -8 24 -27t21 -26q37 -145 18 -338q-5 -49 -5 -57q-12 2 -16 -11t-5 -16q-47 18 -62 68t-16 128q0 79 -4 107q-66 -49 -80 -180q-2 -2 -6 -10t-12 -6q-4 -51 -23 -160q8 -2 29 -8q18 2 96 9t113 13q4 37 45 31q14 -2 43 -8
q32 -55 9 -67t-15 -76q-60 -21 -114 -23t-59 -4q-18 -7 -20 6q41 0 47 9q7 9 9 16q-33 -1 -62 -15t-71 -10q0 -2 -5 -4t-4 -10q-16 0 -26 12q-10 -8 -39 -8l-21 -127q55 -4 74 -12q18 2 96 9t113 13q4 37 45 31q14 -2 43 -8q32 -55 12 -66q-8 -4 -15 -24t-3 -54
q-60 -20 -114 -22t-59 -4q-18 -7 -20 6q41 0 47 9q7 9 9 15q-33 0 -62 -14t-71 -10q0 -2 -5 -4t-4 -11q-16 0 -26 13q-14 -10 -82 -6q-6 -59 -6 -95l14 -145q5 -117 25 -197t73 -145q43 12 67 48t40 87t33 76q2 41 21 132t16 155q14 -4 29 8t38 4q2 -16 10 -50q9 -34 9 -46
t-9 -41q12 -240 -59 -324q-4 -6 -4 -7l6 -15q-8 -10 -26 -37t-32 -42q-38 -44 -104 -48q-2 0 -3 -10t-15 -7q-14 2 -126 1q-110 -1 -130 1q-100 13 -177 141q-141 233 -155 588q-20 0 -62 -7t-102 9q0 18 -2 21q-16 17 -53 31t-41 16q-8 20 -8 28t6 8q6 1 21 3t30 10
q2 -4 -2 -10t8 -10q8 -2 11 7t6 9l139 -22q25 8 51 12q0 31 23 160q-7 0 -11 4l-114 -9q-25 0 -64 11q0 16 -2 20q-16 17 -53 31t-41 16q-8 20 -8 28t6 8q6 1 21 3t30 10q2 -4 -2 -10t8 -10q8 -2 11 7t6 9l139 -22q39 16 94 10l18 96q4 19 0 55q-11 97 58 250q31 74 88 175
q6 6 22 6q4 2 -1 9t1 11q39 27 153 13t157 -39q10 -16 10 -35z" />
    <glyph glyph-name="trademark" unicode="&#x2122;" horiz-adv-x="671" 
d="M504 1337v-5q0 -3 2 -3l2 4q0 4 -4 4zM496 1335h2v8q4 5 4 11t8 18h-4q6 18 6 39q-4 0 -8 -14l-12 -29q-12 -37 -21 -51q-4 -22 -16 -45l-23 10v6l-26 62q0 10 -9 18q-20 -68 -2 -207q2 -2 0 -2h-4l4 -2q2 0 2 -5t-4 -17t-2 -23l-12 -6q-6 -12 -34 -16t-36 3q-9 7 -11 3
l-3 -6q0 8 -3 78t-1 82t2 19t-4 36v12q-2 4 -2 10l2 23l2 39q0 4 1 43t-5 38q2 2 24 -6q36 0 50 -7t22 -10t8 -17l6 -7l4 -18l5 -4q4 -7 9 -25t12 -34t13 -37l25 51q-2 4 2 7t4 6t3 8t8 15q6 10 8 12q2 3 14 40q2 0 4 2h4l6 18q10 0 19 4v-2q0 -4 -2 -4q6 -6 16 -6l4 -8
q61 -16 63 -33l-6 -29q-4 -2 -7 -13t-5 -13t2 -2l-20 -53l2 -15q2 0 -2 -4q-10 -128 6 -168q-12 -12 -99 -4q0 8 -6 8l11 203q0 4 4 4q-2 4 -2 6zM117 1106q0 -2 2 -4h6q-4 4 -8 4zM109 1184h-3l3 -4v4zM94 1180q2 0 2 6h-4q2 -2 2 -6zM172 1186h4l-4 4v-4zM170 1204v6h-2
q0 -6 2 -6zM104 1204q2 0 2 3t-2 5q-2 -2 0 -6v-2zM115 1274q-4 -4 -2 -6t6 2t-4 4zM231 1460q39 -5 39 -20v-4q-57 6 -123 6q2 -8 13 -8q0 -8 11 -12q11 -5 13 -7q0 -4 11 -14q0 -6 -5 -6q0 -2 3 -2q-5 -5 -3 -11t-2 -6q2 -4 2 -16v-166l-4 -4q4 -10 0 -27l7 -69
q-14 -4 -37 -4t-43 8t-15 20q4 12 2 17l-4 2q0 4 -1 14t1 12q2 -2 2 -3q-1 7 -4 7q5 9 2 13q-2 0 -2 -4q-8 18 -4 27t2 9h-2q0 2 4 2v54l-4 4v37h4q0 8 2 10l-6 -2v4l2 2q-2 5 -2 113q-4 6 -37 3t-43 -3l-10 20q0 2 8 2q-4 4 -4 6t4 2h4q163 0 178 -6h41z" />
    <glyph glyph-name="minus" unicode="&#x2212;" horiz-adv-x="1085" 
d="M803 616q42 0 47 10q6 10 8 15q-127 -23 -233 -19t-256 14q-150 11 -209 7q0 16 -2 21q-16 16 -54 30t-41 17q-8 20 -8 27t6 8q5 2 21 4t31 10q2 -4 -2 -11t6 -9t13 6q3 9 5 10l139 -23q14 2 301 5t338 20q4 36 45 30q14 -2 43 -8q32 -55 13 -65q-8 -3 -16 -23t-3 -55
q-59 -21 -113 -23t-60 -4q-19 -8 -19 6z" />
    <glyph glyph-name="b.alt1" horiz-adv-x="819" 
d="M561 90q-4 0 -9 -3t-5 3q4 0 2 4q57 70 83 205q25 135 9 268q-2 29 -23 54q-35 18 -60 -10q-14 -14 -23 -28q-9 -13 -13 -17l-20 -20q-16 -14 -20 -24t-9 -40q-3 -30 -25 -77t-71 -192q2 -18 -5 -94t9 -99q12 -4 17 4t16 7q29 -17 42 -17t37 14t35 17q4 4 -2 14t-2 17
q8 4 22 1q14 -4 15 13zM0 518l12 84v2q16 28 19 186q4 158 9 203t43 227t51 215t21 64q15 61 37 61q12 0 81 -10q70 -9 109 -30q40 -21 84 -79t15 -79q17 -10 11 -42t-5 -42q-35 -96 -69 -272q-50 -265 -36 -395q7 -62 -7 -93q0 -10 6 -21t5 -17t-14 -33q-13 -28 -12 -48
q14 18 43 86t51 96q51 70 71 82q44 26 79 24q35 -3 66 -13q92 -78 75 -344q1 -12 3 -66t-5 -61q0 -6 -12 -20t-9 -34t3 -24q-18 -53 -51 -94q-92 -111 -185 -109q-10 0 -46 18t-47 14q-25 -7 -25 -51l4 -55q-299 -76 -346 168q-16 90 -23 379q4 0 3 11q-1 10 -2 50t-7 62z
" />
    <glyph glyph-name="c.alt1" horiz-adv-x="757" 
d="M797 604q4 -4 9 -5q6 -1 26 -21t15 -44q-5 -22 -84 -246t-73 -257q-22 -45 -53 -133t-58 -131q-105 -165 -327 -101q-104 47 -160 164q-55 117 -51 250q2 43 -5 164t-16 155q2 2 20 125q17 123 23 125q-8 7 -7 15t-3 18q44 102 81 146q36 45 73 67q242 -8 352 -129
q98 -244 4 -387q-24 -6 -42 10q-19 16 -25 19q4 162 -11 225q-39 -45 -63 -216t-10 -366q16 -195 80 -276q38 0 75 73q35 54 119 346t111 410z" />
    <glyph glyph-name="f.alt1" horiz-adv-x="849" 
d="M401 295q2 4 23 28q20 24 27 41q6 17 2 44q31 36 23 320t-30 351q-18 -125 -45 -784zM344 -63q-14 0 -22 -46l12 -24q-19 -34 -14 -74q4 -39 12 -85t10 -58q12 -2 15 -22q3 -19 12 -23q12 -27 24 -19q-12 8 -16 15h10q6 0 10 6q2 -2 6 -2q-2 8 -1 11q1 2 2 6q0 4 2 16
t17 69q15 58 15 123l6 6q-2 2 -6 2l-4 8q37 96 32 162t-67 178q-20 -24 -26 -98t-19 -98q0 -47 -3 -50t-7 -3zM934 672q45 0 35 -86q-4 -35 -2 -41l-9 14q-12 -101 -54 -188t-87 -141t-121 -87t-168 -20q10 -49 30 -130t21 -140q1 -58 -7 -102t-21 -131q-12 -87 -39 -142
q-18 -45 -70 -74q-13 -6 -58 -35q-45 -28 -97 -36q-51 -8 -82 4t-58 28q-104 138 -125 226t-17 198q3 109 1 197q8 20 -1 72t-1 157q10 14 21 16q-3 89 25 389t39 355t23 159t42 158q-8 14 -6 32t-5 32q98 12 267 -84q82 -88 116 -327t6 -456q-27 -217 -100 -253
q16 0 53 -24t58 -26q96 -8 169 47t103 123q31 68 55 138q25 70 33 77q0 99 31 101z" />
    <glyph glyph-name="m.alt1" horiz-adv-x="1394" 
d="M1446 688q0 17 51 23l4 -4q2 -121 -61 -447t-150 -446q-2 -4 -7 -8t-7 -9q-6 -73 -35 -96q-10 -7 -19 -23t-47 -40t-51 -37q-76 -4 -127 13t-64 21t-61 28t-51 26q-49 249 55 857q10 56 9 70v74q-2 8 -9 3q-6 -5 -8 2t0 10q2 -1 8 -3q12 -5 3 13q-25 -4 -49 -51t-37 -58
q-19 -57 -67 -173t-71 -179q-3 -10 7 -16t9 -12q-8 -42 -20 -50q-23 -4 -45 9t-31 16q-37 63 -52 127t-25 153q-10 90 -19 133q-122 -223 -141 -364q-19 -140 18 -301q-176 -35 -303 10q-45 57 -52 141t4 143t18 70q0 8 -3 28t13 28q-24 17 -14 72t10 69q16 66 -6 117
q14 203 22 260q33 -23 138 -51t143 -72q6 -88 5 -121t-11 -103t-13 -102q27 33 70 148t86 157q70 0 98 -18q35 -94 40 -149q15 -161 20 -193q21 14 27 51q7 38 15 59t48 78q35 145 129 197q30 -12 102 -26t107 -37q12 -8 63 -99q57 -113 53 -164q-23 -84 -27 -368t-12 -336
v-4q23 -6 29 16l178 408q2 4 58 261q55 257 55 260v9z" />
    <glyph glyph-name="r.alt1" horiz-adv-x="780" 
d="M903 526q23 0 37 -14h2q6 -8 14 -25q27 -41 29 -59h2q18 -49 -90 -346t-295 -696q-16 -37 -86 -38q-70 -2 -148 24t-142 69t-70 74t0 111t55 356t59 310t27 83q17 50 12 57q-16 29 -111 44t-116 46q-68 109 -80 246t39 186q21 -8 71 -20q103 -24 140 -74q16 -45 5 -132
t17 -142q44 -44 134 -54t158 -24t87 -72q4 -23 3 -36q-2 -13 -36 -160q-177 -756 -106 -791q322 537 395 942q-12 25 -12 48z" />
    </font>
</defs>
</svg>
