<svg version="1.1" id="oil-can-svg" xmlns="http://www.w3.org/2000/svg" xmlns:xlink="http://www.w3.org/1999/xlink" x="0px" y="0px"
	 viewBox="0 0 110.7 110.7" style="enable-background:new 0 0 110.7 110.7;" xml:space="preserve">
<style type="text/css">
	.background-rectangle{fill:#00A1DF;}
	.outer-circle{fill:#5EB8E7;}
	.inner-circle{
		fill:#00A1DF;
		stroke: white;
    stroke-width: 27.4px;
    stroke-dasharray: 215;
    stroke-dashoffset: 236;
    transform-origin: center center;
    transition: stroke-dashoffset 0.3s ease-out;
	}

	svg:hover .inner-circle {
		stroke-dashoffset: 382;
	}

	.inner-circle-overlay{fill:#00A1DF;}
	.oil-can{fill:#FFFFFF;}
	.sqiggle-drop{clip-path:url(#SVGID_4_);fill:#FFFFFF;}
</style>
<rect class="background-rectangle" width="110.7" height="110.7"/>
<g>
	<g>
		<path class="outer-circle" d="M99.8,52.3c-1.7-24.6-23-43.1-47.6-41.4l0,0.1l-0.1-0.1c-23.6,1.6-41.4,20.8-41.4,44.4l0.1,0h-0.1
			c0,1,0,2.1,0.1,3.1c1.7,24.6,23,43.1,47.6,41.4C83,98.1,101.6,76.8,99.8,52.3z M55.2,55.4l0.1,0l0-0.1l0,0.1H55.2z"/>
		<path class="inner-circle" d="M55.4,24.5c-17,0-30.9,13.9-30.9,30.9c0,17,13.9,30.9,30.9,30.9c17,0,30.9-13.9,30.9-30.9
			C86.2,38.3,72.4,24.5,55.4,24.5z"/>
		<path class="inner-circle-overlay" d="M55.4,24.5c-17,0-30.9,13.9-30.9,30.9c0,17,13.9,30.9,30.9,30.9c17,0,30.9-13.9,30.9-30.9
		C86.2,38.3,72.4,24.5,55.4,24.5z"/>
	</g>
</g>
<g>
	<polygon class="oil-can" points="32.4,42.3 32.4,49.9 41.8,53.7 42.5,52.1 34.2,48.7 34.2,45 41.1,47.8 41.1,50.4 55.7,50.4 58.2,52.1 
		75.1,46.5 76.3,47.7 77.5,46.4 75.6,44.4 58.5,50.1 56.3,48.6 42.9,48.6 42.9,46.6 	"/>
	<polygon class="oil-can" points="61.9,60.2 41.1,60.2 41.1,49.5 42.9,49.5 42.9,58.3 61.1,58.3 68.5,49.7 68.5,47.5 70.3,47.5 
		70.3,50.4 	"/>
	<rect x="48.9" y="44.1" class="oil-can" width="1.8" height="5.7"/>
	<rect x="46" y="43.5" class="oil-can" width="7" height="1.8"/>
	<g>
		<defs>
			<rect id="SVGID_3_" x="32.4" y="42.3" width="46" height="26.2"/>
		</defs>
		<path class="sqiggle-drop" d="M69.7,68.5c-1.7,0-2.5-1.3-3.2-2.3c-0.7-1-1.2-1.7-2.1-1.7c-0.9,0-1.4,0.6-2.1,1.7c-0.7,1-1.5,2.3-3.2,2.3
			c-1.7,0-2.5-1.3-3.2-2.3c-0.7-1-1.2-1.7-2.1-1.7c-0.9,0-1.4,0.6-2.1,1.7c-0.7,1-1.5,2.3-3.2,2.3c-1.7,0-2.5-1.3-3.2-2.3
			c-0.7-1-1.1-1.7-2-1.7s-1.4,0.6-2,1.7c-0.7,1-1.5,2.3-3.2,2.3c-1.7,0-2.5-1.3-3.2-2.3c-0.7-1-1.2-1.7-2.1-1.7v-1.4
			c1.7,0,2.5,1.3,3.2,2.3c0.7,1,1.2,1.7,2.1,1.7c0.9,0,1.4-0.6,2-1.7c0.7-1,1.5-2.3,3.2-2.3s2.5,1.3,3.2,2.3c0.7,1,1.2,1.7,2,1.7
			s1.4-0.6,2-1.7c0.7-1,1.5-2.3,3.2-2.3c1.7,0,2.5,1.3,3.2,2.3c0.7,1,1.2,1.7,2.1,1.7c0.9,0,1.4-0.6,2.1-1.7c0.7-1,1.5-2.3,3.2-2.3
			c1.7,0,2.5,1.3,3.2,2.3c0.7,1,1.2,1.7,2.1,1.7c0.9,0,1.4-0.6,2.1-1.7c0.7-1,1.5-2.3,3.2-2.3v1.4c-0.9,0-1.4,0.6-2.1,1.7
			C72.3,67.2,71.4,68.5,69.7,68.5"/>
		<path class="sqiggle-drop" d="M76.9,50.5c0,0-1.8,3.6-1.8,5.1c0,1.5,0.9,2,1.8,2c0.9,0,1.5-0.7,1.5-2C78.4,54.3,76.9,50.5,76.9,50.5"/>
	</g>
</g>
</svg>
